<?xml version="1.0" encoding="utf-8"?>
<!-- Generator: Adobe Illustrator 16.0.0, SVG Export Plug-In . SVG Version: 6.00 Build 0)  -->
<!DOCTYPE svg PUBLIC "-//W3C//DTD SVG 1.1//EN" "http://www.w3.org/Graphics/SVG/1.1/DTD/svg11.dtd">
<svg version="1.1" id="Layer_1" xmlns="http://www.w3.org/2000/svg" xmlns:xlink="http://www.w3.org/1999/xlink" x="0px" y="0px"
	 width="269.759px" height="210.605px" viewBox="0 0 269.759 210.605" enable-background="new 0 0 269.759 210.605"
	 xml:space="preserve">
<path fill="#FFFFFF" d="M263.807,5.122l-0.143-4.998c2.324-0.066,4.348-0.105,6.04-0.124l0.055,5
	C268.09,5.018,266.096,5.057,263.807,5.122z"/>
<path fill="#FFFFFF" d="M61.231,188.444c-3.067-2.632-6.05-5.275-8.865-7.855l3.379-3.687c2.775,2.543,5.717,5.15,8.742,7.747
	L61.231,188.444z M43.778,172.416c-2.891-2.861-5.666-5.736-8.25-8.546l3.68-3.385c2.531,2.753,5.253,5.571,8.088,8.377
	L43.778,172.416z M27.717,154.885c-2.616-3.201-5.049-6.398-7.229-9.504l4.092-2.873c2.11,3.006,4.469,6.106,7.008,9.213
	L27.717,154.885z M14.051,135.26c-2.076-3.655-3.865-7.3-5.317-10.833l4.625-1.9c1.371,3.338,3.067,6.792,5.04,10.264L14.051,135.26
	z M5.034,112.836c-0.926-4.135-1.397-8.239-1.402-12.198l5-0.007c0.005,3.594,0.436,7.333,1.281,11.113L5.034,112.836z
	 M9.988,89.672l-4.844-1.239c0.997-3.898,2.509-7.738,4.492-11.414l4.4,2.374C12.247,82.71,10.885,86.169,9.988,89.672z
	 M20.36,70.167l-3.832-3.212c2.468-2.944,5.332-5.844,8.513-8.619l3.287,3.767C25.343,64.708,22.662,67.421,20.36,70.167z
	 M37.406,55.108l-2.828-4.123c3.138-2.152,6.563-4.277,10.184-6.315l2.453,4.357C43.723,50.993,40.423,53.039,37.406,55.108z
	 M57.517,43.705l-2.146-4.516c3.441-1.636,7.109-3.253,10.899-4.807l1.896,4.627C64.459,40.528,60.876,42.107,57.517,43.705z
	 M79.061,34.839l-1.686-4.707c3.604-1.291,7.391-2.563,11.255-3.784l1.506,4.768C86.332,32.317,82.605,33.57,79.061,34.839z
	 M101.348,27.774l-1.352-4.813c3.703-1.041,7.556-2.065,11.452-3.044l1.219,4.849C108.815,25.734,105.008,26.747,101.348,27.774z
	 M124.069,22.051l-1.1-4.878c3.775-0.851,7.676-1.686,11.593-2.481l0.994,4.9C131.675,20.38,127.81,21.208,124.069,22.051z
	 M147.071,17.375l-0.898-4.919c3.798-0.694,7.72-1.375,11.654-2.021l0.811,4.934C154.732,16.011,150.841,16.686,147.071,17.375z
	 M170.242,13.559l-0.73-4.946c3.832-0.566,7.771-1.117,11.707-1.638l0.656,4.957C177.964,12.449,174.05,12.997,170.242,13.559z
	 M193.534,10.476l-0.585-4.966c3.862-0.455,7.815-0.893,11.749-1.302l0.518,4.974C201.304,9.588,197.374,10.023,193.534,10.476z
	 M216.916,8.044l-0.451-4.979c3.92-0.354,7.885-0.687,11.783-0.988l0.385,4.985C224.756,7.361,220.813,7.691,216.916,8.044z
	 M240.363,6.236l-0.316-4.99c4.019-0.255,7.995-0.478,11.817-0.663l0.24,4.994C248.308,5.761,244.357,5.982,240.363,6.236z"/>
<path fill="#FFFFFF" d="M74.983,199.756c-1.601-1.265-3.169-2.522-4.709-3.771l3.15-3.883c1.522,1.235,3.075,2.479,4.658,3.73
	L74.983,199.756z"/>
<polygon fill="#FFFFFF" points="60.686,202.095 73.113,195.054 76.672,181.221 93.42,210.605 "/>
</svg>
