<?xml version="1.0" encoding="utf-8"?>
<!-- Generator: Adobe Illustrator 16.0.0, SVG Export Plug-In . SVG Version: 6.00 Build 0)  -->
<!DOCTYPE svg PUBLIC "-//W3C//DTD SVG 1.1//EN" "http://www.w3.org/Graphics/SVG/1.1/DTD/svg11.dtd" [
	<!ENTITY ns_flows "http://ns.adobe.com/Flows/1.0/">
	<!ENTITY ns_extend "http://ns.adobe.com/Extensibility/1.0/">
	<!ENTITY ns_ai "http://ns.adobe.com/AdobeIllustrator/10.0/">
	<!ENTITY ns_graphs "http://ns.adobe.com/Graphs/1.0/">
]>
<svg version="1.1" id="Layer_1" xmlns:x="&ns_extend;" xmlns:i="&ns_ai;" xmlns:graph="&ns_graphs;"
	 xmlns="http://www.w3.org/2000/svg" xmlns:xlink="http://www.w3.org/1999/xlink" xmlns:a="http://ns.adobe.com/AdobeSVGViewerExtensions/3.0/"
	 x="0px" y="0px" width="200.705px" height="231.969px" viewBox="0 0 200.705 231.969"
	 style="enable-background:new 0 0 200.705 231.969;" xml:space="preserve">
<polygon style="fill:#1CB3AB;" points="100.366,0 0.01,57.93 0.01,58.149 0,173.805 0,174.023 100.345,231.969 200.7,174.039 
	200.7,173.82 200.71,58.165 200.71,57.946 "/>
<g>
	<path style="fill:#FFFFFF;" d="M125.342,139.931c-5.508-8.67-11.715-16.758-21.305-21.402c-0.594-0.287-1.328-0.284-1.996-0.416
		c-0.115,0.632-0.35,1.267-0.33,1.894c0.334,11.084,0.686,22.168,1.076,33.25c0.037,1.043-0.213,1.674-1.137,2.271
		c-2.256,1.46-4.082,3.392-5.398,5.799c2.113-1.921,4.225-3.841,6.645-6.042c0.279,15.654-0.66,30.777-2.744,45.841
		c0.129-0.121,0.203-0.249,0.236-0.386c0.086-0.354,0.162-0.709,0.227-1.066c2.98-16.461,3.797-33.06,3.156-49.751
		c-0.387-10.042-0.779-20.083-1.164-30.124c-0.01-0.3,0.029-0.602,0.045-0.902l0.445-0.386c2.713,2.074,5.543,4.011,8.111,6.248
		c6.266,5.458,11.111,12.097,15.395,19.162c3.297,5.439,6.74,10.77,11.059,15.477c0.326,0.354,0.666,0.694,1,1.042
		c0.107-0.264,0.088-0.42,0.002-0.521C133.455,153.765,129.639,146.694,125.342,139.931z"/>
	<path style="fill:#FFFFFF;" d="M93.113,133.585c-1.049,1.502-2.098,3.005-3.146,4.507c0.16,0.114,0.318,0.229,0.479,0.344
		c1.004-1.543,2.008-3.086,3.012-4.629C93.342,133.733,93.229,133.659,93.113,133.585z"/>
	<path style="fill:#FFFFFF;" d="M93.045,154.024c-0.943,3.024-3.723,5.392-3.571,9.276c1.097-2.387,2.077-4.377,2.919-6.424
		C92.758,155.987,92.836,154.979,93.045,154.024z"/>
	<path style="fill:#FFFFFF;" d="M99.234,194.817c0.162-1.315-0.1-2.683-0.18-4.307c-2.963,2.366-5.221,5.131-7.504,7.97
		c0.613-1.108,1.09-2.324,1.867-3.3c1.225-1.534,2.541-3.035,4.021-4.316c1.836-1.59,2.012-1.862,0.813-4.101
		c-1.299-2.419-1.746-4.989-1.438-7.702c0.021-0.189,0.117-0.371,0.289-0.892c0.219,1.494,0.389,2.652,0.559,3.812
		c0.111-0.01,0.219-0.018,0.328-0.026c0.096-1.844,0.193-3.687,0.287-5.531l0.436,0.017l0.15,3.031
		c0.051,0.003,0.104,0.005,0.154,0.007c0.27-1.58,0.539-3.161,0.807-4.741c0.111,0.011,0.221,0.021,0.332,0.033
		c0,1.084-0.002,2.168-0.004,3.252c1.652-2.406,0.932-5.01,0.936-7.781c-1.648,1.115-3.111,2.104-4.572,3.092
		c-0.063-0.084-0.125-0.168-0.188-0.251c0.883-0.83,1.764-1.66,2.646-2.49c-0.049-0.064-0.098-0.129-0.146-0.192
		c-1.35,0.854-2.699,1.708-4.049,2.563c-0.053-0.086-0.109-0.173-0.162-0.259c1.086-0.994,2.236-1.929,3.24-3.002
		c0.908-0.972,1.971-1.916,2.455-3.685c-2.645,2.155-4.889,3.985-7.133,5.816c-0.131-0.151-0.262-0.302-0.395-0.453
		c2.604-1.567,4.615-3.671,5.986-6.372c-1.846,1.647-3.693,3.293-5.539,4.939c-0.057-0.07-0.111-0.141-0.166-0.21
		c1.158-1.339,2.316-2.677,3.475-4.017c-0.109-0.108-0.219-0.219-0.326-0.327c-0.697,0.709-1.4,1.41-2.088,2.129
		c-2.332,2.435-3.264,2.298-4.808-0.896c-0.147,0.44-0.263,0.736-0.348,1.041c-1.14,4.067-2.765,7.832-6.095,10.675
		c-0.846,0.724-2.14,1.5-1.146,3.072c0.098,0.154-0.438,0.742-0.721,1.095c-1.055,1.319-2.125,2.623-2.993,4.097
		c1.042-1.096,2.084-2.19,3.403-3.577c-2.045,3.718-3.885,7.06-5.722,10.401l0.239,0.13l5.726-8.849
		c0.168,0.087,0.334,0.175,0.502,0.264c-3.439,5.131-6.661,10.335-5.838,16.905c0.646-6.894,3.752-12.63,8.156-17.767
		c-2.841,4.364-5.403,8.857-6.394,14.065c-0.16,0.851-0.217,1.72-0.19,2.609c0.788-4.552,2.517-8.674,5.334-12.349
		c-3.032,5.754-4.851,11.742-3.7,18.344c0.336-2.975,0.389-6.02,1.088-8.905c0.701-2.892,2.051-5.626,3.115-8.43
		c0.153,0.053,0.305,0.105,0.457,0.158c-0.163,0.449-0.313,0.903-0.488,1.347c-1.813,4.54-2.908,9.227-2.838,14.14
		c0.01,0.729,0.254,1.453,0.389,2.181c0.188,0.069,0.377,0.14,0.564,0.211c0.654-0.796,1.273-1.624,1.975-2.376
		c0.389-0.417,0.912-0.709,1.375-1.058c0.233,0.533,0.578,1.046,0.681,1.604c0.317,1.728,0.508,3.479,0.83,5.207
		c0.097,0.514,0.465,0.978,0.795,1.639c1.987-6.055,3.493-8.625,6.476-11.247c-1.111,1.745-2.447,3.52-3.424,5.473
		c-0.992,1.979-1.63,4.135-2.43,6.231c1.117,0.538,1.402,0.054,1.566-0.828c0.662-3.54,2.447-6.495,4.867-9.1
		c0.297-0.32,0.648-0.588,1.076-0.808c-2.789,3.597-5.01,7.401-5.105,12.114c0.633-3.226,2.184-5.951,4.518-8.285
		c-1.727,2.95-3.641,5.833-3.02,9.521c0.666-3.151,1.73-6.091,3.988-8.478c-1.166,2.677-2.678,5.235-2.604,8.303
		c0.604-1.71,1.207-3.42,1.813-5.129c0.139,0.04,0.279,0.081,0.418,0.121c-0.584,2.439-1.547,4.846-0.779,7.412
		c0.373-1.725,0.746-3.45,1.119-5.177c0.098,0.027,0.195,0.053,0.293,0.079c-0.061,2.07-0.123,4.141-0.184,6.255l0.633-0.394
		c-0.021-0.007-0.043-0.014-0.066-0.021c0.113-2.346,0.08-4.71,0.363-7.035C97.672,205.938,98.545,200.389,99.234,194.817z
		 M93.479,193.691c-1.219-1.957-1.406-4.256-1.209-6.663c0.574,2.168,1.148,4.335,1.723,6.501
		C93.82,193.584,93.648,193.638,93.479,193.691z M95.006,190.489c-1.57-1.626-1.443-3.765-1.518-5.837
		c0.646,1.904,1.291,3.809,1.936,5.714C95.283,190.407,95.145,190.448,95.006,190.489z M97.568,189.128
		c-2.342-2.114-2.555-4.83-2.514-7.65C95.9,184.055,96.734,186.591,97.568,189.128z M82.081,199.183
		c2.671-10.051,7.358-18.837,15.888-25.207C91.109,181.397,85.58,189.652,82.081,199.183z"/>
	<path style="fill:#FFFFFF;" d="M104.271,126.691c1.428,1.359,2.855,2.72,4.285,4.081
		C107.596,128.931,106.539,127.187,104.271,126.691z"/>
	<path style="fill:#FFFFFF;" d="M95.504,132.731c-0.936,1.688-1.871,3.378-2.807,5.066
		C94.525,136.595,95.111,134.715,95.504,132.731z"/>
	<path style="fill:#FFFFFF;" d="M109.609,163.886c0.121-0.083,0.242-0.167,0.361-0.25c-0.908-1.339-1.816-2.677-2.727-4.015
		c-0.186,0.131-0.375,0.262-0.561,0.393C107.658,161.305,108.633,162.595,109.609,163.886z"/>
	<path style="fill:#FFFFFF;" d="M114.955,146.116c0.613,2.022,1.307,4.312,1.998,6.601
		C116.414,147.292,116.176,146.522,114.955,146.116z"/>
	<path style="fill:#FFFFFF;" d="M108.408,174.031c-0.697-0.67-1.27-1.761-2.734-0.763c5.186,4.729,7.467,10.937,9.352,17.352
		c-1.273-2.65-2.426-5.367-3.855-7.931c-1.457-2.616-3.182-5.081-4.971-7.511c1.785,4.611,5.674,8.226,6.229,13.579
		c-1.162-1.96-2.248-3.79-3.332-5.62l-0.148,0.081c1.256,2.775,2.51,5.552,3.766,8.326c-0.156,0.073-0.313,0.146-0.471,0.22
		c-0.891-1.704-1.783-3.408-2.674-5.112c-0.068,0.029-0.135,0.06-0.205,0.09c0.881,2.343,1.76,4.686,2.641,7.028
		c-0.211,0.082-0.422,0.164-0.633,0.246l-1.881-4.527c-0.107,0.039-0.215,0.078-0.322,0.118c0.465,1.623,0.932,3.247,1.408,4.906
		c-1.174,0.76-2.078,0.205-2.801-0.552c-0.896-0.935-1.578-2.078-2.496-2.986c-0.373-0.371-1.281-0.673-1.666-0.471
		c-0.857,0.452-0.18,1.001,0.154,1.586c1.916,3.35,2.939,6.979,3.215,10.817c-1.164-3.412-2.33-6.824-3.496-10.237
		c-0.148,0.04-0.295,0.08-0.443,0.12c0.605,3.079,0.949,6.239,1.877,9.216c1.5,4.813,0.584,8.794-3.094,12.206
		c-1.143,1.061-2.178,2.236-3.281,3.34c-0.34,0.34-0.715,0.642-1.086,0.949c-0.057,0.058-0.115,0.114-0.174,0.172
		c1.02-0.204,2.023-0.34,2.941-1.007c0.285-0.208,0.549-0.437,0.801-0.679c0.973-1.668,1.629-3.599,3.871-4.213
		c0.455-0.125,0.797-0.757,1.107-1.361c0.158-0.147,0.322-0.29,0.508-0.405c0.525-0.325,1.141-0.475,1.623-0.863
		c0.049,0.057,0.098,0.113,0.143,0.167c0.416-0.209,0.852-0.457,0.98-0.688c-0.016-0.005-0.031-0.01-0.049-0.015
		c0.811-3.069,1.631-6.136,2.426-9.209c0.344-1.325,1.072-1.278,1.887-0.502c0.826,0.786,1.539,1.688,2.316,2.523
		c0.482,0.518,0.992,1.007,1.836,1.857c0.975-2.382,1.865-4.394,2.607-6.458c0.313-0.873,0.385-1.616,1.652-1.56
		c1.107,0.05,1.004-0.95,0.959-1.749c-0.051-0.886-0.711-1.967,0.82-2.357c0.166-0.042,0.234-0.753,0.225-1.151
		c-0.061-2.389-0.939-4.449-2.561-6.204c-1.285-1.39-2.879-2.633-2.473-4.884c0.008-0.044-0.018-0.112-0.051-0.144
		c-2.355-2.179-1.867-5.581-3.512-8.242c-0.205,0.583-0.363,1.033-0.545,1.55c-0.309-0.167-0.549-0.268-0.756-0.414
		c-1.689-1.182-2.098-1.064-2.775,0.817C110.652,175.186,109.777,175.347,108.408,174.031z M112.65,194.964
		c-0.744,1.498-3.035,2.036-4.348,0.765C109.879,195.451,111.33,195.195,112.65,194.964z M108.508,198.927
		c1.064-0.181,2.129-0.363,3.193-0.544C110.781,199.258,109.824,199.962,108.508,198.927z M108.514,197.38
		c1.688-0.28,3.037-0.504,4.346-0.722C111.842,197.958,110.279,198.317,108.514,197.38z M115.986,181.186
		c-0.621,0.804-1.244,1.607-1.865,2.412c-0.205-0.17-0.408-0.339-0.611-0.508c0.76-0.687,1.518-1.372,2.275-2.059
		C115.854,181.082,115.92,181.135,115.986,181.186z M115.057,178.871c0.135,0.076,0.27,0.152,0.406,0.228
		c-0.672,0.965-1.344,1.929-2.016,2.894c-0.184-0.131-0.367-0.261-0.551-0.392C113.617,180.691,114.336,179.781,115.057,178.871z
		 M114.512,176.27c-0.141,2.254-0.912,3.426-2.482,3.768C112.934,178.666,113.723,177.468,114.512,176.27z M111.545,178.349
		c-0.129-0.091-0.256-0.182-0.387-0.271c0.705-0.951,1.41-1.902,2.375-3.202C113.123,176.561,112.773,177.762,111.545,178.349z
		 M112.693,172.903c-0.127,1.555-0.406,3.053-1.832,3.897c-0.135-0.073-0.271-0.146-0.406-0.219
		C111.201,175.355,111.947,174.13,112.693,172.903z"/>
	<path style="fill:#FFFFFF;" d="M113.873,130.354c-0.496,3.932-0.213,7.843,0.639,12.096c-0.039-4.31-0.072-8.211-0.107-12.112
		C114.227,130.342,114.049,130.347,113.873,130.354z"/>
	<path style="fill:#FFFFFF;" d="M111.867,156.098c-0.551-3.744-2.152-7.245-0.389-11.269
		C109.723,146.817,110.078,153.32,111.867,156.098z"/>
	<path style="fill:#FFFFFF;" d="M85.67,157.748c0.084-0.871,0.18-1.741,0.252-2.613c0.427-5.183,0.484-10.52,5.842-13.64
		C87.403,141.377,84.775,148.263,85.67,157.748z"/>
	<path style="fill:#FFFFFF;" d="M66.491,130.869l0.253,0.549c1.408-0.7,2.817-1.398,4.225-2.099
		c-0.044-0.119-0.087-0.239-0.131-0.359C69.389,129.596,67.939,130.233,66.491,130.869z"/>
	<path style="fill:#FFFFFF;" d="M106.6,110.861c0.102,0.086,0.205,0.172,0.305,0.258c0.84-1.224,1.68-2.449,2.518-3.673
		c-0.109-0.074-0.221-0.148-0.332-0.222L106.6,110.861z"/>
	<path style="fill:#FFFFFF;" d="M58.626,142.255c1.585-0.841,3.423-1.289,4.68-2.641c-0.096-0.147-0.192-0.293-0.288-0.439
		C61.555,140.202,60.09,141.229,58.626,142.255z"/>
	<path style="fill:#FFFFFF;" d="M154.893,152.383c-0.354-2.017-0.801-4.351-1.656-6.53c-1.207-3.079-3.723-5.183-7.078-5.921
		c-1.295-0.283-2.27-0.979-3.473-2.479c-1.096-1.364-2.502-2.265-3.488-2.781c-1.025-0.536-2.115-0.889-3.168-1.23l-0.438-0.143
		c-0.195-0.112-0.441-0.238-0.721-0.344c-0.453-0.168-0.896-0.252-1.234-0.301c-0.639-0.2-1.281-0.387-1.924-0.574
		c-1.789-0.519-3.48-1.011-5.021-1.803c-0.135-0.096-0.338-0.245-0.445-0.364c1.041,0.155,2.109,0.491,3.236,0.846l0.127,0.04
		c4.268,1.339,8.727,1.161,13.633-0.547c0.783-0.272,1.469-0.634,2.131-0.981c0.385-0.203,0.768-0.406,1.164-0.579
		c0.176-0.077,0.355-0.146,0.537-0.216c1.084-0.425,3-1.174,3.49-3.406c0.014-0.009,0.025-0.02,0.037-0.029
		c1.236-1.007,2.674-2.41,2.834-4.343c0.158-1.93-1.021-3.543-2.068-4.732c-0.139-0.158-0.289-0.308-0.439-0.456
		c-0.086-0.082-0.174-0.161-0.25-0.255c-0.104-0.132-0.182-0.286-0.268-0.434l-0.115-0.201c-0.115-0.197-0.213-0.416-0.314-0.634
		c-0.346-0.751-0.777-1.684-1.68-2.325c-0.201-0.142-0.404-0.272-0.609-0.403c2.029-20.648,7.121-40.077,21.084-56.758
		c-8.467-2.477-25.572,9.335-30.156,18.218c3.992-1.436,11.986-4.309,11.986-4.309l1.721-0.529c0,0-0.313,0.667-0.809,1.432
		c-6.938,11.701-11.352,24.104-13.906,37.129c-0.697-0.034-1.387-0.051-2.064-0.067c-0.299-0.008-0.598-0.015-0.896-0.023
		c-0.746-0.608-1.816-1.301-3.084-1.212c-0.975,0.067-1.885,0.345-2.717,0.646c0.127-1.425-0.287-2.932-1.98-4.296
		c-2.656-2.141-4.895-2.137-6.557-1.479c-2.408-1.547-4.574-1.215-6.895,1.003c-0.527,0.505-0.961,1.061-1.344,1.552
		c-0.193,0.247-0.387,0.494-0.592,0.731l-0.168,0.205c-1.912-4.499-3.463-9.1-4.541-13.911c-2.537-11.322-3.346-22.751-2.855-34.64
		c0.016,0.002,0.045-3.214,0.045-3.214c5.072,3.942,11.545,5.563,17.098,6.164c-8.543-9.382-17.023-25.958-21.154-39.898
		c-4.318,13.94-11.687,31.025-20.5,39.898c5.114-0.198,11.973-2.142,17.029-6.043c0,0,0.111,1.366,0.088,1.377
		c1.041,17.111-0.885,33.309-6.809,48.613c-0.02,0.003-0.039,0.006-0.059,0.009c-0.074-0.021-0.184-0.067-0.243-0.111
		c-2.817-2.039-6.021-2.407-8.849-2.732c-0.674-0.077-1.346-0.154-2.012-0.253c-1.176-0.177-2.337,0.133-3.218,0.422
		c-0.974,0.32-2.343,1.422-2.334,2.872l0.001,0.374c0,0.794,0.001,1.711,0.179,2.645c-0.869-0.355-1.765-0.679-2.704-0.919
		c-2.307-0.585-4.047,0.553-5.316,1.386c-0.575,0.377-1.118,0.733-1.585,0.862c-0.274,0.076-0.564,0.213-0.834,0.402
		c-2.543-13.158-6.971-25.683-13.974-37.493c-0.497-0.765-0.808-1.432-0.808-1.432l1.721,0.529c0,0,7.993,2.873,11.985,4.309
		C57.083,63.834,39.978,52.022,31.511,54.5C46.093,71.92,51,92.336,52.847,114.009c-0.856,1.243-1.484,2.618-1.852,4.136
		c-0.245,1.014-0.48,2.031-0.715,3.049c-0.163,0.705-0.325,1.411-0.492,2.115c-0.22,0.933-0.447,1.865-0.673,2.798l-0.176,0.724
		c-0.661,1.219-0.44,2.729,0.6,3.69c0.482,0.443,1.034,0.661,1.432,0.779c3.193,1.959,4.101,2.011,9.242,1.545
		c1.72-0.155,1.45,0.271,2.708,0.578c1.258,0.308,7.737-2.086,7.852-1.669c0.007,0.025-8.889,4.085-8.889,4.085
		c-0.629,0.431-1.21,0.956-1.628,1.636c-0.452,0.734-1.116,1.275-1.886,1.901c-0.385,0.314-0.771,0.629-1.14,0.97l-0.979,0.913
		c-2.056,1.927-3.998,3.745-6.436,4.886c-2.013,0.939-3.436,2.738-3.936,4.962c-0.375,0.839-0.471,1.551-0.42,2.137
		c0,0-0.627,0.072-0.627,1.125s2.659,1.67,2.659,1.67l0.013,0.009c-0.266,0.555-0.532,1.15-0.744,1.777
		c-0.364,1.072-0.338,2.181-0.275,3.029c0.06,0.798,0.3,1.49,0.512,2.102l0.088,0.256c0.213,0.629,0.437,1.254,0.661,1.88
		c0.254,0.71,0.509,1.421,0.746,2.138c0.05,0.147,0.106,0.3,0.164,0.455c0.055,0.148,0.134,0.361,0.168,0.487
		c-0.52,2.66,0.378,4.794,1.333,6.412c0.003,0.014,0.006,0.027,0.01,0.04l2.605,3.095c2.612,0.712,4.698-0.24,6.265-1.047
		c2.691,1.081,4.905,0.035,6.572-0.752c0.23-0.108,0.455-0.216,0.674-0.313c0.468,0.512,1.089,0.958,1.919,1.07
		c1.642,0.223,2.884-1.032,3.557-1.707c0.426-0.427,0.775-0.865,1.112-1.293c0.117,0.266,0.253,0.534,0.415,0.8
		c0.846,1.377,2.197,2.192,3.624,2.192c0.019,0,0.038,0,0.057-0.001c1.398-0.02,2.638-0.799,3.404-2.134
		c0.587-1.024,0.93-2.086,1.262-3.113c0.147-0.454,0.293-0.91,0.465-1.354c0.127-0.334,0.262-0.591,0.396-0.767
		c0.421-0.543,0.868-1.067,1.313-1.591c0.25-0.294,0.5-0.588,0.748-0.885c0.16-0.194,0.313-0.395,0.465-0.594
		c0.115-0.152,0.229-0.305,0.35-0.449c0.176-0.214,0.378-0.417,0.579-0.622c0.168-0.172,0.349-0.356,0.528-0.554
		c-0.008,0.246-0.01,0.496-0.008,0.749c0.037,3.967-1.627,7.607-5.396,11.806c-0.814,0.908-1.37,1.97-1.857,2.905
		c-0.187,0.356-0.371,0.712-0.572,1.057c-0.125,0.215-0.225,0.445-0.319,0.678c-0.024,0.063-0.048,0.126-0.077,0.182
		c-0.439,0.786-0.884,1.567-1.331,2.35c-1.036,1.818-2.109,3.699-3.081,5.618c-0.584,1.156-0.755,2.401-0.906,3.5l-0.056,0.407
		c-0.141,0.974-0.078,1.926-0.018,2.834c0.152,2.312,0.305,4.205,0.482,5.955c0.09,0.891,0.747,2.082,1.814,2.474
		c0.013,0.067,0.028,0.132,0.043,0.196c0.696,2.995,2.628,4.144,4.126,4.582c1.42,0.414,2.757,0.348,3.921-0.16
		c0.219,1.135,0.504,2.061,0.885,2.885c0.547,1.182,1.637,3.543,4.387,3.707c0.039,0.034,0.076,0.068,0.112,0.099l2.187,1.843
		c1.162,0.98,2.324,1.961,3.484,2.93c0.344,0.291,0.711,0.419,1.021,0.475c0.232,0.082,0.477,0.126,0.725,0.126
		c0.248-0.001,0.498-0.044,0.742-0.134c0.305-0.113,0.686-0.172,1.127-0.239c0.373-0.058,0.748-0.116,1.115-0.203
		c0.902-0.214,1.771-0.62,2.51-1.162l0.188-0.143l-0.289-0.346l0.299,0.338c0.012-0.008,0.021-0.015,0.031-0.022l0.004,0.006
		l0.055-0.052c0.627-0.487,1.143-1.021,1.533-1.448l5.777-5.46c0.25-0.143,0.508-0.274,0.775-0.41
		c0.059-0.03,0.129-0.065,0.207-0.109l0.246,0.07l0.834-0.993c1.604-1.913,2.012-4.151,2.371-6.126
		c0.049-0.274,0.1-0.545,0.15-0.812c0.598,0.645,1.252,1.301,1.998,1.895c0.918,0.73,2.16,0.543,2.52,0.47
		c0.971-0.201,1.441-0.743,1.67-1.168c0.941-1.771,1.83-3.589,2.691-5.347l0.592-1.211c0.041-0.081,0.078-0.17,0.115-0.264
		c2.395-1.321,2.887-3.863,3.193-5.439l0.104-0.523c0.645-3.052-0.201-6.222-2.27-8.73l4.959-9.114
		c0.406-0.744,0.666-0.861,0.662-0.861c0.266-0.063,1.145,0.453,1.615,0.719c0.221,0.123,0.439,0.246,0.662,0.363l0.117,0.062
		c0.561,0.299,1.33,0.707,2.238,0.78l0.211,0.018c1.021,0.087,2.428,0.211,3.533-0.635c0.516-0.393,1.051-0.657,2.396,0.132
		c2.301,1.349,4.619,1.051,6.482,0.814c1.074-0.138,2.086-0.267,2.947-0.084c0.957,0.213,1.652-0.298,1.986-0.541
		c0.102-0.074,0.232-0.17,0.41-0.282l1.33-3.793c0.143-1.447,0.277-3.009,0.402-4.689l0.045-0.379l-0.014-0.055
		c0.111-1.5,0.189-3.036,0.234-4.57c0.053-1.828-0.414-3.292-1.391-4.369C154.289,156.753,155.361,155.065,154.893,152.383z
		 M51.707,123.298c0.406-1.717,0.79-3.438,1.204-5.152c0.814-3.364,2.966-5.663,5.919-7.276c0.721-0.394,1.548-0.598,2.33-0.879
		c0.979-0.351,2.25-0.266,2.468-1.729c0.023-0.156,0.273-0.35,0.453-0.4c2.042-0.565,3.541-2.831,5.875-2.237
		c2.017,0.513,3.912,1.509,5.856,2.302c0.234,0.095,0.441,0.255,1.159,0.68c-0.144-0.897-0.042-1.627-0.331-1.847
		c-1.785-1.365-1.656-3.31-1.667-5.187c-0.002-0.33,0.561-0.829,0.958-0.959c0.73-0.24,1.559-0.455,2.297-0.345
		c3.416,0.509,6.986,0.458,9.983,2.628c0.455,0.329,1.183,0.584,1.698,0.474c1.695-0.361,2.518,0.478,3.137,1.86
		c0.998,2.229,1.955,4.486,3.109,6.633c0.926,1.724,2.121,3.304,3.197,4.948c-1.033-0.999-2.066-1.997-3.342-3.228
		c0.443,0.828,0.742,1.389,1.279,2.394c-1.227-0.409-2.211-0.534-2.949-1.027c-1.418-0.946-2.787-2.006-4.012-3.189
		c-3.131-3.017-6.512-5.655-10.52-7.452c4.008,3.046,8.414,5.635,11.377,9.867c-4.275-3.408-8.551-6.816-12.825-10.224
		c-0.138,0.071-0.275,0.143-0.412,0.214c0.129,0.467,0.144,1.018,0.412,1.381c0.491,0.664,1.258,1.14,1.673,1.836
		c0.385,0.645,0.826,1.638,0.582,2.181c-0.298,0.663-1.26,1.373-1.979,1.425c-1.261,0.09-2.552-0.349-3.837-0.487
		c-1.534-0.164-3.076-0.301-4.616-0.316c-0.329-0.003-0.663,0.529-0.994,0.837c0.001,0.001,0.003,0.001,0.004,0.002
		c0.001-0.001,0.005-0.003,0.005-0.004c0.03,0.017,0.061,0.034,0.091,0.05c3.381,0.378,6.173,1.933,8.541,4.329
		c0.067,0.068,0.11,0.183,0.119,0.28c0.008,0.092-0.045,0.189-0.041,0.176c-2.861-1.59-5.738-3.19-8.619-4.785
		c-0.043-0.005-0.084-0.015-0.128-0.019c0,0,0.007-0.006,0.013-0.011l-0.013,0.01c0.009-0.008,0.018-0.02,0.027-0.028
		c-0.788-0.467-1.478-0.234-1.753,0.543c-0.119,0.334,0.314,0.909,0.579,1.321c0.347,0.541,0.775,1.031,1.278,1.686
		c0.561,0.14,1.098-1.672,2.069-0.35c0.018-0.01,0.037-0.019,0.055-0.029l-0.005,0.006c0.001-0.001,0.003-0.003,0.005-0.005
		c0.001-0.001-0.041,0.044-0.041,0.044c0.25,0.015,0.5,0.03,0.75,0.045c0.07,0.126,0.139,0.251,0.208,0.377
		c-1.042,0.671-2.084,1.341-3.126,2.012c-0.039-0.067-0.077-0.133-0.116-0.199c0.761-0.746,1.521-1.491,2.282-2.237
		c-0.004-0.005-0.007-0.008-0.011-0.014c-1.721,0.954-3.481,1.778-5.854,1.483c0.6-0.225,0.955-0.358,1.311-0.492
		c-0.033-0.177-0.065-0.353-0.098-0.53c-1.905,0.272-3.829,0.462-5.7,0.884c-0.402,0.091-0.858,1.019-0.87,1.571
		c-0.042,1.874-0.913,3.182-2.453,4.074c-1.212,0.702-2.435,1.511-3.761,1.861c-1.664,0.44-2.258,1.566-2.719,2.962
		c-0.147,0.443-0.326,0.875-0.491,1.313C51.056,125.999,51.387,124.65,51.707,123.298z M83.758,111.165c0,0,0.012-0.013,0.024-0.026
		L83.758,111.165c-0.013-0.002-0.025-0.006-0.037-0.008l-4.144,1.962c-0.04-0.096-0.079-0.192-0.119-0.289
		c0.994-0.623,1.957-1.308,3-1.835c0.313-0.159,0.83,0.084,1.263,0.162l0.08-0.038l0.002-0.001l-0.01,0.009
		c-0.01,0.012-0.021,0.024-0.031,0.037c0.24-0.071,0.48-0.143,0.992-0.294c-0.507,1.519-1.646,1.929-2.844,2.465
		c0.668-0.784,1.26-1.478,1.852-2.171C83.761,111.164,83.759,111.164,83.758,111.165z M77.662,112.037
		c1.62-0.849,2.961-1.552,4.302-2.254C81.236,111.592,79.668,111.892,77.662,112.037z M68.689,118.81
		c-1.807-0.689-3.614-1.378-5.422-2.067C65.313,116.751,67.226,117.144,68.689,118.81z M56.022,123.279
		c2.589-1.356,4.463-3.282,5.061-6.273C62.015,119.539,59.611,122.465,56.022,123.279z M65.353,124.204
		c-3.123,2.382-9.255,4.657-11.633,4C57.602,126.869,61.485,125.534,65.353,124.204z M50.783,167.967
		c0.12-0.559-0.221-1.238-0.421-1.84c-0.448-1.35-0.954-2.681-1.411-4.027c-0.207-0.61-0.452-1.234-0.499-1.865
		c-0.056-0.742-0.06-1.547,0.174-2.237c0.377-1.112,0.967-2.152,1.437-3.157c-0.943-0.592-1.766-1.108-2.589-1.625
		c0.074-0.132,0.147-0.263,0.22-0.394c1.042,0.44,2.083,0.883,3.339,1.415c-0.574,1.19-1.15,2.323-1.668,3.48
		c-0.373,0.831-0.906,1.669,0.089,2.523c0.219,0.188,0.159,0.792,0.11,1.189c-0.226,1.854,0.436,3.342,1.721,4.64
		c0.329,0.332,0.77,0.942,0.663,1.255c-0.819,2.387-0.265,4.598,0.586,6.844C51.27,172.3,50.266,170.374,50.783,167.967z
		 M52.059,164.999c-1.758-1.142-2.414-2.682-1.891-4.757C50.84,161.933,51.444,163.451,52.059,164.999z M51.639,160.085
		c0.428,1.517,0.785,2.779,1.106,3.917C51.53,163.286,50.994,161.825,51.639,160.085z M125.557,165.53
		c1.316,0.487,2.404,0.889,3.498,1.293C127.449,167.366,126.41,167.028,125.557,165.53z M125.91,173.443
		c-2.006-0.776-3.617-4.535-3.467-7.626C123.563,168.277,124.713,170.813,125.91,173.443z M125.205,163.695
		c1.42,0.655,2.738,1.263,3.791,1.748C127.051,165.832,125.848,165.369,125.205,163.695z M126.475,167.421
		c1.037,0.279,2.072,0.56,3.109,0.839c-0.023,0.134-0.049,0.268-0.07,0.401c-1.07-0.18-2.141-0.36-3.209-0.541
		C126.361,167.888,126.418,167.654,126.475,167.421z M150.545,174.007c-2.916-0.622-5.938,1.197-8.838-0.502
		c-1.439-0.843-3-1.235-4.623,0.007c-0.537,0.411-1.572,0.275-2.365,0.211c-0.543-0.044-1.082-0.352-1.582-0.617
		c-1.941-1.027-3.887-2.615-5.633,0.593c0.771-3.075,1.959-3.57,4.352-2.165c0.178,0.104,0.354,0.216,0.531,0.324
		c3,1.867,3.148,1.857,5.607-0.401c1.5,0.515,3.006,1.066,4.537,1.541c0.631,0.195,1.408,0.479,1.961,0.28
		c1.785-0.644,3.441-0.425,5.141,0.234c0.393,0.151,0.908-0.02,1.822-0.064C150.881,173.809,150.686,174.037,150.545,174.007z
		 M151.545,155.998c-0.451,0.34-0.547,1.151-0.773,1.789c0,0.027,0.002,0.055,0.002,0.081c0,0-0.039,0.038-0.039,0.037
		c0,0.001,0.039-0.037,0.041-0.037c0.02,0.032,0.031,0.063,0.051,0.096c1.416,0.799,1.738,2.196,1.695,3.629
		c-0.094,3.25-0.334,6.495-0.777,9.797c-0.227-1.293-0.453-2.587-0.756-4.305c-1.016,2.277-2.01,4.044-3.76,4.835
		c0.732-1.459,1.539-3.063,2.344-4.669c-1.408,3.244-3.809,4.83-7.791,4.398c1.135-0.404,1.943-0.692,2.75-0.979
		c-0.014-0.147-0.029-0.296-0.043-0.443l-5.041,0.249c-0.012-0.128-0.023-0.255-0.035-0.382c0.844-0.184,1.688-0.367,2.855-0.622
		c-1.395-0.217-2.467-0.383-3.539-0.55c0.004-0.091,0.006-0.182,0.008-0.271c1.086-0.206,2.172-0.413,3.26-0.619
		c-0.014-0.124-0.025-0.249-0.039-0.373c-1.418-0.051-2.838-0.103-4.256-0.153c-0.002-0.127-0.002-0.255-0.002-0.383
		c1.006-0.18,2.014-0.36,3.021-0.54c0.002-0.173,0.006-0.346,0.008-0.519c-0.67-0.113-1.338-0.312-2.012-0.325
		c-2.385-0.051-3.416-0.693-4.244-2.908c-0.361-0.97-0.516-2.016-0.863-2.994c-0.291-0.822-0.723-1.595-1.094-2.39
		c-0.182,0.061-0.361,0.123-0.541,0.185c0.301,1.916,0.604,3.832,0.906,5.748l-0.324,0.069c-0.439-2.25-0.879-4.501-1.355-6.941
		c-1.289,2.319,0.125,6.214-4.111,6.73c0.699,0.209,1.398,0.418,2.018,0.603c-2.037,0.914-3.789-0.178-3.781-2.461
		c0-0.103-0.002-0.218-0.045-0.307c-1.785-3.745-0.822-7.678-0.809-11.548c0.004-1.1-0.1-2.199-0.154-3.298
		c-0.258,0.004-0.516,0.008-0.773,0.012c-0.143,3.174-0.402,6.348-0.393,9.521c0.008,3.21,0.283,6.42,0.424,9.269
		c-2.18-6.682-1.764-13.858-0.52-21.075c-0.209-0.044-0.42-0.087-0.631-0.13c-0.322,0.896-0.781,1.77-0.939,2.695
		c-0.391,2.307-0.57,4.649-0.98,6.952c-0.242,1.369-0.686,2.72-1.189,4.02c-0.189,0.486-0.805,0.807-1.227,1.202l-0.305-0.292
		c-0.127,0.971-0.254,1.941-0.377,2.914c-0.113,0.865-0.145,1.628,0.941,2.019c0.309,0.112,0.488,0.823,0.57,1.288
		c0.332,1.839,0.572,3.695,0.91,5.533c0.1,0.534,0.412,1.026,0.822,1.495c-0.824-3.218-1.84-6.393-1.156-9.768
		c0.357,1.969,0.709,3.922,1.064,5.875c0.092-0.014,0.186-0.026,0.277-0.041c0.027-1.634,0.053-3.268,0.078-4.901
		c0.844,3.996,1.045,8.165,4.076,11.505c-0.924-0.665-1.848-1.33-2.809-2.021c-1.793,0.847-2.006,0.809-2.768-1.286
		c-0.512-1.408-0.814-2.896-1.174-4.356c-0.277-1.12-0.217-2.278-1.23-3.222c-0.455-0.423-0.389-1.572-0.305-2.364
		c0.139-1.293,0.117-2.427-0.355-3.744c-0.557-1.554-0.449-3.384-0.441-5.093c0.014-2.287-0.473-4.348-2.143-5.986
		c-0.373-0.368-1.08-0.873-1.371-0.74c-0.461,0.211-0.824,0.867-0.996,1.409c-0.16,0.513-0.127,1.148,0.002,1.686
		c1.146,4.751,2.35,9.487,3.502,14.236c0.369,1.52,1.229,3.053-0.049,4.603c-0.176,0.212,0.006,0.817,0.16,1.183
		c0.604,1.437,1.336,2.822,1.879,4.279c0.385,1.036,0.545,2.154,0.799,3.238c0.035,0.147-0.021,0.356,0.063,0.445
		c2.027,2.146,1.887,5.421,4.145,7.541c2.211,2.076,3.342,4.983,2.715,7.959c-0.361,1.715-0.561,4-2.814,4.859
		c-0.227,0.086-0.283,0.594-0.434,0.898c-1.07,2.176-2.119,4.361-3.258,6.5c-0.104,0.194-0.938,0.264-1.178,0.071
		c-0.801-0.637-1.518-1.392-2.203-2.156c-0.641-0.715-1.203-1.499-1.779-2.225c-1.803,3.118-1.006,6.954-3.314,9.705
		c-0.018-0.005-0.033-0.01-0.051-0.016c-0.082,0.265-0.33,0.407-0.613,0.553c-0.369,0.188-0.727,0.372-1.07,0.576
		c-1.951,1.844-3.967,3.75-6,5.672c-0.434,0.476-0.885,0.933-1.402,1.326c-0.039,0.035-0.076,0.07-0.115,0.106
		c0.012-0.013,0.021-0.028,0.031-0.041c-0.006,0.004-0.012,0.009-0.018,0.014c-0.561,0.408-1.182,0.72-1.857,0.88
		c-0.828,0.194-1.674,0.216-2.479,0.515c-0.082,0.03-0.15-0.014-0.184-0.078c-0.143,0.002-0.258,0.01-0.32-0.042
		c-1.896-1.585-3.779-3.185-5.674-4.776c-0.258-0.218-0.563-0.588-0.822-0.568c-1.872,0.138-2.538-1.225-3.148-2.544
		c-0.408-0.884-0.646-1.869-0.811-2.834c-0.156-0.914-0.116-1.861-0.178-3.103c-0.49,0.397-0.832,0.584-1.055,0.866
		c-1.059,1.348-2.388,1.738-4.019,1.263c-1.582-0.461-2.388-1.604-2.738-3.113c-0.176-0.758-0.12-1.583-1.262-1.611
		c-0.198-0.005-0.522-0.509-0.552-0.806c-0.198-1.958-0.347-3.923-0.477-5.887c-0.053-0.805-0.112-1.628,0.002-2.419
		c0.16-1.114,0.273-2.31,0.768-3.287c1.358-2.683,2.907-5.269,4.374-7.896c0.147-0.266,0.229-0.569,0.381-0.831
		c0.711-1.225,1.26-2.597,2.188-3.629c3.391-3.777,5.957-7.914,5.907-13.163c-0.024-2.612,0.575-4.926,2.03-7.063
		c1.4-2.057,1.818-4.356,1.822-6.821c0.002-2.284,0.277-4.567,0.371-6.854c0.02-0.466-0.236-0.941-0.365-1.414
		c-0.482,0.138-1.133,0.125-1.416,0.441c-0.711,0.799-1.383,1.685-1.846,2.644c-1.703,3.536-2.146,7.355-2.427,11.22
		c-0.112,1.545-0.34,3.133-0.856,4.579c-0.33,0.929-1.287,1.633-1.955,2.442c-0.279,0.339-0.532,0.701-0.813,1.04
		c-0.698,0.844-1.431,1.663-2.101,2.529c-0.293,0.376-0.51,0.827-0.682,1.273c-0.537,1.397-0.861,2.91-1.596,4.189
		c-0.906,1.584-2.679,1.461-3.645-0.111c-0.322-0.522-0.518-1.132-0.718-1.72c-0.199-0.584-0.33-1.19-0.58-2.119
		c-0.736,0.865-1.296,1.516-1.848,2.172c-0.502,0.598-0.953,1.245-1.501,1.795c-1.611,1.615-2.218,1.539-3.27-0.327
		c-2.548,0.511-4.798,3.122-8.059,1.205c-1.565,0.776-3.397,1.985-5.718,1.354l3.749-1.092l-0.073-0.283
		c-0.534,0.067-1.067,0.136-2.048,0.261c2.38-1.347,4.369-2.474,6.358-3.601c0.062,0.052,0.125,0.103,0.188,0.154
		c-0.537,0.411-1.074,0.822-1.611,1.233c0.12,0.144,0.24,0.287,0.361,0.431c0.73-0.329,1.461-0.656,2.191-0.985
		c0.069,0.067,0.138,0.136,0.207,0.204c-0.663,0.628-1.327,1.255-2.271,2.149c2.952,0.388,4.944-1.354,7.301-2.123
		c0.237,0.6,0.45,1.142,0.868,2.201c1.985-2.134,3.75-4.03,5.515-5.927c-0.063-0.091-0.125-0.184-0.188-0.275
		c-0.372,0.321-0.767,0.618-1.111,0.966c-0.729,0.739-1.369,1.581-2.172,2.226c-0.374,0.3-1.04,0.236-1.574,0.339
		c-0.083-0.484-0.253-0.972-0.235-1.452c0.211-5.436,2.229-10.351,4.424-15.214c0.105-0.234,0.15-0.495,0.223-0.742
		c-0.319,0.318-0.638,0.638-1.159,1.16c-0.372-1.922,0.984-3.092,1.315-4.537c-1.24-0.114-0.551-0.879-0.385-1.334
		c0.785-2.146,3.432-5.091,5.499-6.347c-1.533,2.325-3.212,4.871-4.892,7.418c-0.054,0.064-0.108,0.128-0.161,0.191
		c0.054-0.063,0.107-0.127,0.162-0.19c1.564-1.613,3.128-3.227,4.864-5.018c-1.712,2.853-3.259,5.431-4.806,8.008
		c-0.038,0.056-0.075,0.111-0.113,0.168c0.038-0.056,0.075-0.111,0.112-0.167c0.968-1.202,1.936-2.403,2.904-3.605
		c0.055,0.04,0.111,0.08,0.166,0.12l-4.133,7.463c0.11,0.066,0.22,0.132,0.33,0.198c1.04-1.495,2.08-2.99,3.219-4.628
		c0.685,1.067,0.458,1.759-0.123,2.547c-1.026,1.39-1.934,2.867-2.892,4.308c0.116,0.078,0.231,0.155,0.346,0.233
		c0.822-1.156,1.644-2.312,2.466-3.466c0.168,0.103,0.336,0.205,0.504,0.308c-0.723,1.21-1.446,2.419-2.387,3.993
		c0.645-0.518,0.993-0.795,1.341-1.074c0.111,0.051,0.221,0.104,0.332,0.154c-0.308,0.786-0.616,1.571-0.924,2.357
		c0.149-0.045,0.299-0.09,0.448-0.135l0.864,4.737l0.452,0.177c0.413-0.581,0.875-1.134,1.233-1.747
		c2.43-4.152,3.187-8.791,3.643-13.458c0.449-4.602,2.05-8.524,5.479-11.716c3.559-3.312,5.621-7.408,6.197-12.284
		c0.145-1.235,0.854-2.404,1.324-3.659c-0.27,0.135-0.623,0.268-0.934,0.469c-9.201,5.948-16.954,13.42-23.427,22.248
		c-0.718,0.98-1.043,1.921-0.916,3.147c0.133,1.276-0.002,2.58-0.02,3.872c-0.127,0.012-0.255,0.024-0.382,0.036l-0.195-3.942
		c-0.215-0.006-0.43-0.013-0.645-0.019c-0.019,1.869-0.038,3.736-0.056,5.605c-0.098,0.003-0.195,0.006-0.293,0.01l-0.395-3.64
		c-0.174,0.005-0.348,0.011-0.522,0.017l0.178,3.624c-0.118,0.011-0.236,0.022-0.354,0.034l-0.278-2.126l-0.417-0.133l-5.606,9.563
		c6.73-15.255,16.321-28.214,30.509-37.459c-0.152-0.164-0.307-0.329-0.459-0.494c-2.873,2.18-5.94,4.15-8.568,6.594
		c-3.191,2.966-6.107,6.25-8.961,9.552c-1.744,2.02-3.573,3.646-6.351,3.776c-2.328,0.109-4.659,0.206-6.988,0.21
		c-0.635,0.001-1.269-0.357-2.099-0.61c0.341-0.702,0.614-1.265,0.885-1.823c-1.178,0.693-2.477,1.316-1.725,3.176
		c-3.158,1.69-7.085,2.219-8.876,5.925c0.256-1.897,1.378-3.365,2.932-4.092c3.14-1.467,5.462-3.866,7.925-6.14
		c1.151-1.062,2.481-1.843,3.373-3.294c0.636-1.032,2.103-1.632,3.298-2.227c1.669-0.829,3.471-1.392,5.136-2.229
		c0.986-0.494,1.866-1.242,2.684-1.996c0.223-0.206,0.191-0.93,0.003-1.259c-0.135-0.234-0.782-0.376-1.103-0.268
		c-1.126,0.376-2.223,0.847-3.305,1.342c-0.968,0.442-1.858,0.855-2.924,0.133c-0.333-0.226-0.977,0.043-1.473,0.011
		c-0.786-0.052-1.567-0.163-2.352-0.252c0,0.009-0.001,0.017-0.002,0.025c-0.005-0.009-0.01-0.019-0.015-0.027
		c-0.006-0.001-0.012-0.001-0.018-0.002c0.005,0,0.011-0.001,0.016-0.001c-0.206-0.377-0.412-0.755-0.628-1.151
		c-3.849,0.801-7.509,0.688-10.653-2.051c4.684,2.73,8.605-0.412,12.767-1.673c0.524-0.158,1.005-0.457,1.656-0.441
		c-0.781,0.52-1.562,1.038-2.567,1.705c0.514-0.025,0.77-0.038,1.386-0.068c-0.759,0.552-1.277,0.927-1.736,1.261
		c-0.071,0.84-0.138,1.63-0.206,2.418c1.775-0.039,3.302-0.347,4.61-1.898c1.799-2.135,3.934-3.996,5.998-5.896
		c0.776-0.715,1.753-1.212,2.874-1.965c-0.134,1.553-0.336,2.591-0.285,3.616c0.073,1.46,0.979,1.969,2.219,1.229
		c1.109-0.661,2.123-1.498,3.129-2.317c1.371-1.118,2.686-2.306,4.042-3.443c1.808-1.516,3.843-2.119,6.233-1.835
		c1.904,0.226,3.844,0.157,5.768,0.177c0.5,0.005,1.002-0.148,1.502-0.229c-3.744-0.535-7.42-0.805-11.09-1.145
		c-1.188-0.109-1.875,0.316-2.52,1.328c-1.567,2.459-3.719,4.369-6.258,5.86c2.168-2.264,4.334-4.528,6.801-7.104
		c-3.353-0.304-6.23,0.024-9.008,0.784c-2.799,0.766-5.54,1.784-8.239,2.861c-2.638,1.053-5.191,2.32-7.782,3.494
		c-0.076-0.173-0.153-0.347-0.229-0.521c4.404-1.967,8.748-4.088,13.231-5.855c3.952-1.558,8.174-2.059,12.423-1.922
		c4.368,0.141,8.729,0.435,13.097,0.634c0.365,0.017,0.74-0.175,1.111-0.27c1.086,0.113,2.195,0.937,3.248-0.071
		c0-0.01,0-0.021,0-0.031c-1.027,0.079-0.961-0.687-0.949-1.339c0.055-2.966,0.268-5.935,0.184-8.897
		c-0.16-5.767-0.555-11.528-0.709-17.295c-0.076-2.886,0.111-5.784,0.281-8.67c0.064-1.079-0.01-1.293-2.344-2.246
		c0.053,1.097,0.049,2.051,0.156,2.993c0.389,3.394,0.977,6.773,1.193,10.178c0.367,5.757,0.555,11.528,0.725,17.296
		c0.066,2.282-0.111,4.571-0.389,6.867c-0.121-2.479-0.381-4.961-0.342-7.438c0.139-9.046-0.742-17.983-2.49-26.853
		c-0.281-1.431-0.174-2.939-0.27-4.874c1.404,0.701,2.355,1.091,3.215,1.627c0.844,0.527,1.053,1.287,1.025,2.381
		c-0.09,3.526-0.244,7.098,0.203,10.579c0.814,6.338,0.771,12.67,0.65,19.021c-0.043,2.223-0.094,4.446-0.141,6.67
		c0.014-0.001,0.023,0.001,0.039,0l-0.002,0.002c0,0,0-0.001,0.002-0.001l-0.039,0.042c0.127-0.069,0.252-0.139,0.379-0.208
		c0,0,0,0,0-0.001h0.002c0.514-0.024,1.049,0.038,1.539-0.084c13.273-3.316,26.27-1.676,39.102,2.424
		c-3.072-0.583-6.145-1.166-9.217-1.749c-0.104,0.104-0.209,0.209-0.313,0.313c1.334,2.288,2.668,4.576,4.002,6.864
		c-1.918-1.559-3.469-3.423-4.066-5.836c-0.336-1.352-1.031-1.776-2.293-2.019c-7.111-1.371-14.207-0.777-21.305,0.03
		c-1.701,0.194-3.387,0.514-5.08,0.775c1.426,0.129,2.867,0.267,4.201-0.047c4.102-0.963,7.334,0.054,9.441,3.818
		c0.895,1.599,2.018,1.799,3.611,1.153c0.889-0.359,1.9-0.417,2.857-0.609c0.018,0.111,0.033,0.225,0.051,0.338
		c-1.008,0.436-2.014,0.872-3.02,1.309c1.389,0.279,2.949-1.117,3.891,1.054c-0.379,0.204-0.695,0.374-1.143,0.615
		c3.027,0.795,5.895,1.547,8.76,2.3c-0.031,0.155-0.063,0.312-0.094,0.468c-3.162-0.544-6.322-1.088-9.482-1.633
		c1.461,0.572,2.965,0.777,4.35,1.301c3.672,1.391,7.449,1.59,11.135,0.546c2.311-0.655,4.363-2.165,6.783-2.729
		c0.379-0.088,0.594-0.878,0.883-1.343c-0.107-0.098-0.219-0.196-0.328-0.293c0.338-0.239,0.686-0.466,1.014-0.717
		c2.848-2.17,2.881-3.887,0.117-6.115c-0.242-0.196-0.574-0.318-0.742-0.561c-0.258-0.373-0.408-0.82-0.648-1.332
		c-1.063-0.004-2.232-0.008-3.404-0.012l-0.043-0.269c1.123-0.271,2.246-0.541,3.369-0.812c-0.029-0.166-0.057-0.332-0.086-0.499
		c-2.02,0.238-4.041,0.475-6.063,0.712c-0.02-0.055-0.039-0.11-0.061-0.165c1.248-0.53,2.494-1.059,3.74-1.588
		c-0.041-0.148-0.082-0.296-0.123-0.444c-1.893,0.523-3.787,1.046-5.68,1.568c-0.029-0.088-0.059-0.176-0.086-0.264
		c1.172-0.573,2.342-1.146,3.514-1.718c-0.035-0.087-0.068-0.173-0.102-0.26c-1.582,0.406-3.164,0.812-4.746,1.218
		c0.57-0.614,1.309-0.954,1.939-1.436c0.563-0.43,1.004-1.017,1.498-1.535c-0.65-0.31-1.293-0.866-1.949-0.881
		c-1.857-0.043-3.723,0.136-5.684,0.233c0.01-1.5-0.996-1.569-1.998-1.195c-1.502,0.56-2.922,1.331-4.393,1.978
		c-1.865,0.819-2.158,0.641-2.453-1.319c-0.246,0.767-0.492,1.534-0.738,2.301c0.111,0.139,0.221,0.278,0.332,0.417
		c1.584-0.373,3.17-0.746,4.754-1.118c0.043,0.114,0.086,0.229,0.129,0.343c-1.682,0.705-3.363,1.409-5.043,2.114
		c0.023,0.095,0.047,0.19,0.07,0.285c1.861-0.482,3.725-0.964,5.703-1.476c-3.963,2.801-7.486,2.919-11.664,0.606
		c0.586,0.65,1.17,1.3,1.756,1.95c-0.061,0.076-0.119,0.152-0.178,0.229c-0.842-0.567-1.682-1.134-2.738-1.847
		c0.35,0.684,0.568,1.112,0.789,1.541c-0.066,0.052-0.131,0.104-0.197,0.156c-0.504-0.414-1.008-0.829-1.154-0.95
		c-3.551,0.98-6.828,1.885-10.365,2.862c0.174-1.221,0.289-2.03,0.359-2.533c-0.92,1.091-1.967,2.329-3.014,3.567
		c0.93-1.973,1.852-3.949,2.793-5.915c1.303-2.719,3.111-4.89,6.164-5.759c0.338-0.097,0.604-0.507,0.863-0.807
		c0.609-0.708,1.133-1.503,1.803-2.145c1.943-1.86,3.232-1.873,5.334-0.088c1.98-1.391,3.809-0.669,5.48,0.678
		c2.324,1.872,0.914,3.927-0.139,6.34c1.162-0.53,1.904-0.93,2.689-1.211c1.16-0.417,2.338-0.961,3.535-1.042
		c0.758-0.051,1.564,0.642,2.176,1.191c1.91,0.077,3.834,0.043,5.723,0.291c0.666,0.088,1.242,0.868,1.859,1.329
		c0.313,0.233,0.605,0.497,0.943,0.684c1.586,0.882,3.27,1.622,4.74,2.664c0.684,0.484,0.961,1.541,1.426,2.336
		c0.172,0.295,0.332,0.602,0.541,0.868c0.227,0.284,0.516,0.515,0.756,0.788c2.252,2.562,2.125,4.044-0.527,6.207
		c-0.238,0.193-0.65,0.4-0.658,0.616c-0.086,1.91-1.631,2.178-2.943,2.751c-1.066,0.467-2.061,1.124-3.152,1.506
		c-4.063,1.414-8.182,1.845-12.377,0.526c-1.285-0.403-2.592-0.821-3.918-0.989c-0.67-0.085-1.855,0.207-2.018,0.631
		c-0.268,0.7-0.156,1.826,0.271,2.442c0.555,0.797,1.574,1.268,2.502,1.958c-0.785-0.236-1.512-0.456-2.262-0.682
		c0.543,1.517,0.543,1.517,6.787,3.834c-1.551-0.141-2.711-0.246-3.873-0.352c-0.025,0.112-0.051,0.224-0.078,0.334
		c0.615,0.208,1.256,0.36,1.836,0.639c0.787,0.377,1.639,0.729,2.264,1.308c1.057,0.981,0.857,1.883-0.398,2.592
		c-0.541,0.306-1.086,0.604-1.621,0.92c-0.076,0.046-0.105,0.169-0.35,0.58c0.926,0.351,1.771,0.878,2.664,0.971
		c3.869,0.395,7.598,1.221,11.039,3.103c0.471,0.257,0.918,0.563,1.236,1.122c-0.414-0.138-0.828-0.277-1.174-0.392
		c-0.697,1.182-1.359,2.301-2.021,3.421c-0.107-0.059-0.215-0.116-0.324-0.174c0.453-1.184,0.906-2.366,1.434-3.742
		c-1.408-0.427-2.674-0.811-3.402-1.032c-0.955,1.204-1.654,2.142-2.418,3.024c-0.404,0.466-0.994,0.775-1.375,1.255
		c-0.949,1.19-0.594,2.205,0.867,2.639c2.838,0.84,5.514,2.001,7.816,3.916c-2.492-0.969-4.984-1.938-7.479-2.908
		c-0.064,0.137-0.127,0.272-0.191,0.407c1.021,0.467,2.002,1.091,3.072,1.37c3.391,0.885,5.961,3.095,8.691,5.08
		c2.365,1.718,2.287,4.134,2.098,6.619c0.211-0.617,0.42-1.234,0.648-1.902c0.236,0.186,0.402,0.314,0.576,0.451
		c1.092-2.383,1.064-4.672-0.254-6.899c-0.033-0.019-0.059-0.041-0.092-0.059c0.014-0.037,0.023-0.08,0.037-0.118
		c-0.008-0.76-0.25-1.659,0.084-2.216c2.014-3.371,1.467-8.197-1.58-10.741c-1.328-1.109-3.014-1.791-4.535-2.667
		c-1.748-1.471-3.494-2.941-5.24-4.411c0.186,0.727,0.553,1.276,1.039,1.685c1.176,0.988,2.408,1.911,3.617,2.861
		c-3.15-0.874-5.336-2.96-6.863-5.867c-0.174,0.153-0.344,0.306-0.516,0.458c1.166,1.63,2.332,3.259,3.613,5.048
		c-2.021-1.224-3.209-2.918-4.195-4.815c-0.299-0.573-0.779-1.051-1.176-1.573l1.475,4.175c-1.025-1.222-2.334-2.34-1.568-4.239
		c-0.262-0.307-0.521-0.611-0.906-1.061c1.547,0.552,2.967,0.896,4.225,1.553c1.063,0.556,2.109,1.333,2.854,2.261
		c1.246,1.55,2.568,2.731,4.602,3.18c2.629,0.578,4.666,2.193,5.648,4.697c0.766,1.953,1.184,4.066,1.547,6.145
		C153.139,153.655,152.871,154.997,151.545,155.998z M64.495,147.279l0.024-0.005c-0.005,0.001-0.01,0.003-0.015,0.004
		c0.005-0.001,0.011-0.002,0.009-0.001c-0.008,0.006-0.014,0.012-0.022,0.018c-0.118,0.465-0.141,0.985-0.379,1.377
		c-0.737,1.216-1.558,2.381-2.344,3.561c0.206-1.984,0.964-3.714,2.723-4.938c0.001-0.005,0.002-0.01,0.003-0.014
		c-3.523,0.896-7.047,1.794-10.243,2.607c3.746-2.31,8.093-3.798,12.876-3.776c0.049,0.181,0.098,0.363,0.147,0.544
		C66.347,146.864,65.42,147.072,64.495,147.279z M66.488,147.913c-0.703,0.822-1.406,1.646-2.108,2.469
		c-0.119-0.09-0.238-0.181-0.356-0.271c0.62-0.884,1.24-1.769,1.86-2.652C66.085,147.609,66.287,147.761,66.488,147.913z
		 M59.15,169.146c-0.145-0.19-0.29-0.381-0.435-0.572c1.603-1.137,3.207-2.272,4.81-3.409c0.106,0.138,0.213,0.276,0.319,0.415
		C62.279,166.768,60.715,167.957,59.15,169.146z M63.883,166.824c-1.916,2.203-3.981,4.202-6.742,5.233
		c-0.101-0.145-0.202-0.29-0.303-0.435C59.187,170.022,61.535,168.424,63.883,166.824z M54.418,158.886
		c2.169-1.9,4.55-3.35,7.414-3.74c0.077,0.17,0.153,0.339,0.23,0.509C59.515,156.731,56.966,157.809,54.418,158.886z M60.478,149.77
		c-0.454,1.174-0.907,2.347-1.457,3.768c0.134-2.661,0.555-4.842,3.601-5.586c-0.704,1.452-1.364,2.813-2.024,4.173
		c-0.056-0.007-0.113-0.014-0.17-0.02c0.122-0.719,0.245-1.438,0.367-2.155C60.688,149.89,60.583,149.829,60.478,149.77z
		 M67.238,165.946c2.593-5.467,3.708-11.333,4.651-17.245C72.462,155.021,70.457,160.647,67.238,165.946z M73.114,147.374
		c-0.045-1.715,1.678-3.775,4.414-5.446C75.96,143.862,74.616,145.521,73.114,147.374z M81.158,136.59
		c1.218,8.785,0.344,17.342-2.883,25.644C80.911,153.868,80.779,145.201,81.158,136.59z M86.19,137.397
		c-0.959,1.036-2.235,2.416-3.513,3.796C83.29,139.225,84.987,138.222,86.19,137.397z M82.8,139.215
		c0.26-1.828,1.784-2.431,2.728-3.565C84.617,136.838,83.709,138.027,82.8,139.215z M86.84,139.008
		c-1.16,1.463-2.32,2.926-3.48,4.39c-0.135-0.11-0.269-0.222-0.403-0.331C83.451,141.057,85.189,140.068,86.84,139.008z
		 M82.412,137.611c-0.181-1.503,1.449-3.007,4.176-3.955C85.106,135.06,83.808,136.289,82.412,137.611z M82.785,135.344
		c-0.178-0.17-0.354-0.341-0.532-0.511c0.921-0.906,1.843-1.812,2.765-2.717c0.028,0.029,0.057,0.059,0.086,0.089
		C84.33,133.251,83.559,134.298,82.785,135.344z M89.832,134.854c0.49-2.365,0.98-4.73,1.473-7.095
		C91.975,130.379,91.092,132.658,89.832,134.854z M69.185,124.593c1.643-1.604,3.287-3.21,4.93-4.814
		c0.143,0.147,0.285,0.297,0.427,0.444c-1.653,1.596-3.307,3.191-4.96,4.786C69.449,124.87,69.316,124.732,69.185,124.593z
		 M77.137,118.893c-0.271,1.914-0.521,3.684-0.778,5.504C75.316,122.461,75.56,120.283,77.137,118.893z M140.152,124.803
		c-0.047-0.146-0.092-0.291-0.137-0.438l5.508-1.694C143.855,123.743,142.24,125.064,140.152,124.803z M145.004,124.676
		c-1.314,0.573-2.627,1.147-3.941,1.721c-0.08-0.193-0.162-0.387-0.242-0.58c1.361-0.544,2.723-1.087,4.084-1.63
		C144.938,124.35,144.971,124.513,145.004,124.676z M138.982,123.508c-0.041-0.146-0.082-0.292-0.123-0.438
		c1.875-0.479,3.75-0.958,5.627-1.437C142.799,122.773,141.039,123.716,138.982,123.508z M138.225,122.014
		c-0.029-0.166-0.057-0.332-0.086-0.498c1.42-0.182,2.84-0.362,4.26-0.544C141.092,121.802,139.752,122.446,138.225,122.014z
		 M135.225,125.389c-0.004,0.161-0.006,0.323-0.006,0.485c-1.127-0.065-2.252-0.131-3.379-0.196l0.059-0.657
		C133.006,125.144,134.115,125.266,135.225,125.389z M124.871,119.899c0.055,0.162,0.111,0.325,0.168,0.487
		c-1.164,0.478-2.328,0.955-3.49,1.432c-0.094-0.265-0.188-0.53-0.281-0.796C122.469,120.648,123.67,120.273,124.871,119.899z
		 M121.207,120.404c-0.053-0.161-0.105-0.322-0.16-0.482c0.893-0.799,1.963-1.075,3.217-0.643L121.207,120.404z M124.363,117.497
		c0.125-0.094,0.25-0.187,0.377-0.28c1.141,1.546,2.283,3.095,3.424,4.642c-0.115,0.081-0.232,0.161-0.35,0.241
		C126.664,120.566,125.512,119.031,124.363,117.497z M139.941,147.479c0.256-0.52,0.475-1.057,0.816-1.822
		c0.424,1.629-0.262,2.852-1.678,3.446C139.373,148.557,139.674,148.026,139.941,147.479z M138.418,148.45
		c-0.168-0.085-0.334-0.171-0.5-0.256c0.357-0.951,0.719-1.902,1.078-2.853c0.209,0.089,0.42,0.178,0.631,0.266
		C139.223,146.556,138.82,147.502,138.418,148.45z"/>
	<path style="fill:#FFFFFF;" d="M73.503,129.112c1.216,1.562,1.201,2.81-0.325,4.027c-0.864,0.691-1.973,1.112-3.024,1.522
		c-1.577,0.616-3.2,1.116-4.803,1.665c0.072,0.163,0.143,0.327,0.214,0.49c1.898-0.678,3.838-1.258,5.677-2.067
		c1.165-0.512,2.319-1.222,3.228-2.101C75.724,131.438,75.174,129.733,73.503,129.112z"/>
	<path style="fill:#FFFFFF;" d="M116.488,101.663c-1.51,1.451-2.809,3.124-4.197,4.702c0.18,0.146,0.357,0.292,0.535,0.438
		c0.854-1.109,1.725-2.204,2.555-3.33c0.914-1.238,1.787-2.512,3.906-1.321C118.135,100.854,117.518,100.674,116.488,101.663z"/>
	<path style="fill:#FFFFFF;" d="M99.336,119.24c-1.783,1.196-3.564,2.393-5.348,3.589c0.08,0.116,0.16,0.232,0.24,0.348
		c1.795-1.178,3.59-2.354,5.385-3.532L99.336,119.24z"/>
	<path style="fill:#FFFFFF;" d="M91.453,104.626c-1.064-0.246-2.128-0.492-3.327-0.769C88.83,105.752,90.133,105.249,91.453,104.626
		z"/>
	<path style="fill:#FFFFFF;" d="M75.276,171.739l-0.295,0.49c0.659,0.506,1.297,1.371,1.982,1.409
		c0.59,0.033,1.232-0.877,1.851-1.368c-0.087-0.113-0.175-0.227-0.262-0.34C77.424,173.031,76.34,172.689,75.276,171.739z"/>
</g>
</svg>
