<?xml version="1.0" encoding="utf-8"?>
<!-- Generator: Adobe Illustrator 16.0.0, SVG Export Plug-In . SVG Version: 6.00 Build 0)  -->
<!DOCTYPE svg PUBLIC "-//W3C//DTD SVG 1.1//EN" "http://www.w3.org/Graphics/SVG/1.1/DTD/svg11.dtd" [
	<!ENTITY ns_flows "http://ns.adobe.com/Flows/1.0/">
	<!ENTITY ns_extend "http://ns.adobe.com/Extensibility/1.0/">
	<!ENTITY ns_ai "http://ns.adobe.com/AdobeIllustrator/10.0/">
	<!ENTITY ns_graphs "http://ns.adobe.com/Graphs/1.0/">
]>
<svg version="1.1" id="Layer_1" xmlns:x="&ns_extend;" xmlns:i="&ns_ai;" xmlns:graph="&ns_graphs;"
	 xmlns="http://www.w3.org/2000/svg" xmlns:xlink="http://www.w3.org/1999/xlink" xmlns:a="http://ns.adobe.com/AdobeSVGViewerExtensions/3.0/"
	 x="0px" y="0px" width="418px" height="484.065px" viewBox="0 0 418 484.065" style="enable-background:new 0 0 418 484.065;"
	 xml:space="preserve">
<polygon style="fill:#FFFFFF;" points="208.841,0 0.024,120.887 0.024,121.342 0,362.688 0,363.145 208.796,484.065 417.612,363.18 
	417.612,362.722 417.633,121.375 417.633,120.919 "/>
<path style="fill-rule:evenodd;clip-rule:evenodd;" d="M410.391,116.421c-0.874,0.138-1.794,0.438-2.773,0.938
	c-2.467,1.261-4.221,0.483-6.004-1.676c-3.528-4.271-6.063-4.681-10.15-1.214c-3.978,3.373-7.656,3.485-11.701,0.584
	c-3.696-2.651-7.225-2.789-10.99,0.092c-1.074,0.821-3.338,1.267-4.423,0.69c-4.673-2.482-9.013-1.754-13.325,0.593
	c-1.939,1.055-3.528,1.463-5.274-0.467c-0.824-0.91-2.331-1.795-3.467-1.723c-3.601,0.229-5.963-0.812-6.914-4.552
	c-0.18-0.705-2.073-1.693-2.164-1.597c-2.894,3.063-8.099,0.551-10.662,4.452c-0.375,0.571-1.954,0.981-2.565,0.667
	c-4.649-2.39-8.771-1.149-12.404,1.895c-2.188,1.832-3.624,2.315-5.797-0.035c-2.428-2.626-4.984-1.774-7.34,0.59
	c-3.732,3.746-5.362,3.629-9.344,0.313c-1.126-0.938-3.536-1.92-4.352-1.375c-3.83,2.559-7.227,1.648-10.725-0.366v0.029
	c-0.028-0.001-0.055,0.001-0.083,0c-4.538,4.127-9.131,8.194-13.583,12.412c-1.957,1.854-3.498,1.989-5.441-0.003
	c-2.072-2.125-4.4-4-6.676-6.038c2.949-1.511,5.1-0.946,7.617,0.966c3.18,2.415,5.904-0.391,8.268-2.21
	c3.007-2.316,5.568-5.281,9.815-5.127c0.018-0.016,0.034-0.031,0.052-0.047c0.011,0.006,0.021,0.012,0.031,0.018
	c0.121-9.31,0.326-18.619,0.272-27.927c-0.009-1.516-1.118-4.277-1.815-4.31c-2.455-0.11-5.141,0.311-7.365,1.339
	c-1.385,0.641-2.097,2.737-4.129,3.975v-5.208c0-14.491,0.002-28.982-0.006-43.474c-0.001-1.498-0.02-2.999-0.102-4.494
	c-0.141-2.551-1.451-4.025-4.074-4.076c-3.074-0.06-2.822,2.287-2.828,4.23c-0.047,15.657-0.039,31.314-0.047,46.971
	c-0.002,1.982,0,3.966-0.823,6.331c-0.812-1.073-1.452-2.362-2.475-3.167c-1.455-1.145-3.11-2.528-4.821-2.759
	c-4.514-0.609-5.223,0.182-5.25,4.759c-0.051,8.327-0.102,16.657,0.055,24.982c0.031,1.673,1.072,3.307,1.476,5
	c0.226,0.944,0.097,1.974,0.128,2.965c-0.867-0.173-2.133-0.04-2.536-0.567c-2.312-3.024-4.783-3.747-8.203-1.655
	c-0.646,0.395-2.584-0.602-3.463-1.44c-3.514-3.354-4.655-3.689-8.509-0.794c-2.164,1.626-3.688,1.437-5.715-0.14
	c-7.303-5.677-8.496-5.39-13.295,2.284c-0.52,0.832-1.671,1.494-2.658,1.762c-2.053,0.557-4.182,0.903-6.301,1.119
	c-1.033,0.105-2.506,0.11-3.108-0.501c-2.521-2.558-5.284-2.604-8.241-1.235c-2.871,1.328-4.816,0.729-6.846-1.834
	c-3.141-3.97-5.89-4.318-9.807-0.942c-4.173,3.596-7.954,3.4-12.131,0.412c-3.557-2.547-6.958-2.386-10.572,0.25
	c-1.184,0.863-3.599,1.192-4.867,0.573c-4.17-2.036-8.073-1.739-11.952,0.333c-2.29,1.224-4.149,1.203-6.453-0.242
	c-3.862-2.423-7.923-4.521-12.163-0.194c-0.595,0.606-2.785,0.124-3.961-0.434c-1.462-0.694-2.549-2.136-3.955-2.998
	c-2.945-1.805-5.884-1.63-7.998,1.219c-2.832,3.815-6.975,5.229-11.133,6.629c-0.869,0.293-2.395-0.019-3.041-0.646
	c-2.389-2.318-4.984-2.539-7.8-1.234c-2.995,1.388-5.112,0.974-7.278-1.845c-2.918-3.799-5.767-4.176-9.417-1.018
	c-4.284,3.705-8.17,3.677-12.551,0.528c-3.347-2.405-6.63-2.315-10.151,0.13c-1.336,0.927-3.916,1.358-5.287,0.692
	c-4.416-2.141-8.497-1.539-12.396,0.711c-1.304,0.751-2.421,1.011-3.445,0.857c-0.958,0.741-1.947,1.439-2.977,2.074v32.034
	c2.886,0.977,4.714,2.824,4.705,6.018c-0.01,3.174-1.744,5.083-4.705,5.982v112c5.27,2.16,7.953,5.389,7.621,9.753
	C7.26,291.769,4.75,294.995,0,296.257v49c7.987,0.046,15.976,0.178,23.963,0.125c93.722-0.622,187.443-1.322,281.166-1.887
	c37.623-0.227,75.247-0.167,112.871-0.238V121.153C415.385,119.709,412.894,118.057,410.391,116.421z M245.713,96.603
	c1.496,2.421,2.912,4.896,4.509,7.249c2.278,3.356,4.11,3.374,6.407,0.069c1.498-2.156,2.812-4.442,4.208-6.671
	c0.362,0.039,0.724,0.077,1.087,0.115c0,4.918,0.147,9.842-0.059,14.752c-0.115,2.736-5.737,7.848-8.126,7.827
	c-3.444-0.029-8.72-5.084-8.789-8.602C244.857,106.556,244.928,101.765,245.713,96.603z M55.613,178.507
	c4.873,0.012,8.39,3.585,8.389,8.524c0,4.9-3.587,8.524-8.426,8.514c-4.809-0.011-8.41-3.679-8.387-8.544
	C47.212,182.099,50.785,178.496,55.613,178.507z M18.049,160.417c3.254,0.066,5.662,2.472,5.646,5.637
	c-0.016,3.232-2.98,6.05-6.127,5.823c-3.062-0.221-5.434-2.917-5.336-6.062C12.334,162.567,14.724,160.35,18.049,160.417z
	 M27.219,289.149c-2.971-0.059-5.057-2.198-4.873-4.996c0.176-2.699,2.613-4.83,5.361-4.616c2.949,0.229,4.42,2.083,4.628,4.827
	C32.539,287.067,30.096,289.206,27.219,289.149z M24.412,222.023c-7.777-0.005-13.469-5.708-13.515-13.543
	c-0.046-7.935,6.074-14.103,13.802-13.909c7.585,0.19,13.317,6.222,13.263,13.954C37.906,216.348,32.205,222.028,24.412,222.023z
	 M50.586,273.024c-6.48,0.055-11.37-4.802-11.37-11.293c0-6.282,4.659-11.094,10.899-11.256c6.496-0.169,11.534,4.604,11.646,11.032
	C61.872,267.977,57.027,272.97,50.586,273.024z M63.462,322.64c-1.444-0.67-2.699-2.035-3.085-3.92
	c-0.533-2.608,1.953-4.538,4.736-4.246c2.774,0.29,4.129,2.02,4.002,4.666C68.936,322.905,65.924,323.783,63.462,322.64z
	 M168.988,177.516c4.859,0.209,8.176,3.893,8.005,8.892c-0.165,4.843-3.952,8.339-8.791,8.115c-4.835-0.225-8.188-3.949-8.009-8.896
	C160.369,180.797,164.154,177.307,168.988,177.516z M130.746,159.416c3.255-0.078,5.806,2.21,5.949,5.336
	c0.15,3.233-2.635,6.164-5.825,6.131c-3.056-0.032-5.587-2.623-5.632-5.766C125.189,161.826,127.442,159.494,130.746,159.416z
	 M105.328,157.868c0.237-3.248,2.959-5.597,6.405-5.527c3.644,0.074,6.216,2.816,5.978,6.371c-0.222,3.285-2.928,5.673-6.32,5.577
	C107.878,164.188,105.084,161.229,105.328,157.868z M79.116,150.763c0.274-2.755,1.978-4.087,4.6-4.101
	c2.568-0.014,4.791,2.456,4.014,4.996C86.058,157.122,78.479,157.164,79.116,150.763z M82.23,323.153
	c-2.813-0.065-4.276-1.692-4.163-4.482c0.112-2.788,1.735-4.271,4.509-4.185c2.803,0.086,4.14,1.752,4.238,4.526
	C86.543,321.77,84.976,323.217,82.23,323.153z M88.568,273.029c-7.363-0.085-13.365-6.169-13.25-13.43
	c0.117-7.305,6.193-13.169,13.586-13.11c7.537,0.06,13.03,5.752,12.975,13.442C101.822,267.556,96.17,273.118,88.568,273.029z
	 M116.967,293.346c-4.18,3.39-9.98,2.51-13.984-2.122l0.085,0.078c-3.16-5.104-2.313-10.469,2.136-13.52
	c4.074-2.795,10.52-1.751,13.444,2.177C121.791,284.181,121.058,290.027,116.967,293.346z M140.232,288.149
	c-2.973-0.052-5.062-2.181-4.888-4.981c0.169-2.702,2.596-4.838,5.348-4.632c2.95,0.221,4.427,2.069,4.642,4.813
	C145.547,286.051,143.107,288.2,140.232,288.149z M137.34,221.022c-7.769-0.033-13.428-5.766-13.441-13.615
	c-0.015-7.754,5.762-13.729,13.375-13.837c7.705-0.108,13.772,6.109,13.689,14.028C150.88,215.408,145.148,221.057,137.34,221.022z
	 M163.41,272.024c-6.472-0.03-11.266-4.943-11.191-11.469c0.07-6.26,4.807-11.001,11.072-11.084
	c6.484-0.085,11.443,4.762,11.472,11.212C174.792,267.138,169.869,272.056,163.41,272.024z M177.701,322.173
	c-2.688-0.037-4.314-1.445-4.449-4.229c-0.133-2.764,1.955-5.033,4.632-4.346C182.854,314.874,183.512,322.251,177.701,322.173z
	 M196.674,145.769c1.917,0.568,4.447,2.282,4.541,4.473c0.103,2.403-2.614,4.851-4.954,4.571c-2.579-0.311-4.166-1.77-4.167-4.561
	C192.094,147.561,194.288,145.062,196.674,145.769z M195.257,322.2c-2.882-0.258-4.333-1.796-4.187-4.586
	c0.146-2.793,1.794-4.247,4.563-4.123c2.791,0.125,4.232,1.777,4.125,4.549C199.648,320.893,197.863,322.084,195.257,322.2z
	 M201.936,272.028c-7.411,0.073-13.484-5.754-13.616-13.063c-0.13-7.256,5.868-13.373,13.218-13.479
	c7.568-0.109,13.271,5.481,13.341,13.079C214.947,266.267,209.48,271.953,201.936,272.028z M212.587,161.266
	c-2.022,0.754-4.122,0.118-4.352-3.485c-0.173-2.712,1.984-5.3,4.481-4.682C219.217,154.711,216.013,159.987,212.587,161.266z
	 M227.83,207.377c-1.654-0.257-3.826-2.125-4.336-3.726c-0.622-1.955,0.266-3.59,2.029-4.501
	C233.071,195.252,235.562,208.572,227.83,207.377z M299.491,164.766c2.972,0.018,5.603,2.699,5.661,5.771
	c0.062,3.292-2.163,5.588-5.508,5.686c-3.235,0.093-5.84-2.194-6.022-5.29C293.441,167.873,296.416,164.749,299.491,164.766z
	 M244.813,288.905c-3.103,0.041-6.188-2.859-6.323-5.941c-0.139-3.196,3.146-6.471,6.39-6.37c3.282,0.103,5.886,2.85,5.881,6.203
	C250.756,286.143,248.108,288.862,244.813,288.905z M246.453,196.824c-3.284-0.806-5.649-4.306-5.083-7.523
	c0.343-1.951,1.466-3.592,3.239-4.494C254.651,179.698,257.651,199.571,246.453,196.824z M266.694,290.064
	c-0.347,3.065-3.129,5.252-6.313,4.962c-3.175-0.289-5.356-2.896-5.119-6.115c0.228-3.1,2.969-5.521,6.023-5.323
	C264.555,283.802,267.063,286.805,266.694,290.064z M267.229,246.229c-5.58-0.018-9.961-4.341-9.871-9.741
	c0.084-5.014,4.543-9.52,9.618-9.718c5.31-0.208,9.818,4.223,9.882,9.71C276.925,242.195,272.922,246.248,267.229,246.229z
	 M280.238,170.017c-4.73,0.039-8.712-3.75-8.786-8.361c-0.075-4.678,3.765-8.503,8.573-8.541c4.902-0.04,8.633,3.536,8.688,8.329
	C288.769,166.141,284.976,169.978,280.238,170.017z M295.614,266.023c-5.403-0.194-9.646-4.846-9.313-10.207
	c0.314-5.04,4.957-9.341,9.959-9.226c5.324,0.123,9.616,4.711,9.472,10.124C305.585,262.205,301.216,266.226,295.614,266.023z
	 M400.656,176.508c4.872,0.035,8.365,3.62,8.345,8.566c-0.021,4.892-3.634,8.508-8.467,8.473c-4.808-0.034-8.386-3.717-8.346-8.589
	C392.229,180.06,395.822,176.474,400.656,176.508z M363.047,158.417c3.254,0.065,5.664,2.47,5.649,5.635
	c-0.016,3.234-2.979,6.052-6.127,5.825c-3.06-0.219-5.435-2.915-5.337-6.061C357.334,160.568,359.722,158.351,363.047,158.417z
	 M337.326,156.937c0.209-3.429,3.18-5.854,6.831-5.576c3.399,0.258,5.749,2.913,5.559,6.281c-0.197,3.484-3.142,5.933-6.749,5.613
	C339.667,162.962,337.132,160.123,337.326,156.937z M348.976,292.338c-4.18,3.398-9.985,2.521-13.993-2.114l0.085,0.078
	c-3.162-5.109-2.313-10.468,2.144-13.526c4.153-2.851,10.431-1.837,13.423,2.166C353.791,283.164,353.067,289.011,348.976,292.338z
	 M372.244,287.15c-2.975-0.047-5.067-2.17-4.899-4.972c0.162-2.705,2.581-4.844,5.337-4.644c2.951,0.215,4.431,2.06,4.652,4.804
	C377.553,285.039,375.118,287.195,372.244,287.15z M369.644,220.021c-8.032,0.091-13.815-5.721-13.744-13.809
	c0.068-7.71,6-13.676,13.568-13.646c7.542,0.029,13.462,6.052,13.493,13.728C382.993,214.173,377.403,219.935,369.644,220.021z
	 M395.291,271.022c-6.453-0.087-11.199-5.054-11.071-11.586c0.126-6.431,5.175-11.164,11.688-10.959
	c6.228,0.195,10.881,5.051,10.854,11.325C406.736,266.247,401.764,271.11,395.291,271.022z M409.89,321.167
	c-2.672,0.05-4.386-1.245-4.628-4.035c-0.242-2.788,1.726-5.121,4.438-4.539C414.687,313.662,415.722,321.059,409.89,321.167z"/>
<path style="fill-rule:evenodd;clip-rule:evenodd;" d="M130.988,351.099c8.333-0.005,16.666-0.03,25,0.003
	c6.164,0.025,6.208,0.064,6.219,6.069c0.024,14,0.006,27.999,0.012,41.999c0.002,7.527,0.007,7.527,7.303,7.624
	c0.834,0.011,1.666,0.046,2.5,0.037c1.971-0.02,3.168,0.758,3.166,2.906c-0.01,10.999,0.061,21.999-0.127,32.995
	c-0.016,0.938-1.685,2.592-2.652,2.643c-5.152,0.27-10.335,0.305-15.482-0.001c-1.068-0.063-2.732-1.809-2.903-2.96
	c-0.435-2.938-0.375-5.993-0.155-8.975c0.262-3.567-1.285-4.629-4.657-4.588c-10.498,0.129-21.001-0.075-31.498,0.09
	c-4.666,0.074-8.767-1.008-12.734-3.497c-5.641-3.539-11.524-6.688-17.28-10.043c-1.288-0.75-2.841-1.419-3.617-2.567
	c-0.742-1.098-1.069-2.886-0.739-4.151c0.215-0.823,2.036-1.903,2.96-1.757c6.641,1.055,9.163-3.189,10.303-8.332
	c1.396-6.296,2.471-12.734,2.869-19.161c0.484-7.804,0.275-15.664,0.055-23.491c-0.105-3.776,1.355-4.955,4.962-4.89
	C113.32,351.212,122.154,351.104,130.988,351.099z M137.65,390.259c0-2.321,0.029-4.644-0.006-6.965
	c-0.164-10.681,1.879-9.751-10.344-9.826c-2.953-0.019-4.215,1.083-4.162,4.081c0.158,8.837-0.814,17.533-3.724,25.937
	c-0.875,2.526,0.271,3.319,2.604,3.301c3.979-0.033,7.959-0.012,11.938-0.027c2.699-0.01,3.804-1.347,3.718-4.064
	C137.543,398.553,137.641,394.404,137.65,390.259z"/>
<path style="fill-rule:evenodd;clip-rule:evenodd;" d="M253.271,390.138c0,11.156,0.022,22.313-0.01,33.469
	c-0.015,5.044-0.063,5.129-4.881,5.229c-4.993,0.104-9.996-0.143-14.982,0.067c-3.803,0.161-4.855-1.458-4.725-5.046
	c0.232-6.319-0.067-12.656,0.105-18.979c0.094-3.394-1.146-4.939-4.586-4.854c-3.994,0.099-7.995,0.114-11.987-0.014
	c-3.412-0.108-4.809,1.394-4.759,4.765c0.096,6.493-0.141,12.993,0.076,19.479c0.118,3.513-1.23,4.734-4.609,4.636
	c-5.323-0.154-10.656-0.125-15.982-0.036c-3.006,0.051-4.08-1.261-4.072-4.216c0.064-22.979,0.077-45.957-0.013-68.936
	c-0.015-3.509,1.429-4.726,4.776-4.633c4.992,0.139,9.998,0.203,14.982-0.029c3.621-0.168,5.122,0.962,4.928,4.794
	c-0.276,5.481-0.104,10.986-0.056,16.481c0.046,5.128,0.378,5.461,5.325,5.52c3.829,0.046,7.661-0.068,11.488,0.027
	c3.132,0.078,4.555-1.167,4.478-4.43c-0.137-5.825,0.147-11.662-0.091-17.48c-0.154-3.769,1.348-5.032,4.953-4.895
	c4.822,0.184,9.656-0.011,14.484,0.058c4.971,0.071,5.121,0.204,5.141,5.054C253.3,367.491,253.27,378.814,253.271,390.138z"/>
<path style="fill-rule:evenodd;clip-rule:evenodd;" d="M334.533,413.968c-0.559,0.674-1.153,1.891-2.128,2.482
	c-4.98,3.026-10.076,5.864-15.097,8.826c-2.086,1.23-3.523,0.856-4.016-1.554c-0.764-3.733-3.173-4.529-6.597-4.399
	c-5.159,0.196-10.333,0.158-15.495,0.019c-2.926-0.079-4.492,0.943-5.434,3.857c-1.832,5.671-2.013,5.641-8,5.683
	c-4.666,0.031-9.336,0.081-13.998-0.061c-4.227-0.128-4.337-0.28-2.954-4.392c5.729-17.033,11.53-34.042,17.304-51.06
	c2.032-5.987,4.193-11.935,6.045-17.977c0.994-3.249,2.791-4.474,6.179-4.355c6.159,0.216,12.333,0.168,18.495,0.019
	c3.105-0.074,4.813,0.974,5.842,4.068c6.246,18.787,12.672,37.516,19.035,56.264C333.928,412.017,334.116,412.653,334.533,413.968z
	 M299.848,383.013c-0.303,0.017-0.606,0.033-0.909,0.05c-1.533,4.648-3.104,9.284-4.579,13.95c-0.518,1.639-0.299,2.984,1.948,2.937
	c2.146-0.045,4.329,0.211,6.418-0.139c0.747-0.125,1.961-1.83,1.776-2.474C303.117,392.514,301.436,387.776,299.848,383.013z"/>
<path style="fill-rule:evenodd;clip-rule:evenodd;" d="M152.717,65.879c2.83,0.004,5.666,0.12,8.489-0.027
	c3.087-0.161,4.097,1.268,4.035,4.184c-0.113,5.325-0.019,10.654-0.013,15.982c0.004,2.346-0.311,4.845,3.148,5.135
	c0.542,0.046,1.469,0.688,1.48,1.075c0.123,4.138,0.288,8.296-0.082,12.402c-0.059,0.65-2.742,1.523-4.164,1.441
	c-1.089-0.063-3.012-1.482-2.997-2.271c0.078-4.378-2.472-4.791-5.851-4.637c-3.157,0.144-6.326,0.057-9.488,0.025
	c-3.279-0.033-6.395-0.224-6.506,4.593c-0.065,2.799-2.676,2.41-4.643,2.411c-2.26,0.002-3.307-1.174-3.271-3.437
	c0.044-2.829-0.107-5.667,0.068-8.485c0.063-1.025,0.639-2.727,1.295-2.895c5.25-1.341,4.848-5.889,5.4-9.601
	c0.534-3.592,0.389-7.314,0.248-10.969c-0.137-3.555,1.045-5.307,4.861-4.977C147.373,66.059,150.053,65.874,152.717,65.879z
	 M156.038,82.549c-0.023,0-0.046,0-0.069,0c0-1.821,0.066-3.645-0.018-5.462c-0.108-2.343-1.686-2.965-3.735-3.047
	c-2.276-0.091-3.284,0.931-3.425,3.207c-0.174,2.805-0.416,5.627-0.937,8.384c-1.019,5.386-0.536,5.891,4.938,5.366
	c2.342-0.225,3.216-1.35,3.241-3.479C156.054,85.861,156.038,84.205,156.038,82.549z"/>
<path style="fill-rule:evenodd;clip-rule:evenodd;" d="M320.289,81.434c1.587-2.509,3.275-4.96,4.73-7.542
	c1.379-2.445,2.808-2.348,5.263-1.272c6.477,2.837,10.263,6.892,8.801,14.504c-0.432,2.246-0.026,4.645-0.095,6.97
	c-0.13,4.417-0.812,4.953-4.796,5.079c-3.611,0.113-4.578-1.656-4.431-4.903c0.166-3.629,0.038-7.271-0.881-11.299
	c-2.696,4.252-5.25,8.605-8.165,12.702c-1.038,1.458-2.818,2.945-4.492,3.289c-4.925,1.01-6.239-0.254-6.275-5.345
	c-0.054-7.647,0.058-15.296-0.034-22.943c-0.038-3.171,0.74-4.882,4.457-4.896c3.841-0.014,4.974,1.585,4.807,5.092
	c-0.164,3.449-0.036,6.912-0.036,10.369C319.524,81.304,319.907,81.369,320.289,81.434z"/>
<path style="fill-rule:evenodd;clip-rule:evenodd;" d="M287.268,79.239c2.423-3.562,4.807-7.15,7.283-10.674
	c1.623-2.313,7.671-3.877,9.799-2.402c0.455,0.315,0.44,2.088,0,2.781c-2.229,3.509-4.584,6.946-7.068,10.279
	c-1.523,2.043-1.602,3.645,0.094,5.707c2.848,3.468,5.342,7.223,8.076,10.787c1.644,2.143,1.33,3.191-1.453,3.42
	c-4.169,0.341-7.807,0.018-10.138-4.361c-1.843-3.462-4.392-6.549-7.627-9.606c0,3.398-0.118,6.802,0.033,10.192
	c0.149,3.361-1.878,3.741-4.471,3.793c-2.694,0.054-4.524-0.585-4.497-3.807c0.072-8.654,0.086-17.311,0.018-25.966
	c-0.026-3.43,2.113-3.484,4.641-3.542c2.791-0.063,4.469,0.645,4.309,3.867c-0.154,3.121-0.033,6.257-0.033,9.386
	C286.577,79.143,286.922,79.19,287.268,79.239z"/>
<path style="fill-rule:evenodd;clip-rule:evenodd;" d="M116.148,82.408c0,4.324-0.084,8.651,0.025,12.974
	c0.085,3.324-1.942,3.768-4.535,3.763c-2.555-0.006-4.678-0.363-4.655-3.685c0.038-5.489,0.034-10.979-0.075-16.468
	c-0.087-4.381-0.889-5.046-5.42-5.033c-4.457,0.014-5.149,0.65-5.201,5.171c-0.061,5.323-0.176,10.652,0.021,15.968
	c0.133,3.609-1.883,4.023-4.702,4.081c-2.901,0.06-4.24-0.93-4.139-4.047c0.179-5.484,0.134-10.979,0.021-16.467
	c-0.051-2.46,0.869-4.045,3.016-5.211c3.65-1.982,6.996-4.806,10.865-6.025c3.969-1.252,8.406-1.164,12.646-1.251
	c0.683-0.015,1.952,2.085,2.02,3.261c0.244,4.312,0.097,8.645,0.097,12.97C116.137,82.408,116.143,82.408,116.148,82.408z"/>
<path style="fill-rule:evenodd;clip-rule:evenodd;" d="M190.189,99.986c-11.256-0.387-18.256-8.025-17.503-19.39
	c0.663-10.015,9.487-16.866,19.981-15.398c1.955,0.274,3.908,0.862,5.749,1.592c4.114,1.633,4.276,2.447,2.229,6.233
	c-1.031,1.909-2.074,2.756-4.326,1.795c-1.648-0.703-3.509-1.124-5.301-1.236c-5.42-0.342-9.436,3.341-9.59,8.567
	c-0.156,5.27,3.637,9.068,9.127,8.962c1.635-0.032,3.441-0.144,4.855-0.848c3.891-1.94,4.905,0.672,6.109,3.369
	c1.48,3.318-1.415,3.729-3.166,4.378C195.748,98.977,192.922,99.356,190.189,99.986z"/>
<path style="fill-rule:evenodd;clip-rule:evenodd;" d="M202.676,66.627c8.736-1.744,9.16-1.54,12.676,5.459
	c1.111,2.21,2.26,4.401,3.891,7.569c1.725-3.34,3.139-5.994,4.477-8.686c2.583-5.192,3.744-5.778,9.244-5.11
	c2.075,0.252,2.65,0.976,1.729,2.876c-4.559,9.404-9.039,18.847-13.688,28.206c-1.063,2.141-6.991,3.212-8.98,1.735
	c-0.484-0.359-0.737-1.933-0.382-2.382c4.055-5.123,1.356-9.55-1.12-14.15C207.805,77.094,205.333,71.91,202.676,66.627z"/>
<path style="fill-rule:evenodd;clip-rule:evenodd;" d="M130.18,82.668c-0.004,4.315-0.072,8.633,0.02,12.946
	c0.064,3.064-1.836,3.508-4.221,3.516c-2.443,0.008-4.824-0.039-4.823-3.445c0.003-8.796,0.019-17.593-0.007-26.39
	c-0.011-3.421,2.267-3.384,4.749-3.451c2.802-0.076,4.416,0.702,4.319,3.877C130.084,74.033,130.184,78.352,130.18,82.668z"/>
<path style="fill-rule:evenodd;clip-rule:evenodd;" d="M65.328,184.198c-2.14,1.443-3.355,2.874-4.596,2.896
	c-0.926,0.018-2.613-1.777-2.625-2.78c-0.012-1.018,1.607-2.871,2.53-2.882C61.881,181.417,63.141,182.815,65.328,184.198z"/>
<circle style="fill-rule:evenodd;clip-rule:evenodd;" cx="374.5" cy="200.507" r="3.25"/>
<circle style="fill-rule:evenodd;clip-rule:evenodd;" cx="405.16" cy="180.433" r="3.25"/>
<circle style="fill-rule:evenodd;clip-rule:evenodd;" cx="398.66" cy="260.756" r="3.25"/>
<circle style="fill-rule:evenodd;clip-rule:evenodd;" cx="340.25" cy="286.507" r="3.25"/>
<circle style="fill-rule:evenodd;clip-rule:evenodd;" cx="296.086" cy="260.756" r="3.25"/>
<circle style="fill-rule:evenodd;clip-rule:evenodd;" cx="269.5" cy="241.007" r="3.25"/>
<circle style="fill-rule:evenodd;clip-rule:evenodd;" cx="284.25" cy="161.007" r="3.25"/>
<circle style="fill-rule:evenodd;clip-rule:evenodd;" cx="139.5" cy="206.269" r="3.25"/>
<circle style="fill-rule:evenodd;clip-rule:evenodd;" cx="171.942" cy="183.683" r="3.25"/>
<circle style="fill-rule:evenodd;clip-rule:evenodd;" cx="202.75" cy="260.756" r="3.25"/>
<circle style="fill-rule:evenodd;clip-rule:evenodd;" cx="165.442" cy="260.756" r="3.25"/>
<circle style="fill-rule:evenodd;clip-rule:evenodd;" cx="90.75" cy="258.81" r="3.25"/>
<circle style="fill-rule:evenodd;clip-rule:evenodd;" cx="110" cy="288.257" r="3.25"/>
<circle style="fill-rule:evenodd;clip-rule:evenodd;" cx="50" cy="264.006" r="3.25"/>
<circle style="fill-rule:evenodd;clip-rule:evenodd;" cx="30.5" cy="206.269" r="3.25"/>
</svg>
