<?xml version="1.0" encoding="utf-8"?>
<!-- Generator: Adobe Illustrator 16.0.0, SVG Export Plug-In . SVG Version: 6.00 Build 0)  -->
<!DOCTYPE svg PUBLIC "-//W3C//DTD SVG 1.1//EN" "http://www.w3.org/Graphics/SVG/1.1/DTD/svg11.dtd" [
	<!ENTITY ns_flows "http://ns.adobe.com/Flows/1.0/">
	<!ENTITY ns_extend "http://ns.adobe.com/Extensibility/1.0/">
	<!ENTITY ns_ai "http://ns.adobe.com/AdobeIllustrator/10.0/">
	<!ENTITY ns_graphs "http://ns.adobe.com/Graphs/1.0/">
]>
<svg version="1.1" id="Layer_1" xmlns:x="&ns_extend;" xmlns:i="&ns_ai;" xmlns:graph="&ns_graphs;"
	 xmlns="http://www.w3.org/2000/svg" xmlns:xlink="http://www.w3.org/1999/xlink" xmlns:a="http://ns.adobe.com/AdobeSVGViewerExtensions/3.0/"
	 x="0px" y="0px" width="202.872px" height="234.468px" viewBox="0 0 202.872 234.468"
	 style="enable-background:new 0 0 202.872 234.468;" xml:space="preserve">
<polygon style="fill:#FFFFFF;" points="97.371,27.638 23.038,56.638 8.704,174.972 101.436,227.638 195.372,171.972 192.704,61.971 
	"/>
<path style="fill:#D41E36;" d="M127.114,117.11c-0.301-0.612-1.174-0.612-1.475,0l-5.018,10.207
	c-0.268,0.546,0.129,1.184,0.736,1.184h10.037c0.607,0,1.004-0.638,0.736-1.184L127.114,117.11z"/>
<path style="fill:#D41E36;" d="M77.146,117.572c-0.301-0.612-1.174-0.612-1.475,0l-5.018,10.207
	c-0.269,0.546,0.129,1.184,0.736,1.184h10.036c0.608,0,1.005-0.638,0.737-1.184L77.146,117.572z"/>
<path style="fill:#D41E36;" d="M101.446,0L0.009,58.554v0.221L0,175.677v0.221l101.424,58.57l101.438-58.554v-0.222l0.01-116.901
	V58.57L101.446,0z M164.061,118.877c0,5.102-4.137,9.238-9.238,9.238s-9.238-4.137-9.238-9.238c0-5.101,4.137-9.237,9.238-9.237
	S164.061,113.776,164.061,118.877 M160.391,100.455c0,4.089-3.314,7.404-7.404,7.404c-4.088,0-7.402-3.315-7.402-7.404
	c0-4.089,3.314-7.403,7.402-7.403C157.077,93.052,160.391,96.366,160.391,100.455 M49.882,92.975c4.089,0,7.403,3.315,7.403,7.404
	s-3.314,7.404-7.403,7.404s-7.403-3.315-7.403-7.404S45.793,92.975,49.882,92.975 M48.048,109.563c5.103,0,9.237,4.136,9.237,9.238
	c0,5.103-4.135,9.238-9.237,9.238s-9.238-4.136-9.238-9.238C38.81,113.699,42.945,109.563,48.048,109.563 M43.76,184.495
	c-8.113,0-14.689-6.577-14.689-14.689c0-8.113,6.576-14.688,14.689-14.688c8.111,0,14.689,6.575,14.689,14.688
	C58.449,177.918,51.871,184.495,43.76,184.495 M48.048,153.797c-6.738,0-12.2-5.462-12.2-12.2s5.462-12.2,12.2-12.2
	c6.737,0,12.2,5.462,12.2,12.2S54.785,153.797,48.048,153.797 M76.449,137.486c-9.912,0-10.049-5.445-10.049-8.524h0.621
	l7.777-15.817v-2.379c0-0.69,0.564-1.255,1.254-1.255h0.712c0.69,0,1.255,0.565,1.255,1.255v2.378l7.776,15.818h0.706
	C86.502,131.548,86.363,137.486,76.449,137.486 M111.747,168.97H90.438c-0.907,0-1.612-1.019-1.377-2.064
	c0.884-3.918,4.226-6.854,8.183-6.854h7.696c3.957,0,7.299,2.937,8.184,6.854C113.36,167.951,112.655,168.97,111.747,168.97
	 M98.884,149.423h3.982c1.354,0,2.459,1.107,2.459,2.459v3.983c0,1.352-1.105,2.458-2.459,2.458h-3.982
	c-1.353,0-2.459-1.106-2.459-2.458v-3.983C96.425,150.53,97.531,149.423,98.884,149.423 M98.869,146.507v-34.684
	c0-0.676,0.553-1.228,1.229-1.228h1.991c0.676,0,1.229,0.552,1.229,1.228v34.684c0,0.676-0.553,1.229-1.229,1.229h-1.991
	C99.422,147.736,98.869,147.183,98.869,146.507 M111.473,112.57c-1.305,0.275-2.715,0.158-3.953-0.195
	c-1.248-0.374-2.342-0.96-3.176-1.665c-0.865-0.673-1.447-1.47-1.922-2.162c-0.426-0.73-0.719-1.406-0.904-1.972
	c-0.172-0.582-0.266-1.051-0.316-1.376c-0.053-0.323-0.063-0.503-0.063-0.503l-0.047-0.044l-0.045,0.044c0,0-0.012,0.18-0.064,0.503
	c-0.049,0.325-0.145,0.794-0.315,1.376c-0.188,0.566-0.479,1.242-0.905,1.972c-0.476,0.692-1.056,1.489-1.922,2.162
	c-0.834,0.705-1.927,1.291-3.175,1.665c-1.239,0.353-2.649,0.47-3.955,0.195c-1.334-0.234-2.525-0.85-3.596-1.534
	c-1.076-0.697-2.018-1.451-2.955-2.154c-0.914-0.71-1.781-1.431-2.588-2.128c-0.814-0.679-1.564-1.397-2.279-2.006
	c-1.437-1.242-2.729-2.156-3.705-2.315c-0.479-0.074-0.954,0.047-1.412,0.277c-0.215,0.143-0.417,0.305-0.617,0.446
	c-0.178,0.173-0.342,0.333-0.488,0.477c-0.313,0.287-0.89,1.145-1.267,0.984c-0.377-0.162-0.134-1.196,0.077-1.705
	c0.102-0.253,0.212-0.544,0.354-0.856c0.176-0.285,0.361-0.606,0.596-0.938c0.519-0.622,1.3-1.339,2.396-1.632
	c1.072-0.278,2.213-0.191,3.273,0.037c1.08,0.223,2.058,0.633,3.05,1.036c1.978,0.811,3.827,1.841,5.636,2.592
	c6.313,2.083,10.504-0.331,12.439-5.121c0.164-0.033,1.127-0.192,1.467-0.204c0.313,0.009,1.305,0.171,1.469,0.204
	c1.936,4.79,6.127,7.204,12.439,5.121c1.809-0.751,3.658-1.781,5.635-2.592c0.992-0.403,1.969-0.813,3.049-1.036
	c1.063-0.228,2.201-0.315,3.275-0.037c1.096,0.293,1.877,1.01,2.395,1.632c0.234,0.332,0.42,0.653,0.596,0.938
	c0.143,0.312,0.254,0.603,0.355,0.856c0.209,0.509,0.453,1.543,0.076,1.705c-0.377,0.161-0.953-0.697-1.266-0.984
	c-0.148-0.144-0.311-0.304-0.488-0.477c-0.201-0.141-0.402-0.303-0.617-0.446c-0.459-0.23-0.934-0.351-1.412-0.277
	c-0.977,0.159-2.27,1.073-3.707,2.315c-0.713,0.609-1.463,1.327-2.277,2.006c-0.809,0.697-1.676,1.418-2.59,2.128
	c-0.936,0.703-1.879,1.457-2.955,2.154C114,111.72,112.809,112.336,111.473,112.57 M97.285,93.122c0-2.102,1.705-3.806,3.807-3.806
	c2.102,0,3.807,1.704,3.807,3.806c0,2.103-1.705,3.807-3.807,3.807C98.99,96.929,97.285,95.225,97.285,93.122 M126.417,137.024
	c-9.912,0-10.049-5.445-10.049-8.523h0.621l7.777-15.817v-2.379c0-0.69,0.564-1.255,1.254-1.255h0.711
	c0.691,0,1.256,0.565,1.256,1.255v2.378l7.775,15.818h0.707C136.469,131.087,136.331,137.024,126.417,137.024 M140.381,85.366
	c0-0.446,0.047-0.882,0.129-1.305c-1.543,0.779-3.277,1.229-5.115,1.229H67.476c-1.833,0-3.563-0.447-5.103-1.223
	c0.072,0.397,0.115,0.805,0.115,1.223c0,3.741-3.033,6.773-6.772,6.773c-3.741,0-6.772-3.032-6.772-6.773
	c0-3.74,3.031-6.773,6.772-6.773c0.483,0,0.954,0.053,1.409,0.149c-0.687-1.465-1.082-3.09-1.082-4.808V55.341
	c0-6.287,5.145-11.431,11.433-11.431h67.919c6.287,0,11.432,5.144,11.432,11.431v18.517c0,1.752-0.41,3.408-1.123,4.895
	c0.469-0.102,0.951-0.159,1.451-0.159c3.74,0,6.773,3.032,6.773,6.772c0,3.741-3.033,6.773-6.773,6.773
	S140.381,89.107,140.381,85.366 M154.823,129.473c6.738,0,12.199,5.462,12.199,12.2s-5.461,12.2-12.199,12.2
	s-12.201-5.462-12.201-12.2S148.084,129.473,154.823,129.473 M159.11,184.571c-8.111,0-14.688-6.577-14.688-14.689
	c0-8.113,6.576-14.689,14.688-14.689c8.113,0,14.689,6.576,14.689,14.689C173.799,177.994,167.223,184.571,159.11,184.571"/>
<path style="fill:#D41E36;" d="M57.125,78.666c1.092,2.335,2.948,4.243,5.247,5.401C61.879,81.37,59.795,79.231,57.125,78.666"/>
<path style="fill:#D41E36;" d="M145.704,78.753c-2.623,0.573-4.678,2.664-5.193,5.308C142.774,82.917,144.606,81.044,145.704,78.753
	"/>
</svg>
