<?xml version="1.0" encoding="utf-8"?>
<!-- Generator: Adobe Illustrator 16.0.0, SVG Export Plug-In . SVG Version: 6.00 Build 0)  -->
<!DOCTYPE svg PUBLIC "-//W3C//DTD SVG 1.1//EN" "http://www.w3.org/Graphics/SVG/1.1/DTD/svg11.dtd" [
	<!ENTITY ns_flows "http://ns.adobe.com/Flows/1.0/">
	<!ENTITY ns_extend "http://ns.adobe.com/Extensibility/1.0/">
	<!ENTITY ns_ai "http://ns.adobe.com/AdobeIllustrator/10.0/">
	<!ENTITY ns_graphs "http://ns.adobe.com/Graphs/1.0/">
]>
<svg version="1.1" id="Layer_1" xmlns:x="&ns_extend;" xmlns:i="&ns_ai;" xmlns:graph="&ns_graphs;"
	 xmlns="http://www.w3.org/2000/svg" xmlns:xlink="http://www.w3.org/1999/xlink" xmlns:a="http://ns.adobe.com/AdobeSVGViewerExtensions/3.0/"
	 x="0px" y="0px" width="201.713px" height="233.139px" viewBox="0 0 201.713 233.139"
	 style="enable-background:new 0 0 201.713 233.139;" xml:space="preserve">
<path style="fill:#18B3AB;" d="M185.101,147.227c5.545-0.859,11.079-1.79,16.612-2.726V98.146c-3.305,0.604-6.607,1.219-9.917,1.789
	c-1.266,0.218-1.974,0.567-2.115,2.023c-0.209,2.154-0.723,4.277-1.097,6.415c-2.104,12.033-4.246,24.058-6.274,36.103
	C181.839,147.273,182.238,147.67,185.101,147.227"/>
<path style="fill:#18B3AB;" d="M183.291,49.546c1.38,7.266,2.85,14.516,4.148,21.796c1.227,6.867,2.281,13.765,3.435,20.791
	c0.305-0.027,0.854-0.036,1.391-0.129c3.15-0.546,6.298-1.099,9.448-1.65V58.45v-0.22l-18.675-10.782
	C183.006,47.914,183.104,48.559,183.291,49.546"/>
<path style="fill:#18B3AB;" d="M135.111,28.55c0.261,1.419,0.619,2.247,2.252,2.541c8.519,1.531,17.024,3.137,25.532,4.727
	l-29.69-17.142C133.86,21.964,134.505,25.253,135.111,28.55"/>
<path style="fill:#18B3AB;" d="M125.192,38.249c-4.159,0.385-8.308,0.969-12.429,1.661c-12.13,2.038-24.231,4.248-36.375,6.202
	c-2.38,0.382-2.378,1.438-2.039,3.25c2.647,14.136,5.25,28.28,7.935,42.794c0.98-0.142,2.409-0.3,3.818-0.563
	c10.833-2.018,21.657-4.081,32.497-6.059c1.336-0.244,1.88-0.796,2.105-2.122c0.935-5.47,2.033-10.912,2.975-16.38
	c1.476-8.555,2.936-17.114,4.27-25.691C128.435,38.214,128.213,37.968,125.192,38.249"/>
<path style="fill:#18B3AB;" d="M181.766,83.444c-2.121-11.966-4.402-23.904-6.591-35.858c-0.267-1.453-1.108-1.889-2.471-2.129
	c-6.577-1.161-13.137-2.431-19.701-3.665c-5.518-1.036-11.033-2.074-16.317-3.068c-2.786,15.395-5.514,30.473-8.291,45.82
	c2.788,0.284,5.359,0.377,7.866,0.829c11.168,2.013,22.306,4.196,33.48,6.174c4.073,0.722,8.218,1.046,12.923,1.624
	C182.337,89.46,182.292,86.409,181.766,83.444"/>
<path style="fill:#18B3AB;" d="M71.08,201.45c-1.831,0.267-3.709,0.248-5.526,0.579c-4.688,0.855-9.371,1.736-14.056,2.613
	L71.74,216.33c0.615-4.199,1.227-8.398,1.843-12.597C73.879,201.711,72.933,201.178,71.08,201.45"/>
<path style="fill:#18B3AB;" d="M130.315,112.898c0.104,0.481,0.216,0.962,0.328,1.442c0.459,1.952,0.701,3.897,0.948,5.884
	c0.235,1.895,0.529,3.786,1.01,5.635c0.429,1.651,0.755,3.327,1.202,4.973c0.097,0.357,0.201,0.713,0.313,1.067
	c0.356,1.936,0.709,3.872,1.018,5.815c0.231,1.468,0.891,2.034,2.282,2.254c3.735,0.587,7.461,1.242,11.177,1.947
	c7.668,1.454,15.334,2.919,22.984,4.463c2.078,0.421,2.909-0.168,3.023-2.34c0.149-2.887,0.509-5.772,0.964-8.63
	c0.577-3.621,1.243-7.228,1.899-10.837c0.267-0.809,0.567-1.604,0.794-2.431c0.355-1.305,0.387-2.629,0.407-3.971
	c0.021-1.254,0.459-2.449,0.747-3.664c0.056,0.002,0.11,0.004,0.164,0.006c0.787-4.519,1.574-9.037,2.316-13.297
	c-7.045-1.135-13.709-2.173-20.359-3.291c-10.311-1.732-20.615-3.508-30.918-5.289c-2.132-0.368-3.054,0.416-2.772,2.596
	c0.636,4.934,1.25,9.871,1.828,14.463c0.053,0,0.104-0.002,0.155-0.002c0.067,1.031,0.242,2.045,0.457,3.054
	c-0.013,0.015-0.025,0.029-0.039,0.043C130.269,112.824,130.292,112.861,130.315,112.898"/>
<path style="fill:#18B3AB;" d="M172.998,154.359c-8.306-1.517-16.597-3.113-24.897-4.657c-3.912-0.728-7.835-1.396-11.783-2.098
	c-0.173,0.684-0.27,0.986-0.322,1.295c-1.912,11.252-3.867,22.498-5.708,33.761c-0.921,5.629-1.637,11.291-2.438,16.939
	c-0.221,1.563,0.461,2.237,2.043,2.077c2.56-0.262,5.156-0.294,7.678-0.75c9.386-1.697,18.753-3.498,28.133-5.228l15.147-8.745
	c-1.896-10.182-3.822-20.357-5.664-30.549C174.934,155.002,174.264,154.59,172.998,154.359"/>
<path style="fill:#18B3AB;" d="M21.158,84.75c11.026,1.874,22.045,3.789,33.081,5.597c5.635,0.924,11.301,1.659,16.954,2.469
	c1.722,0.247,2.597-0.385,2.385-2.258c-0.281-2.477-0.312-4.995-0.75-7.441c-2.129-11.886-4.325-23.76-6.629-35.612
	c-0.15-0.774-1.319-1.754-2.16-1.927c-6.545-1.339-13.126-2.495-19.694-3.724c-4.061-0.761-8.082-1.525-12.038-2.277l-5.16,2.979
	c-2.554,14.03-5.066,27.828-7.619,41.855C20.237,84.56,20.695,84.671,21.158,84.75"/>
<path style="fill:#18B3AB;" d="M65.701,35.034c-0.023-0.72,0.015-1.457,0.141-2.165c0.837-4.707,1.687-9.412,2.535-14.117
	L42.594,33.638l0.116,0.022c6.633,1.247,13.272,2.467,19.883,3.827C64.824,37.946,65.775,37.291,65.701,35.034"/>
<path style="fill:#18B3AB;" d="M72.174,100.698c-8.262-1.283-16.531-2.527-24.787-3.842c-8.58-1.367-17.151-2.778-25.718-4.222
	c-2.174-0.366-2.994,0.408-2.698,2.575c0.523,3.825,1.063,7.65,1.441,11.491c0.019,0.191,0.047,0.367,0.079,0.536
	c-0.002,0.01-0.011,0.014-0.01,0.026c0.068,1.214,0.217,2.42,0.341,3.629c0.074,0.725,0.151,1.432,0.268,2.137
	c-0.02,0.014-0.041,0.027-0.062,0.042c0.025,0.007,0.048,0.012,0.073,0.019c0.066,0.391,0.143,0.783,0.247,1.176
	c0.501,1.892,1.051,3.805,1.733,5.651c1.077,6.054,2.154,12.152,3.326,18.236c0.123,0.64,0.984,1.455,1.642,1.617
	c2.182,0.538,4.436,0.776,6.649,1.197c9.329,1.778,18.66,3.553,27.976,5.397c2.039,0.404,2.936-0.104,3.051-2.308
	c0.152-2.888,0.518-5.774,0.972-8.633c0.623-3.912,1.348-7.813,2.089-11.913c0.283-0.582,0.417-1.264,0.521-1.867
	c0.106-0.621,0.172-1.247,0.275-1.868c0.133-0.804,0.358-1.593,0.515-2.394c0.093-0.473,0.174-0.948,0.25-1.423
	c0.099-0.379,0.188-0.804,0.273-1.291c0.109-0.63,0.163-1.27,0.309-2.425c-0.003,0-0.005,0-0.007,0
	c0.04-0.23,0.075-0.46,0.119-0.689c0.186-0.956,0.426-1.888,0.74-2.809c0.265-0.775,0.209-1.623,0.51-2.377
	c0.03-0.074-0.016-0.125-0.076-0.14c0.338-1.719,0.535-3.472,0.807-5.197C72.612,100.866,72.401,100.733,72.174,100.698"/>
<path style="fill:#18B3AB;" d="M128.366,210.113c0.389,2.122,0.785,4.295,1.182,6.461l16.082-9.285
	C139.977,208.247,134.287,209.146,128.366,210.113"/>
<path style="fill:#18B3AB;" d="M201.713,174.689v-22.256c-5.636,0.889-11.271,1.782-16.916,2.593
	c-2.132,0.307-1.876,1.537-1.613,2.934c1.566,8.312,3.145,16.622,4.696,24.936l13.833-7.985V174.689z"/>
<path style="fill:#18B3AB;" d="M75.675,147.287c1.916-0.243,3.874-0.218,5.768-0.563c9.422-1.709,18.818-3.566,28.247-5.238
	c5.762-1.022,11.565-1.803,17.469-2.709c0-0.662,0.116-1.472-0.02-2.234c-0.795-4.437-1.713-8.852-2.452-13.298
	c-0.122-0.736-0.348-1.275-0.685-1.661c-0.294-1.349-0.606-2.694-0.869-4.055c-0.373-1.937-0.217-4.064-0.989-5.909
	c-0.85-6.143-1.669-12.066-2.506-18.117c-0.731,0-1.541-0.122-2.3,0.019c-11.632,2.161-23.26,4.348-34.881,6.57
	c-0.53,0.102-1.338,0.523-1.42,0.918c-0.59,2.862-1.027,5.756-1.515,8.656h0.005c-0.501,1.835-1.018,5.636-1.162,5.622
	c-0.298,1.536-0.721,3.477-1.047,5.435c-1.332,8.016-2.628,16.036-3.952,24.053C73.06,146.63,73.646,147.544,75.675,147.287"/>
<path style="fill:#18B3AB;" d="M83.019,194.442c5.875,0.985,11.73,2.092,17.584,3.189c6.316,1.186,12.624,2.411,18.65,3.564
	c1.767-9.905,3.503-19.309,5.11-28.736c1.297-7.613,2.434-15.257,3.654-22.884c0.298-1.862-0.326-2.76-2.329-2.517
	c-2.477,0.3-4.985,0.38-7.44,0.794c-14.048,2.365-28.077,4.84-42.131,7.168c-1.92,0.317-2.142,1.19-1.842,2.768
	c2.184,11.471,4.374,22.939,6.478,34.423C81.018,193.653,81.586,194.202,83.019,194.442"/>
<path style="fill:#18B3AB;" d="M120.832,211.505c-0.263-1.575-0.729-2.438-2.565-2.758c-9.039-1.577-18.04-3.374-27.06-5.064
	c-3.122-0.584-6.259-1.083-9.518-1.643c-0.13,0.932-0.189,1.398-0.261,1.862c-0.86,5.507-1.719,11.014-2.605,16.516l22.033,12.721
	l21.596-12.469C121.894,217.618,121.342,214.565,120.832,211.505"/>
<path style="fill:#18B3AB;" d="M73.439,35.57c-0.445,2.85-0.153,3.016,2.792,2.784c1.764-0.139,3.549-0.192,5.282-0.51
	c10.358-1.896,20.693-3.924,31.06-5.768c4.806-0.855,9.667-1.393,15.014-2.147c-1.05-5.436-2.099-10.875-3.147-16.314L100.857,0
	l-23.81,13.746C75.825,21.018,74.577,28.285,73.439,35.57"/>
<path style="fill:#18B3AB;" d="M0,58.45v28.903c3.115-0.618,6.231-1.222,9.359-1.765c1.643-0.286,2.273-0.925,2.555-2.524
	c1.324-7.525,2.845-15.017,4.148-22.546c0.733-4.234,1.394-8.481,2.028-12.732L0,58.23V58.45z"/>
<path style="fill:#18B3AB;" d="M10.328,93.147C6.984,93.794,3.515,94.465,0,95.145v46.619c6.082-1.051,12.215-2.111,18.532-3.203
	C15.86,123.766,13.14,108.714,10.328,93.147"/>
<path style="fill:#18B3AB;" d="M19.15,149.555c0.299-1.858-0.276-2.752-2.296-2.499c-2.472,0.31-4.977,0.391-7.432,0.79
	c-3.146,0.511-6.285,1.06-9.422,1.618v25.225v0.22l13.85,7.996c0.514-3.26,1.029-6.52,1.545-9.78
	C16.639,165.267,17.883,157.409,19.15,149.555"/>
<path style="fill:#18B3AB;" d="M72.98,193.315c-0.224-1.6-0.361-2.962-0.61-4.302c-2.014-10.838-4.013-21.678-6.151-32.491
	c-0.162-0.816-1.27-1.893-2.098-2.062c-8.435-1.719-16.9-3.288-25.363-4.865c-3.755-0.7-7.526-1.322-11.368-1.992
	c-0.145,0.753-0.228,1.138-0.294,1.527c-1.727,10.229-3.476,20.457-5.169,30.691c-0.39,2.358-0.78,4.715-1.165,7.074l20.26,11.698
	c6.115-1.169,12.231-2.336,18.359-3.435C63.795,194.368,68.275,193.941,72.98,193.315"/>
</svg>
