<?xml version="1.0" encoding="utf-8"?>
<!-- Generator: Adobe Illustrator 16.0.0, SVG Export Plug-In . SVG Version: 6.00 Build 0)  -->
<!DOCTYPE svg PUBLIC "-//W3C//DTD SVG 1.1//EN" "http://www.w3.org/Graphics/SVG/1.1/DTD/svg11.dtd" [
	<!ENTITY ns_flows "http://ns.adobe.com/Flows/1.0/">
	<!ENTITY ns_extend "http://ns.adobe.com/Extensibility/1.0/">
	<!ENTITY ns_ai "http://ns.adobe.com/AdobeIllustrator/10.0/">
	<!ENTITY ns_graphs "http://ns.adobe.com/Graphs/1.0/">
]>
<svg version="1.1" id="Layer_1" xmlns:x="&ns_extend;" xmlns:i="&ns_ai;" xmlns:graph="&ns_graphs;"
	 xmlns="http://www.w3.org/2000/svg" xmlns:xlink="http://www.w3.org/1999/xlink" xmlns:a="http://ns.adobe.com/AdobeSVGViewerExtensions/3.0/"
	 x="0px" y="0px" width="200.709px" height="231.968px" viewBox="0 0 200.709 231.968"
	 style="enable-background:new 0 0 200.709 231.968;" xml:space="preserve">
<polygon style="fill:#FFFFFF;" points="100.365,0 0.01,57.93 0.01,58.149 0,173.804 0,174.023 100.344,231.968 200.7,174.039 
	200.7,173.82 200.709,58.165 200.709,57.946 "/>
<path style="fill-rule:evenodd;clip-rule:evenodd;fill:#292928;" d="M30.732,166.281c-0.017-15.854-0.031-31.707-0.051-47.559
	c17.438-1.917,23.952-8.488,24.53-24.74c5.918-0.104,11.838-0.207,17.756-0.311c3.518-0.012,7.033-0.023,10.551-0.036
	c12.436,0.037,24.871,0.076,37.308,0.113c3.986,0.007,7.971,0.013,11.955,0.019c6.516,0.095,13.031,0.19,19.547,0.285
	c-0.258,15.761,4.48,21.108,22.078,24.917c0.006,15.689,0.012,31.377,0.02,47.066c-16.303,2.008-22.129,8.498-22.236,24.752
	c-32.301,0.025-64.6,0.049-96.901,0.072C54.655,174.166,47.246,166.748,30.732,166.281z"/>
<path style="fill-rule:evenodd;clip-rule:evenodd;fill:#31312F;" d="M93.347,55.242c-5.029-0.997-4.039-4.943-4.143-8.393
	c-0.312-10.476,1.746-21.437-6.931-30.753c7.792-2.824,15.187-3.5,22.633-2.537c9.838,1.273,13.996,6.622,13.834,16.792
	c-0.09,5.732-0.031,11.467-0.107,17.199c-0.039,2.64,0.721,5.628-2.596,7.088C108.508,56.183,100.942,56.244,93.347,55.242z"/>
<path style="fill-rule:evenodd;clip-rule:evenodd;fill:#E4C149;" d="M93.347,55.242c7.596,1.001,15.162,0.94,22.691-0.604
	c4.088,3.802,8.252,7.527,12.24,11.43c3.225,3.158,4.457,6.664,0.811,10.441c-2.262-1.251-3.734-4.949-6.77-3.465
	c-2.447,1.195-0.785,4.491-1.49,6.749c-0.24,0.775-0.32,1.601-0.471,2.409c-11.775,6.798-23.57,7.337-35.387,0.099
	c-0.629-3.502-1.256-7.006-1.884-10.51C85.661,65.746,86.188,58.438,93.347,55.242z"/>
<path style="fill-rule:evenodd;clip-rule:evenodd;fill:#6A6A6A;" d="M30.732,166.281c16.514,0.467,23.923,7.885,24.557,24.58
	C30.867,191.808,29.688,190.625,30.732,166.281z"/>
<path style="fill-rule:evenodd;clip-rule:evenodd;fill:#6A6A6A;" d="M55.212,93.982c-0.578,16.252-7.093,22.823-24.53,24.74
	c-0.059-1.076-0.113-2.152-0.181-3.227C29.192,93.838,33.644,92.2,55.212,93.982z"/>
<path style="fill-rule:evenodd;clip-rule:evenodd;fill:#6F7070;" d="M174.407,118.97c-17.598-3.809-22.336-9.157-22.078-24.917
	C171.461,90.57,178.034,97.985,174.407,118.97z"/>
<path style="fill-rule:evenodd;clip-rule:evenodd;fill:#6F7070;" d="M152.19,190.789c0.107-16.254,5.934-22.744,22.236-24.752
	c1.699,4.207,0.941,8.625,0.729,12.893c-0.393,7.939-5.119,12.072-13.191,12.146C158.709,191.105,155.448,190.892,152.19,190.789z"
	/>
<path style="fill-rule:evenodd;clip-rule:evenodd;fill:#747471;" d="M120.356,82.197c0.152-0.805,0.232-1.63,0.473-2.405
	c0.705-2.258-0.957-5.553,1.49-6.749c3.035-1.483,4.508,2.214,6.77,3.465c2.887,5.402,1.699,11.671,3.693,17.259
	c-3.984-0.006-7.969-0.012-11.955-0.019C121.965,89.844,122.002,85.987,120.356,82.197z"/>
<path style="fill-rule:evenodd;clip-rule:evenodd;fill:#6F7070;" d="M83.087,71.79c0.628,3.504,1.255,7.007,1.881,10.51
	c-2.754,3.488-1.648,7.471-1.449,11.336c-3.518,0.013-7.033,0.024-10.551,0.036C73.559,85.089,73.031,75.992,83.087,71.79z"/>
<g>
	<path style="fill-rule:evenodd;clip-rule:evenodd;fill:#E4C149;" d="M161.059,142.107c2.402-3.014,4.428-5.439,6.32-7.965
		c1.275-1.703,2.969-0.791,4.484-0.9c0.51-0.037,0.387,0.686,0.387,1.096c0.01,4.58-0.021,9.162,0.025,13.74
		c0.012,1.021-0.404,1.176-1.299,1.217c-3.404,0.166-3.404,0.199-3.404-3.152c0-1.693,0-3.385,0-5.783
		c-2.234,2.787-4.254,4.979-5.875,7.434c-1.291,1.961-3.023,1.387-4.709,1.461c-0.596,0.025-0.693-0.414-0.693-0.898
		c0-4.73,0.012-9.457-0.014-14.186c-0.002-0.779,0.301-1.055,1.043-1.014c0.59,0.033,1.189,0.07,1.771-0.01
		c1.49-0.201,2.111,0.271,2,1.896C160.952,137.16,161.059,139.292,161.059,142.107z"/>
	<path style="fill-rule:evenodd;clip-rule:evenodd;fill:#E4C149;" d="M125.352,132.708c5.629-0.021,7.967,2.254,8.064,7.861
		c0.02,1.182-0.014,2.365,0.01,3.549c0.02,0.936-0.18,1.945,1.338,2.029c1.189,0.064,0.516,1.137,0.637,1.752
		c0.137,0.684,0.035,1.293-0.857,1.49c-1.494,0.332-3.059,0.506-4.232-0.535c-1.006-0.893-1.68-0.668-2.637-0.098
		c-1.725,1.031-3.658,1.113-5.592,0.859c-2.332-0.309-3.967-1.922-4.313-4.133c-0.338-2.172,0.781-4.221,2.926-5.205
		c2.156-0.99,4.426-1.051,6.732-0.656c0.41,0.068,0.967,0.371,1.174-0.129c0.137-0.334-0.047-0.869-0.223-1.254
		c-0.48-1.061-1.447-1.416-2.518-1.518c-1.637-0.156-3.23,0.057-4.83,0.443c-0.58,0.139-1.73,1.223-1.805-0.256
		c-0.055-1.098-1.031-2.768,0.893-3.4C121.811,132.957,123.561,132.669,125.352,132.708z M126.055,142.189
		c-1.547,0.266-3.326,0.195-3.434,2.18c-0.086,1.582,1.268,2.164,2.592,2.008c1.488-0.174,3.381-0.01,3.514-2.4
		C128.86,141.587,126.909,142.744,126.055,142.189z"/>
	<path style="fill-rule:evenodd;clip-rule:evenodd;fill:#E4C149;" d="M70.656,141.507c-0.1,5.096-3.741,8.332-9.227,8.201
		c-5.227-0.123-8.678-3.6-8.601-8.662c0.078-5.125,3.851-8.471,9.396-8.33C67.403,132.847,70.757,136.345,70.656,141.507z
		 M65.914,141.187c-0.013-2.535-1.652-4.283-4.058-4.332c-2.493-0.049-4.195,1.75-4.177,4.41c0.02,2.566,1.619,4.279,4.034,4.314
		C64.225,145.617,65.928,143.835,65.914,141.187z"/>
	<path style="fill-rule:evenodd;clip-rule:evenodd;fill:#E4C149;" d="M99.033,141.138c0-2.145,0.046-4.291-0.02-6.436
		c-0.032-1.074,0.159-1.592,1.423-1.572c4.437,0.074,8.876,0.055,13.316,0.012c0.963-0.012,1.271,0.27,1.262,1.248
		c-0.047,4.514-0.053,9.027,0.002,13.539c0.014,1.08-0.338,1.342-1.383,1.373c-3.385,0.098-3.383,0.146-3.383-3.193
		c0-2.443-0.057-4.885,0.023-7.324c0.039-1.193-0.225-1.65-1.553-1.67c-4.893-0.076-4.891-0.135-4.891,4.729
		c0,1.85-0.172,3.719,0.043,5.543c0.27,2.266-1.154,1.871-2.461,1.896c-1.361,0.023-2.668,0.271-2.427-1.936
		C99.209,145.302,99.033,143.21,99.033,141.138z"/>
	<path style="fill-rule:evenodd;clip-rule:evenodd;fill:#E4C149;" d="M33.845,141.154c0-2.145,0.043-4.289-0.017-6.432
		c-0.03-1.063,0.148-1.607,1.421-1.588c4.434,0.072,8.871,0.055,13.308,0.01c0.982-0.012,1.25,0.326,1.242,1.271
		c-0.039,4.51-0.05,9.02,0.005,13.529c0.015,1.109-0.404,1.318-1.414,1.35c-3.266,0.102-3.264,0.145-3.264-3.039
		c-0.001-2.588,0.006-5.176-0.007-7.764c-0.002-0.557,0.181-1.303-0.73-1.322c-1.698-0.035-3.399-0.033-5.101-0.002
		c-0.963,0.018-0.665,0.809-0.67,1.324c-0.024,3.029-0.085,6.064,0.021,9.092c0.048,1.369-0.337,1.766-1.714,1.717
		c-3.746-0.135-3.012,0.297-3.074-3.045C33.818,144.556,33.845,142.855,33.845,141.154z"/>
	<path style="fill-rule:evenodd;clip-rule:evenodd;fill:#E4C149;" d="M153.723,133.414c-1.516,2.174-2.92,4.309-4.457,6.342
		c-0.748,0.992-0.777,1.701,0.014,2.689c1.682,2.104,3.232,4.314,4.896,6.563c-3.41,0.809-5.859,0.219-7.553-2.932
		c-0.693-1.297-1.369-3.791-3.445-2.984c-1.525,0.594-0.625,2.773-0.545,4.17c0.117,2.002-0.844,2.025-2.33,2.045
		c-1.582,0.023-2.58,0.002-2.48-2.137c0.195-4.125,0.166-8.27,0.014-12.398c-0.084-2.273,1.406-1.551,2.484-1.586
		c1.057-0.035,2.523-0.531,2.256,1.543c-0.121,0.943-0.055,1.918-0.008,2.875c0.025,0.533-0.307,1.285,0.516,1.494
		c0.74,0.188,1.459,0.098,1.938-0.662c0.471-0.748,1.117-1.412,1.459-2.211C147.893,132.923,150.481,132.667,153.723,133.414z"/>
	<path style="fill-rule:evenodd;clip-rule:evenodd;fill:#E4C149;" d="M86.824,137.673c-2.996-0.912-6.129-2.027-8.468,1.104
		c-1.195,1.602-1.128,3.619,0.216,5.15c2.379,2.709,5.324,1.791,8.188,0.891c0.964,3.58,0.397,4.438-3.155,4.799
		c-7.74,0.791-12.416-4.227-10.359-11.119c1.45-4.867,8.695-7.629,13.028-4.971C87.122,134.048,87.16,134.332,86.824,137.673z"/>
	<path style="fill-rule:evenodd;clip-rule:evenodd;fill:#E4C149;" d="M95.044,141.314c-0.002,2.135-0.042,4.271,0.018,6.404
		c0.027,1.043-0.122,1.563-1.395,1.584c-3.285,0.057-3.283,0.133-3.283-3.234c0-3.533,0.147-7.076-0.056-10.6
		c-0.118-2.057,0.618-2.303,2.44-2.385c2.105-0.098,2.443,0.689,2.308,2.488C94.931,137.476,95.044,139.398,95.044,141.314z"/>
	<path style="fill-rule:evenodd;clip-rule:evenodd;fill:#E4C149;" d="M92.563,125.197c1.927,0.057,3.008,1.203,2.879,2.855
		c-0.134,1.717-1.2,2.477-2.811,2.436c-1.776-0.045-2.691-1.027-2.611-2.832C90.098,125.89,91.228,125.281,92.563,125.197z"/>
</g>
</svg>
