<?xml version="1.0" encoding="utf-8"?>
<!-- Generator: Adobe Illustrator 16.0.0, SVG Export Plug-In . SVG Version: 6.00 Build 0)  -->
<!DOCTYPE svg PUBLIC "-//W3C//DTD SVG 1.1//EN" "http://www.w3.org/Graphics/SVG/1.1/DTD/svg11.dtd" [
	<!ENTITY ns_flows "http://ns.adobe.com/Flows/1.0/">
	<!ENTITY ns_extend "http://ns.adobe.com/Extensibility/1.0/">
	<!ENTITY ns_ai "http://ns.adobe.com/AdobeIllustrator/10.0/">
	<!ENTITY ns_graphs "http://ns.adobe.com/Graphs/1.0/">
]>
<svg version="1.1" id="Layer_1" xmlns:x="&ns_extend;" xmlns:i="&ns_ai;" xmlns:graph="&ns_graphs;"
	 xmlns="http://www.w3.org/2000/svg" xmlns:xlink="http://www.w3.org/1999/xlink" xmlns:a="http://ns.adobe.com/AdobeSVGViewerExtensions/3.0/"
	 x="0px" y="0px" width="202.872px" height="234.469px" viewBox="0 0 202.872 234.469"
	 style="enable-background:new 0 0 202.872 234.469;" xml:space="preserve">
<path style="fill:#4E86C6;" d="M101.446,0L0.01,58.554v0.221L0,175.677v0.221l101.426,58.571l101.437-58.556v-0.221l0.01-116.901
	v-0.221L101.446,0z M145.806,191.785c0,2.823-2.31,5.135-5.134,5.135H62.2c-2.824,0-5.134-2.312-5.134-5.135v-2.409
	c0-2.823,2.31-5.134,5.134-5.134h32.596v-12.675l-16.036,5.836c-2.328,0.849-4.791-0.877-4.791-3.354v-14.822l54.934-19.994v17.421
	c0,1.501-0.939,2.841-2.35,3.355l-18.478,6.725v17.509h32.596c2.824,0,5.134,2.311,5.134,5.134V191.785z M149.503,73.921
	c-4.478,0-8.334-2.625-10.142-6.414h-31.267v13.807c0,0.063-0.016,0.123-0.019,0.186v29.695l16.036-5.836
	c2.328-0.848,4.791,0.877,4.791,3.355v14.822L73.969,143.53v-17.421c0-1.501,0.939-2.841,2.349-3.354l18.478-6.726V81.5
	c-0.003-0.063-0.019-0.123-0.019-0.186V67.507H63.51c-1.808,3.789-5.663,6.414-10.141,6.414c-7.014,0-12.528-6.423-10.982-13.707
	c0.885-4.169,4.219-7.553,8.377-8.487c5.548-1.246,10.596,1.614,12.746,6.121h31.267V42.684c0-2.824,2.31-5.134,5.133-5.134h3.052
	c2.823,0,5.133,2.31,5.133,5.134v15.164h31.267c2.15-4.507,7.198-7.367,12.747-6.121c4.157,0.934,7.491,4.318,8.377,8.487
	C162.031,67.499,156.517,73.921,149.503,73.921"/>
</svg>
