<?xml version="1.0" encoding="utf-8"?>
<!-- Generator: Adobe Illustrator 16.0.0, SVG Export Plug-In . SVG Version: 6.00 Build 0)  -->
<!DOCTYPE svg PUBLIC "-//W3C//DTD SVG 1.1//EN" "http://www.w3.org/Graphics/SVG/1.1/DTD/svg11.dtd" [
	<!ENTITY ns_flows "http://ns.adobe.com/Flows/1.0/">
	<!ENTITY ns_extend "http://ns.adobe.com/Extensibility/1.0/">
	<!ENTITY ns_ai "http://ns.adobe.com/AdobeIllustrator/10.0/">
	<!ENTITY ns_graphs "http://ns.adobe.com/Graphs/1.0/">
]>
<svg version="1.1" id="Layer_1" xmlns:x="&ns_extend;" xmlns:i="&ns_ai;" xmlns:graph="&ns_graphs;"
	 xmlns="http://www.w3.org/2000/svg" xmlns:xlink="http://www.w3.org/1999/xlink" xmlns:a="http://ns.adobe.com/AdobeSVGViewerExtensions/3.0/"
	 x="0px" y="0px" width="201.712px" height="233.139px" viewBox="0 0 201.712 233.139"
	 style="enable-background:new 0 0 201.712 233.139;" xml:space="preserve">
<path style="fill:#FFFFFF;" d="M89.908,73.933c-1.364-0.824-2.707-1.673-4.018-2.545c0.515,1.107,0.301,2.411-0.84,3.729
	c-0.619,0.715-1.334,1.411-2.109,2.032c-0.002-0.003-0.004-0.005-0.008-0.008c-0.328,0.264-0.68,0.482-1.051,0.673
	c0.021,0.02,0.041,0.039,0.063,0.058c-0.625,0.414-1.278,0.764-1.951,1.018c-0.07,0.026-0.139,0.056-0.207,0.082
	c0.309,0.239,0.627,0.477,0.941,0.715C83.574,77.996,86.643,76.083,89.908,73.933"/>
<path style="fill:#FFFFFF;" d="M73.943,81.719c-0.322,0.264-0.664,0.498-1.043,0.678c0.01,0.01,0.02,0.019,0.03,0.029
	c-0.985,0.66-1.94,1.383-2.847,2.199c-0.354,0.319-0.713,0.649-1.114,0.91c-1.931,1.27-4.034,2.295-6.015,3.491
	c3.742-1.668,9.367-4.415,16.463-8.567c-0.383-0.293-0.768-0.587-1.143-0.882c-1.492,0.634-2.928,1.347-4.293,2.177
	C73.969,81.742,73.957,81.731,73.943,81.719"/>
<path style="fill:#FFFFFF;" d="M58.734,106.317l0.102-0.066c-0.866,0.563-1.791,1.158-2.909,1.881
	c-0.086,0.1-0.188,0.194-0.286,0.289c1.359-0.522,2.745-1.089,4.154-1.697C59.146,106.483,58.768,106.332,58.734,106.317"/>
<path style="fill:#FFFFFF;" d="M130.728,54.306c-0.269-0.573-0.516-1.157-0.715-1.758c-0.026-0.077-0.038-0.156-0.049-0.234
	c-0.7-2.101-1.398-4.202-2.098-6.302c-13.063,11.919-24.969,20.991-35.11,27.83c3.606,2.11,7.279,4.038,10.759,5.742
	c3.885-3.063,7.64-6.201,11.188-9.338c0.231-2.881,1.958-5.416,4.672-6.777c1.316-0.66,2.619-1.038,3.881-1.169
	c2.704-2.653,5.202-5.255,7.455-7.763c-0.019-0.057-0.039-0.113-0.058-0.17C130.68,54.346,130.702,54.326,130.728,54.306"/>
<path style="fill:#FFFFFF;" d="M113.255,136.427c-3.65-2.41-2.819-6.089-3.941-9.839c1.355,1.203,2.228,1.975,3.097,2.74
	c-1.672-3.426-5.176-5.394-4.9-9.967c0.196-3.249-0.068-6.43,1.443-9.337c-0.001,0-0.001,0.001-0.002,0.001
	c-4.044,1.407-8.289,2.172-12.527,2.489c-0.131,0.52-0.262,1.04-0.397,1.559c0.141,0.49,0.028,1.028-0.39,1.427
	c-0.511,1.843-1.062,3.681-1.678,5.491c-0.558,1.634-1.353,3.257-2.365,4.657c-3.328,4.619-6.265,9.392-8.662,14.583
	c2.816,0.195,5.676,0.344,8.574,0.423c7.511,0.204,15.614-0.035,23.907-0.999c-0.097-0.229-0.176-0.46-0.223-0.7
	C114.655,137.944,114.099,136.983,113.255,136.427"/>
<path style="fill:#FFFFFF;" d="M61.742,56.93c0.434,3.817,2.301,7.711,5.26,11.595c0.243-0.444,0.49-0.884,0.739-1.323
	c-3.055-4.068-4.944-8.174-5.291-12.23L61.742,56.93z"/>
<path style="fill:#FFFFFF;" d="M64.678,72.838c-0.021-0.021-0.037-0.039-0.059-0.059c-0.182,0.359-0.412,0.692-0.699,1.006
	c0.051,0.051,0.096,0.098,0.146,0.15c-0.078,0.143-0.157,0.287-0.239,0.431c-0.655,1.147-1.308,2.31-1.896,3.498
	c0.035-0.017,0.07-0.035,0.105-0.051c0.854-0.527,1.895-1.096,2.902-1.399c0.183-0.102,0.367-0.204,0.568-0.301
	c0.172-0.082,0.338-0.161,0.506-0.24c0.022,0.022,0.048,0.046,0.07,0.068c0.547-0.453,1.17-0.837,1.873-0.987
	c0.016-0.003,0.029-0.001,0.045-0.004c1.12-0.512,2.248-0.996,3.385-1.444c-1.65-1.654-3.114-3.316-4.383-4.981
	C66.219,69.956,65.459,71.407,64.678,72.838"/>
<path style="fill:#FFFFFF;" d="M78.275,79.578c0.498-0.211,1.002-0.412,1.512-0.606c-2.542-1.975-4.865-3.982-6.936-6.01
	c-0.49,0.175-0.979,0.353-1.465,0.544C73.425,75.547,75.74,77.575,78.275,79.578"/>
<path style="fill:#FFFFFF;" d="M92.092,89.927c-6.266,4.359-16.847,11.221-28.352,16.601c3.094,1.004,8.119,2.426,14.533,3.502
	c1.82-2.847,4.015-5.436,6.485-7.82c2.015-1.945,4.351-3.253,7.31-2.936c0.383,0.328,0.779,0.658,1.168,0.988
	c-0.422-0.077-0.871-0.111-1.353-0.092c-2.127,0.072-3.532,1.242-4.31,3.218c-0.941,2.379-0.488,4.363,1.533,5.976
	c0.748,0.595,1.455,1.255,2.209,1.836c-4.543-0.019-8.979-0.488-13.043-1.17c-0.289,0.451-0.563,0.91-0.83,1.374
	c4.381,0.761,9.217,1.295,14.174,1.295c1.595,0,3.201-0.064,4.808-0.185c0.06-0.238,0.123-0.475,0.183-0.714
	c0.065-0.265,0.114-0.535,0.17-0.802c-0.709,0.059-1.418,0.103-2.125,0.137c0.313-0.53,0.629-1.058,0.926-1.599
	c-0.391,0.661-0.896,1.226-1.516,1.61c-0.004,0.003-0.012,0.009-0.018,0.012c-0.225,0.009-0.449,0.012-0.674,0.018
	c-1.749-1.228-3.668-2.307-5.059-3.854c-1.162-1.3,0.099-4.534,1.76-5.719c1.59-1.136,3.494-0.807,5.168,0.891
	c1.551,1.569,1.611,4.579,0.508,6.731c0.646-1.194,1.268-2.406,1.908-3.605c-0.297,1.793-0.504,3.606-0.879,5.378
	c4.802-0.4,9.594-1.407,14.059-3.305c0.007-0.003,0.01-0.002,0.017-0.004c-0.316-0.58-0.581-1.162-0.741-1.745
	c-0.1-0.137-0.207-0.268-0.293-0.413c-0.346-0.581-0.249-1.14,0.059-1.555c0.024-1.23,0.368-2.464,1.091-3.695
	c0.207-0.354,0.436-0.678,0.666-0.998c-6.584-3.065-12.953-6.381-18.823-9.864C92.57,89.588,92.333,89.76,92.092,89.927"/>
<path style="fill:#FFFFFF;" d="M122.018,87.573c-2.187-4.375-4.656-8.622-6.588-13.104c-0.324-0.752-0.531-1.505-0.646-2.25
	c-3.11,2.716-6.383,5.428-9.76,8.098C114.292,84.76,121.782,87.49,122.018,87.573"/>
<path style="fill:#FFFFFF;" d="M119.76,95.359c3.256,0.455,3.967-0.051,3.783-3.271c-0.057-0.969-0.366-1.959-0.76-2.9
	c-0.724-0.251-9.063-3.167-19.012-7.88c-3.152,2.463-6.399,4.878-9.698,7.22c5.792,3.402,12.051,6.63,18.502,9.608
	C114.567,96.017,117.128,94.989,119.76,95.359"/>
<path style="fill:#FFFFFF;" d="M111.062,108.086c-0.009-0.013-0.014-0.027-0.021-0.041c-0.005,0.016-0.01,0.031-0.015,0.046
	c-0.095,0.014-0.188,0.026-0.289,0.041C110.852,108.116,110.954,108.102,111.062,108.086"/>
<path style="fill:#FFFFFF;" d="M145.908,83.996c2.42,2.875,2.685,7.01,0.611,9.529c-3.395,4.115-6.081,4.313-11.808,0.867
	c1.559,2.8,3.578,3.924,6.463,3.599c2.785-0.315,6.688-3.642,7.347-6.259c0.926-3.665,0.164-6.452-2.232-8.15
	c-2.472-2.958-4.949-5.913-7.426-8.872c0.288,0.733,0.492,1.539,0.964,2.125C141.797,79.271,143.871,81.617,145.908,83.996"/>
<path style="fill:#FFFFFF;" d="M131.831,66.361c2.017,2.773,4.447,5.248,6.712,7.84c-1.332-2.733-2.88-5.388-3.896-8.236
	c-1.154-3.241-2.268-6.497-3.368-9.758c-1.808,1.992-3.766,4.037-5.852,6.115C127.92,62.659,130.15,64.053,131.831,66.361"/>
<path style="fill:#FFFFFF;" d="M138.863,74.71c-0.031-0.091-0.069-0.18-0.105-0.263c-0.07-0.082-0.147-0.165-0.215-0.247
	c0.049,0.102,0.1,0.203,0.15,0.3C138.746,74.572,138.807,74.64,138.863,74.71"/>
<path style="fill:#FFFFFF;" d="M123.256,62.3c-2.669,2.617-5.538,5.281-8.552,7.946c-0.053,0.644-0.024,1.304,0.08,1.973
	c3.809-3.325,7.383-6.65,10.643-9.897C124.723,62.227,123.996,62.223,123.256,62.3"/>
<path style="fill:#FFFFFF;" d="M55.305,113.713c0.281,0.569,2.201,4.207,2.176,4.585c3.545,7.166,9.416,15.857,17.041-0.686
	c0.168-0.011,0.346-0.027,0.516-0.038c-0.221-0.456-0.233-0.985,0.091-1.388c0.649-1.677,1.435-3.262,2.315-4.782
	c-6.83-1.185-12.43-2.877-15.67-3.979c-2.267,1.016-4.558,1.974-6.854,2.83c-0.003,0.298-0.015,0.598-0.011,0.896
	C54.912,112.011,54.939,112.969,55.305,113.713"/>
<path style="fill:#FFFFFF;" d="M82.275,141.691c0.215-0.489,0.434-0.977,0.656-1.459c-31.324-2.178-56.778-10.914-57.056-11.01
	l-0.135,0.388c-0.038,0.134-0.075,0.246-0.11,0.316l-0.246,0.712C25.66,130.735,50.991,139.434,82.275,141.691"/>
<path style="fill:#FFFFFF;" d="M123.732,149.766c-2.367-2.77-4.804-5.479-7.07-8.329c-0.067-0.085-0.173-0.226-0.274-0.358
	c-6.293,0.762-12.883,1.146-19.759,1.146c-1.718,0-3.448-0.022-5.2-0.07c-3.096-0.085-6.149-0.246-9.153-0.463
	c-0.047,0.108-0.098,0.214-0.144,0.322c-1.517,3.534-4.81,6.308-7.306,9.413c-0.1,0.119-0.295,0.152-0.399,0.265
	c-0.585,0.64-1.196,1.243-1.821,1.83c-0.119,0.659-0.6,1.219-1.313,1.187c-4.146,3.595-8.89,6.397-13.31,9.642
	c-4.852,3.563-8.242,8.93-10.379,14.791c-0.148,0.413-0.125,0.888-0.258,1.962c2.057-3.733,3.807-6.92,5.561-10.103
	c0.188,0.065,0.377,0.134,0.564,0.201c-1.31,8.337-3.373,21.83-4.917,31.742l52.301,30.196l33.885-19.563
	c-0.863-16.537-2.667-49.701-3.312-51.149C130.893,161.229,127.139,151.934,123.732,149.766"/>
<path style="fill:#FFFFFF;" d="M100.856,0L0,58.23v0.22v116.239v0.22l10.296,5.945c3.883-10.365,9.995-26.569,11.048-30.345
	c1.025-3.688,1.414-7.544,2.152-11.313c0.613-3.124,0.755-6.513,2.134-9.266c0.001-0.001,0.001-0.003,0.002-0.005l0.11-0.316
	c0.472-1.657,1.129-7.73,1.164-7.823c-0.021-0.927-0.047-1.853-0.021-2.783c0.049-1.81,0.081-3.619,0.118-5.426
	c2.376,0.677,4.917,1.004,7.592,1.004c6.327,0,13.338-1.725,20.323-4.326c0.004-0.411,0.004-0.822,0.014-1.234
	c0.271-0.198,0.499-0.396,0.708-0.599c-11.555,4.437-21.285,5.761-28.398,3.681c-0.146-0.359-0.139-0.731-0.018-1.063
	c-0.053-0.033-0.111-0.064-0.162-0.097c0.064-2.303,0.159-4.606,0.338-6.898c0.137-1.743,1.01-3.597,2.028-5.065
	c3.966-5.711,5.211-12.502,7.861-18.724c2.493-5.844,4.079-12.037,7.75-17.48c2.944-4.366,4.528-9.627,6.905-14.398
	c1.096-2.191,2.58-4.202,4-6.217c1.054-1.498,2.39-2.798,3.403-4.322c1.005-1.511,1.706-3.188-0.389-4.587
	c3.387-1.353,6.583,0.928,6.475,4.716c-0.069,2.495-0.577,5.045-1.323,7.438c-0.761,2.463-1.596,7.606-1.308,7.929
	c1.466-1.852,3.353-3.14,5.873-3.842c1.748-0.486,3.429-1.761,4.742-3.077c0.813-0.808,0.878-2.364,1.338-3.765
	c2.247,0.188,3.942,2.96,3.056,5.954c-1.396,4.707-3.185,9.076-6.387,13.035c-1.391,1.723-2.576,3.612-3.684,5.562
	c1.449,1.932,3.164,3.855,5.109,5.76c0.936-0.333,1.877-0.644,2.838-0.899c0.006,0.006,0.014,0.012,0.02,0.018
	c0.51-0.191,1.025-0.354,1.583-0.442c0.118-0.019,0.233-0.02,0.347-0.013c0.982-0.193,1.98-0.351,3.003-0.434
	c0.896-0.07,1.724-0.913,2.669-1.592c-4.193-3.009-7.91-6.256-10.603-9.671l0.849-1.299c4.119,5.225,10.736,10.127,17.77,14.362
	c10.366-6.923,22.621-16.194,36.051-28.45c-0.334-1.005-0.668-2.012-1.004-3.016c-0.646-1.947-1.344-3.891-1.769-5.889
	c-0.715-3.327,0.747-6.516,3.255-7.567c3.132-1.313,6.647-0.609,8.455,2.293c1.42,2.282,2.727,4.655,3.885,7.091
	c0,0,0.406,1.053,1.067,2.754c-2.044,4.019-5.727,8.954-10.555,14.329c0.187,0.557,0.378,1.113,0.565,1.67
	c4.725-5.21,8.424-10.054,10.705-14.155c2.484,6.393,6.917,17.768,9.022,22.975c2.179,5.391,4.85,10.578,7.145,15.927
	c3.28,7.644,7.076,14.852,14.289,19.415c0.025-0.342,0.047-0.69,0.054-1.067c0.041-2.353-0.107-4.717,0.059-7.061
	c0.073-1.029,0.722-2.02,1.129-3.1c-0.214-0.136-1.739-0.52-2.012-1.333c-2.309-6.774-3.709-13.732-0.311-20.502
	c0.825-1.637,3.054-3.185,4.854-3.488c1.263-0.214,3.536,1.427,4.243,2.805c2.598,5.112,4.748,10.453,7.017,15.732
	c0.315,0.724,0.371,1.577,0.455,2.381c0.404,3.802,0.834,7.011,1.6,10.688l-0.131-0.075c-4.993,8.706-11.037,15.793-17.75,21.589
	c-4.535-0.66-9.724-1.712-15.432-3.155c-13.227-3.343-28.913-8.849-43.638-15.647c-0.331,0.352-0.645,0.736-0.941,1.148
	c14.828,6.903,30.702,12.539,44.211,15.954c3.512,0.887,8.818,2.113,14.315,2.978c-5.96,4.904-12.416,8.824-19.147,11.914
	c2.179-3.699,2.04-7.07-2.378-11.322c-4.17-3.351-12.913-9.524-13.118-9.26c4.285,3.192,15.02,12.974,15.499,13.731
	c-0.764-0.462-1.574-0.857-2.277-1.398c-2.496-1.909-4.642-1.738-6.677,0.596c-2.688,3.076-2.228,5.2,1.542,7.111
	c-0.531-1.856-3.675-2.839-1.378-5.688c2.564-3.182,4.715-3.259,6.997,0.36c0.477,0.677,1.331,1.354,1.341,2.036
	c0.011,1.036-0.568,2.086-0.897,3.126c-1.517,2.158-3.519,1.468-5.491,0.933c-0.207,0.038-0.409,0.078-0.614,0.115
	c-1.087-0.104-2.176-0.21-3.264-0.315c0.718,0.366,1.507,0.692,2.491,0.992c1.163,0.413,2.125,0.823,2.929,1.217
	c-9.91,3.867-20.244,6.123-30.304,7.293c0.162,0.383,0.389,0.749,0.716,1.084c0.019,0.021,0.135,0.173,0.259,0.339
	c11.337-1.371,21.708-3.969,31.044-7.757c1.796,1.159,2.154,2.014,2.208,2.074c0.641,0.671,0.191,3.6-0.677,4.214
	c-1.754,1.233-4.116,2.12-6.252,2.171c-2.841,0.063-5.698-0.675-8.551-1.131c3.104,0.776,6.183,1.755,9.333,2.186
	c2.942,0.403,5.473-1.131,7.022-3.564c0.777-1.223,0.894-4.507-0.054-6.323c-0.152-0.235-0.322-0.469-0.505-0.698
	c8.264-3.618,15.678-8.206,22.185-13.741c3.223,0.446,6.444,0.745,9.349,0.745c3.475,0,6.489-0.426,8.508-1.509
	c-0.03,0.401-0.071,0.795-0.133,1.18c0.003-0.002,0.006-0.004,0.009-0.008c-0.021,0.22-0.042,0.438-0.064,0.656
	c-0.146,1.438-0.395,2.868-0.684,4.286c-0.938,1.667-1.866,3.341-2.787,5.015c-0.091,0.028-0.196,0.055-0.308,0.077
	c-0.009,0.017-0.017,0.032-0.024,0.047c-0.092,0.513-0.294,0.863-0.745,1.265c0.112-0.008,0.229-0.016,0.332-0.026
	c-2.304,4.194-4.629,8.37-7.246,12.358c-2.072,3.16-2.962,6.246-2.755,9.785c0.213,3.686,3.184,20.274,6.373,33.931l19.746-11.401
	v-0.22V58.45v-0.22L100.856,0z M58.986,34.402c0.242,0.057,0.572,1.02,0.406,1.323c-0.945,1.732-2.027,3.385-3.061,5.061
	c-0.356-0.175-0.711-0.347-1.063-0.523c0.695-1.85,1.33-3.728,2.143-5.528C57.554,34.425,58.492,34.286,58.986,34.402
	 M73.511,44.644c-1.175,2.139-3.012,3.496-5.786,3.611c1.51-1.851,3.018-3.701,4.936-6.047
	C73.105,43.414,73.726,44.256,73.511,44.644 M191.444,108.832c-0.279,2.209-0.621,4.411-1.025,6.602
	c-0.012,0.065-0.05,0.152-0.082,0.234c-2.061,2.133-8.032,2.624-16.727,1.534c6.373-5.684,11.84-12.31,16.335-19.86
	c0.322,1.402,0.694,2.888,1.136,4.513c0.15,0.561,0.231,1.162,0.255,1.797c0.038,0.041,0.086,0.07,0.111,0.125
	C192.154,105.36,191.656,107.17,191.444,108.832"/>
<path style="fill:#FFFFFF;" d="M91.401,88.579c-3.815-2.313-7.396-4.697-10.666-7.126c-12.271,7.241-20.284,10.325-22.147,10.999
	c-0.619,0.68-1.187,1.433-1.678,2.292c-0.068-0.058-0.136-0.115-0.203-0.172c-0.418,0.737-0.834,1.474-1.25,2.211
	c0.24-0.172,0.477-0.337,0.703-0.498c0.814-0.966,2.476-1.823,3.67-2.555c1.612-0.989,3.426-1.664,5.188-2.394
	c3.977-1.642,7.926-3.388,12.008-4.725c0.904-0.295,2.707,0.64,3.354,1.542c0.515,0.72,0.351,2.749-0.291,3.33
	c-2.293,2.082-4.868,3.873-7.436,5.627c-4.082,2.789-8.236,5.471-12.365,8.192c0.041,0.017,0.558,0.227,1.474,0.555
	c9.005-4.074,18.935-9.829,29.475-17.161C91.291,88.657,91.347,88.617,91.401,88.579"/>
<path style="fill:#FFFFFF;" d="M102.242,80.575c-3.557-1.724-7.273-3.666-10.893-5.787c-3.312,2.201-6.414,4.149-9.306,5.882
	c3.267,2.4,6.829,4.748,10.613,7.02C95.904,85.396,99.111,83.013,102.242,80.575"/>
<path style="fill:#FFFFFF;" d="M138.41,93.023c-1.143-1.415-2.267-2.848-3.434-4.244c-1.294-1.555-1.946-3.24-0.474-4.932
	c1.429-1.638,3.206-2.522,5.427-1.321c1.203,0.648,2.445,1.236,3.673,1.847c1.956,5.569,0.25,8.699-4.96,9.081
	c2.447,1.094,4.079,0.54,5.688-1.915c2.412-3.685,2.351-4.406-0.706-7.2c-0.607-0.611-1.165-1.301-1.852-1.809
	c-2.557-1.891-5.762-1.802-7.55,0.145c-1.664,1.807-1.473,4.832,0.631,7.204C135.899,91.056,137.218,91.985,138.41,93.023
	 M143.624,84.339c0.027,0.028,0.053,0.054,0.075,0.078c-0.031-0.014-0.062-0.029-0.097-0.044c-0.007-0.027-0.013-0.048-0.02-0.074
	C143.598,84.313,143.609,84.326,143.624,84.339"/>
<path style="fill:#FFFFFF;" d="M122.298,88.12c-0.059-0.117-0.12-0.232-0.179-0.349l0.646,1.372
	C122.617,88.794,122.461,88.451,122.298,88.12"/>
</svg>
