<?xml version="1.0" encoding="utf-8"?>
<!-- Generator: Adobe Illustrator 16.0.0, SVG Export Plug-In . SVG Version: 6.00 Build 0)  -->
<!DOCTYPE svg PUBLIC "-//W3C//DTD SVG 1.1//EN" "http://www.w3.org/Graphics/SVG/1.1/DTD/svg11.dtd" [
	<!ENTITY ns_flows "http://ns.adobe.com/Flows/1.0/">
	<!ENTITY ns_extend "http://ns.adobe.com/Extensibility/1.0/">
	<!ENTITY ns_ai "http://ns.adobe.com/AdobeIllustrator/10.0/">
	<!ENTITY ns_graphs "http://ns.adobe.com/Graphs/1.0/">
]>
<svg version="1.1" id="Layer_1" xmlns:x="&ns_extend;" xmlns:i="&ns_ai;" xmlns:graph="&ns_graphs;"
	 xmlns="http://www.w3.org/2000/svg" xmlns:xlink="http://www.w3.org/1999/xlink" xmlns:a="http://ns.adobe.com/AdobeSVGViewerExtensions/3.0/"
	 x="0px" y="0px" width="202.872px" height="234.468px" viewBox="0 0 202.872 234.468"
	 style="enable-background:new 0 0 202.872 234.468;" xml:space="preserve">
<path style="fill:#B25EA5;" d="M159.052,51.316c0,10.242,8.302,18.544,18.544,18.544c9.15,0,16.732-6.632,18.25-15.348
	l-30.151-17.411C161.637,40.503,159.052,45.606,159.052,51.316z"/>
<path style="fill:#7A469B;" d="M107.363,115.023c0,2.349-0.082,4.7,0.054,7.041c0.037,0.628,0.755,1.759,1.127,1.744
	c5.753-0.198,11.566-0.137,17.233-1.002c4.095-0.628,5.966-4.099,5.858-8.504c-0.095-3.776-1.979-6.647-6.059-7.188
	c-5.608-0.746-11.332-0.658-17.011-0.793c-0.402-0.01-1.153,1.062-1.189,1.663c-0.14,2.339-0.056,4.692-0.056,7.04
	C107.333,115.023,107.348,115.023,107.363,115.023z"/>
<path style="fill:#7A469B;" d="M195.846,54.513c-1.518,8.715-9.1,15.348-18.25,15.348c-10.242,0-18.544-8.303-18.544-18.544
	c0-5.71,2.585-10.813,6.643-14.214L101.446,0L14.917,49.947c0.84,0,1.594,0,2.333,0c36.831-0.033,73.661-0.149,110.49,0.015
	c4.433,0.019,9.076,0.97,13.236,2.523c8.845,3.303,13.564,10.068,14.212,19.566c0.667,9.787-3.436,16.858-12.108,21.346
	c-0.535,0.276-1.028,0.628-1.827,1.12c0.839,0.375,1.267,0.643,1.733,0.765c12.94,3.396,20.339,16.607,16.403,29.313
	c-3.354,10.837-12.601,18.32-24.379,18.601c-17.73,0.424-35.478,0.203-53.218,0.374c-2.417,0.022-3.109-0.645-3.098-3.094
	c0.069-15.388,0.021-30.775-0.095-46.163c-0.078-10.63,4.323-16.284,14.681-18.468c2.83-0.596,5.677-1.11,8.515-1.661
	c-0.017-0.098-0.035-0.194-0.052-0.291H63.803c0,7.069,0.012,13.942-0.002,20.814c-0.031,15.304-0.111,30.606-0.074,45.91
	c0.005,2.146-0.553,3.036-2.833,2.945c-4.031-0.159-8.077,0.082-12.104-0.105c-7.801-0.357-13.745-6.409-13.857-14.211
	c-0.172-11.854-0.255-23.712-0.195-35.567c0.05-10.249,4.563-15.617,14.625-17.813c2.734-0.597,5.489-1.098,8.234-1.643
	c-0.851-0.524-1.646-0.524-2.443-0.525c-13.958-0.002-27.917-0.005-41.876-0.009c-3.869-0.001-3.873-0.003-3.875-3.995
	C9.397,64.321,9.399,58.931,9.4,53.132l-9.393,5.422v0.221L0,175.677v0.221l101.425,58.57l101.438-58.553v-0.223l0.01-116.901V58.57
	L195.846,54.513z"/>
<path style="fill:#7A469B;" d="M109.07,88.03c4.354-0.029,8.729-0.014,13.052-0.444c3.703-0.368,6.093-2.968,6.356-6.112
	c0.254-3.033-1.562-5.632-4.95-6.751c-5.217-1.722-10.571-0.871-16.009-0.96c0,4.494-0.053,8.668,0.069,12.837
	C107.603,87.114,108.557,88.035,109.07,88.03z"/>
<path style="fill:#FFFFFF;" d="M9.401,69.693c0.001,3.991,0.006,3.993,3.875,3.995c13.959,0.004,27.918,0.006,41.876,0.009
	c0.797,0,1.593,0,2.443,0.525c-2.745,0.545-5.5,1.046-8.234,1.643c-10.063,2.195-14.575,7.564-14.625,17.813
	c-0.06,11.854,0.023,23.713,0.195,35.567c0.113,7.802,6.057,13.854,13.857,14.211c4.028,0.188,8.074-0.054,12.104,0.105
	c2.28,0.091,2.838-0.8,2.833-2.945c-0.037-15.304,0.043-30.606,0.074-45.91c0.015-6.872,0.002-13.745,0.002-20.814h37.941
	c0.017,0.097,0.035,0.193,0.052,0.291c-2.838,0.551-5.685,1.064-8.515,1.661C82.922,78.027,78.521,83.681,78.6,94.312
	c0.115,15.388,0.164,30.775,0.095,46.163c-0.011,2.449,0.681,3.116,3.098,3.094c17.741-0.171,35.488,0.05,53.218-0.374
	c11.778-0.28,21.025-7.764,24.379-18.601c3.936-12.706-3.463-25.917-16.403-29.313c-0.467-0.122-0.895-0.389-1.733-0.765
	c0.799-0.492,1.292-0.843,1.827-1.12c8.673-4.488,12.775-11.559,12.108-21.346c-0.647-9.498-5.367-16.263-14.212-19.566
	c-4.16-1.553-8.804-2.504-13.236-2.523c-36.829-0.165-73.659-0.048-110.49-0.015c-0.739,0.001-1.493,0-2.333,0L9.4,53.132
	C9.399,58.931,9.397,64.321,9.401,69.693z M107.519,73.763c5.438,0.09,10.792-0.761,16.009,0.96c3.389,1.119,5.204,3.718,4.95,6.751
	c-0.264,3.144-2.653,5.744-6.356,6.112c-4.323,0.43-8.698,0.415-13.052,0.444c-0.513,0.004-1.467-0.916-1.481-1.43
	C107.466,82.432,107.519,78.257,107.519,73.763z M107.376,107.984c0.036-0.602,0.787-1.673,1.189-1.663
	c5.679,0.135,11.402,0.048,17.011,0.793c4.08,0.542,5.964,3.413,6.059,7.188c0.107,4.405-1.764,7.876-5.858,8.504
	c-5.667,0.865-11.48,0.804-17.233,1.002c-0.372,0.015-1.09-1.116-1.127-1.744c-0.136-2.341-0.054-4.692-0.054-7.041
	c-0.015,0-0.03,0-0.042,0C107.321,112.676,107.237,110.323,107.376,107.984z"/>
<path style="fill:#FFFFFF;" d="M192.445,80.891c-0.658,0.051-1.1-0.014-1.458,0.128c-5.691,2.251-11.493,4.273-17.025,6.869
	c-6.706,3.145-9.987,8.819-10.064,16.188c-0.128,12.359-0.092,24.721-0.187,37.081c-0.011,1.702,0.68,2.156,2.263,2.12
	c3.613-0.084,7.23-0.018,10.845-0.03c9.381-0.032,15.638-6.308,15.659-15.673c0.034-14.798,0.079-29.598,0.109-44.397
	C192.588,82.456,192.499,81.735,192.445,80.891z"/>
<path style="fill:#FFFFFF;" d="M55.145,160.513h-3.812v-2.695h10.908v2.695h-3.875v11.497h-3.222V160.513z"/>
<path style="fill:#FFFFFF;" d="M63.943,158.007c0.842-0.169,2.548-0.295,4.148-0.295c1.958,0,3.159,0.189,4.19,0.8
	c0.99,0.526,1.706,1.495,1.706,2.78c0,1.263-0.737,2.442-2.337,3.032v0.042c1.622,0.442,2.822,1.663,2.822,3.495
	c0,1.284-0.59,2.296-1.474,3.012c-1.032,0.821-2.758,1.284-5.58,1.284c-1.58,0-2.758-0.105-3.475-0.211V158.007z M67.123,163.439
	h1.053c1.685,0,2.59-0.694,2.59-1.748c0-1.073-0.821-1.642-2.274-1.642c-0.695,0-1.095,0.042-1.369,0.084V163.439z M67.123,169.735
	c0.316,0.042,0.695,0.042,1.243,0.042c1.453,0,2.737-0.547,2.737-2.042c0-1.432-1.285-2.001-2.885-2.001h-1.095V169.735z"/>
<path style="fill:#FFFFFF;" d="M79.88,157.817v14.192h-3.222v-14.192H79.88z"/>
<path style="fill:#FFFFFF;" d="M85.606,157.817v4.211c0,2.274-0.042,4.527-0.168,6.423h0.084c0.737-1.663,1.685-3.538,2.527-5.054
	l3.053-5.58h3.285v14.192h-2.948v-4.19c0-2.189,0.042-4.127,0.232-5.98h-0.063c-0.652,1.685-1.558,3.559-2.4,5.054l-2.885,5.117
	h-3.664v-14.192H85.606z M87.585,154.574c0.021,0.821,0.252,1.285,0.926,1.285c0.653,0,0.905-0.464,0.99-1.285h2.148
	c-0.126,1.812-1.306,2.59-3.18,2.59c-1.853,0-2.906-0.821-3.075-2.59H87.585z"/>
<path style="fill:#FFFFFF;" d="M112.912,157.817v14.192h-3.222v-11.561h-5.032v11.561h-3.222v-14.192H112.912z"/>
<path style="fill:#FFFFFF;" d="M115.687,158.007c0.99-0.169,2.38-0.295,4.338-0.295c1.979,0,3.391,0.379,4.338,1.137
	c0.905,0.717,1.516,1.896,1.516,3.285s-0.463,2.569-1.306,3.369c-1.095,1.032-2.716,1.495-4.611,1.495
	c-0.421,0-0.8-0.021-1.095-0.063v5.075h-3.18V158.007z M118.867,164.45c0.273,0.063,0.61,0.084,1.074,0.084
	c1.705,0,2.758-0.863,2.758-2.316c0-1.305-0.905-2.084-2.505-2.084c-0.653,0-1.096,0.063-1.327,0.126V164.45z"/>
<path style="fill:#FFFFFF;" d="M140.847,164.767c0,4.653-2.821,7.475-6.97,7.475c-4.211,0-6.675-3.18-6.675-7.223
	c0-4.253,2.716-7.433,6.906-7.433C138.468,157.586,140.847,160.85,140.847,164.767z M130.592,164.956
	c0,2.779,1.306,4.737,3.453,4.737c2.169,0,3.412-2.063,3.412-4.822c0-2.548-1.222-4.737-3.433-4.737
	C131.856,160.134,130.592,162.197,130.592,164.956z"/>
<path style="fill:#FFFFFF;" d="M153.373,171.609c-0.59,0.295-1.917,0.611-3.644,0.611c-4.906,0-7.433-3.054-7.433-7.097
	c0-4.843,3.453-7.538,7.749-7.538c1.663,0,2.927,0.337,3.495,0.632l-0.652,2.548c-0.653-0.274-1.559-0.526-2.695-0.526
	c-2.548,0-4.527,1.537-4.527,4.695c0,2.843,1.685,4.633,4.548,4.633c0.969,0,2.043-0.211,2.675-0.464L153.373,171.609z"/>
<path style="fill:#FFFFFF;" d="M158.612,160.513H154.8v-2.695h10.908v2.695h-3.875v11.497h-3.222V160.513z"/>
<path style="fill:#FFFFFF;" d="M170.632,157.817v14.192h-3.222v-14.192H170.632z"/>
<path style="fill:#FFFFFF;" d="M173.41,158.007c0.99-0.169,2.38-0.295,4.338-0.295c1.979,0,3.391,0.379,4.338,1.137
	c0.905,0.717,1.516,1.896,1.516,3.285s-0.463,2.569-1.306,3.369c-1.095,1.032-2.716,1.495-4.611,1.495
	c-0.421,0-0.8-0.021-1.095-0.063v5.075h-3.18V158.007z M176.589,164.45c0.273,0.063,0.61,0.084,1.074,0.084
	c1.705,0,2.758-0.863,2.758-2.316c0-1.305-0.905-2.084-2.505-2.084c-0.653,0-1.096,0.063-1.327,0.126V164.45z"/>
<path style="fill:#FFFFFF;" d="M81.25,196.871c-0.589,0.295-1.916,0.611-3.643,0.611c-4.906,0-7.433-3.054-7.433-7.097
	c0-4.843,3.454-7.538,7.749-7.538c1.664,0,2.927,0.337,3.496,0.632l-0.653,2.548c-0.653-0.274-1.558-0.526-2.695-0.526
	c-2.548,0-4.527,1.537-4.527,4.695c0,2.843,1.685,4.633,4.548,4.633c0.969,0,2.043-0.211,2.674-0.464L81.25,196.871z"/>
<path style="fill:#FFFFFF;" d="M83.352,183.269c0.842-0.169,2.548-0.295,4.148-0.295c1.958,0,3.159,0.189,4.19,0.8
	c0.99,0.526,1.706,1.495,1.706,2.78c0,1.263-0.737,2.442-2.337,3.032v0.042c1.622,0.442,2.822,1.663,2.822,3.495
	c0,1.284-0.59,2.296-1.474,3.012c-1.032,0.821-2.758,1.284-5.58,1.284c-1.579,0-2.759-0.105-3.475-0.211V183.269z M86.532,188.701
	h1.053c1.685,0,2.59-0.694,2.59-1.748c0-1.073-0.821-1.642-2.274-1.642c-0.695,0-1.095,0.042-1.369,0.084V188.701z M86.532,194.997
	c0.316,0.042,0.695,0.042,1.242,0.042c1.453,0,2.738-0.547,2.738-2.042c0-1.432-1.285-2.001-2.885-2.001h-1.095V194.997z"/>
<path style="fill:#FFFFFF;" d="M108.975,190.028c0,4.653-2.821,7.475-6.97,7.475c-4.211,0-6.675-3.18-6.675-7.223
	c0-4.253,2.716-7.433,6.907-7.433C106.596,182.848,108.975,186.111,108.975,190.028z M98.72,190.218
	c0,2.779,1.306,4.737,3.454,4.737c2.168,0,3.411-2.063,3.411-4.822c0-2.548-1.222-4.737-3.433-4.737
	C99.984,185.396,98.72,187.459,98.72,190.218z"/>
<path style="fill:#FFFFFF;" d="M120.51,183.079v2.611h-6.232v2.442c0.484-0.063,1.158-0.105,1.727-0.105
	c1.432,0,2.927,0.358,4.001,1.158c0.989,0.716,1.642,1.832,1.642,3.391c0,1.39-0.526,2.463-1.348,3.2
	c-1.368,1.222-3.601,1.643-5.77,1.643c-1.579,0-2.737-0.105-3.453-0.211v-14.129H120.51z M114.256,194.935
	c0.358,0.063,0.8,0.084,1.242,0.084c0.779,0,1.559-0.253,2.085-0.737c0.421-0.379,0.694-0.947,0.694-1.643
	c0-0.716-0.294-1.242-0.758-1.601c-0.568-0.441-1.368-0.631-2.127-0.631c-0.357,0-0.736,0.021-1.137,0.084V194.935z"/>
<path style="fill:#FFFFFF;" d="M136.637,190.028c0,4.653-2.821,7.475-6.97,7.475c-4.212,0-6.675-3.18-6.675-7.223
	c0-4.253,2.716-7.433,6.906-7.433C134.258,182.848,136.637,186.111,136.637,190.028z M126.382,190.218
	c0,2.779,1.306,4.737,3.454,4.737c2.168,0,3.411-2.063,3.411-4.822c0-2.548-1.222-4.737-3.433-4.737
	C127.646,185.396,126.382,187.459,126.382,190.218z"/>
<path style="fill:#FFFFFF;" d="M149.478,183.079v11.666l1.411,0.084l-0.147,6.043h-2.442l-0.169-3.601h-8.297l-0.168,3.601h-2.442
	l-0.127-6.043l1.18-0.084c0.568-1.012,1.031-2.043,1.348-3.159c0.4-1.432,0.568-2.969,0.568-4.717v-3.79H149.478z M143.161,187.585
	c0,1.643-0.21,3.243-0.632,4.675c-0.252,0.863-0.61,1.727-0.989,2.4h4.717v-8.97h-3.096V187.585z"/>
<path style="fill:#FFFFFF;" d="M155.644,183.079v4.211c0,2.274-0.042,4.527-0.169,6.423h0.085c0.736-1.663,1.685-3.538,2.526-5.054
	l3.054-5.58h3.284v14.192h-2.947v-4.19c0-2.189,0.042-4.127,0.231-5.98h-0.063c-0.652,1.685-1.558,3.559-2.4,5.054l-2.885,5.117
	h-3.664v-14.192H155.644z"/>
</svg>
