<?xml version="1.0" encoding="utf-8"?>
<!-- Generator: Adobe Illustrator 16.0.0, SVG Export Plug-In . SVG Version: 6.00 Build 0)  -->
<!DOCTYPE svg PUBLIC "-//W3C//DTD SVG 1.1//EN" "http://www.w3.org/Graphics/SVG/1.1/DTD/svg11.dtd" [
	<!ENTITY ns_flows "http://ns.adobe.com/Flows/1.0/">
	<!ENTITY ns_extend "http://ns.adobe.com/Extensibility/1.0/">
	<!ENTITY ns_ai "http://ns.adobe.com/AdobeIllustrator/10.0/">
	<!ENTITY ns_graphs "http://ns.adobe.com/Graphs/1.0/">
]>
<svg version="1.1" id="Layer_1" xmlns:x="&ns_extend;" xmlns:i="&ns_ai;" xmlns:graph="&ns_graphs;"
	 xmlns="http://www.w3.org/2000/svg" xmlns:xlink="http://www.w3.org/1999/xlink" xmlns:a="http://ns.adobe.com/AdobeSVGViewerExtensions/3.0/"
	 x="0px" y="0px" width="416.916px" height="146.957px" viewBox="0 0 416.916 146.957"
	 style="enable-background:new 0 0 416.916 146.957;" xml:space="preserve">
<path style="fill:#FFFFFF;" d="M0,145.285V52.373h48.983c4.466,0,8.373,0.65,11.723,1.95c3.349,1.302,6.14,3.043,8.373,5.224
	c2.233,2.184,3.907,4.715,5.023,7.592c1.117,2.879,1.676,5.852,1.676,8.914c0,2.974-0.422,5.666-1.264,8.081
	c-0.843,2.416-2.011,4.527-3.509,6.338c-1.497,1.812-3.204,3.298-5.121,4.456c-1.92,1.164-4.001,1.976-6.247,2.438
	c2.525,0.373,4.862,1.231,7.013,2.577c2.15,1.348,4.042,3.019,5.678,5.015c1.637,1.998,2.921,4.318,3.857,6.965
	c0.936,2.647,1.404,5.411,1.404,8.288c0,3.531-0.583,6.804-1.745,9.821c-1.163,3.018-2.884,5.666-5.163,7.939
	c-2.281,2.277-5.096,4.063-8.443,5.363c-3.35,1.302-7.257,1.95-11.721,1.95H0z M44.576,89.565c3.342,0,5.989-0.928,7.939-2.786
	c1.95-1.856,2.925-4.27,2.925-7.242s-0.975-5.41-2.925-7.314c-1.95-1.901-4.597-2.854-7.939-2.854H19.78v20.197H44.576z
	 M45.272,128.151c3.806,0,6.756-0.95,8.845-2.855c2.09-1.902,3.134-4.527,3.134-7.871c0-2.97-1.023-5.523-3.064-7.661
	c-2.044-2.135-5.015-3.203-8.915-3.203H19.78v21.591H45.272z"/>
<polygon style="fill:#FFFFFF;" points="206.438,145.285 206.438,106.281 162.559,106.281 162.559,145.285 142.779,145.285 
	142.779,52.373 162.559,52.373 162.559,88.87 206.438,88.87 206.438,52.373 226.219,52.373 226.219,145.285 "/>
<path style="fill:#FFFFFF;" d="M286.604,146.957c-7.07,0-13.234-0.953-18.488-2.855c-5.256-1.902-9.629-4.55-13.116-7.94
	c-3.488-3.388-6.094-7.452-7.813-12.189c-1.722-4.735-2.581-9.98-2.581-15.74V52.373h20.059v55.162
	c0,6.502,1.833,11.771,5.502,15.81c3.667,4.04,9.125,6.061,16.368,6.061c7.244,0,12.676-2.021,16.298-6.061
	c3.622-4.039,5.434-9.308,5.434-15.81V52.373h20.338v55.719c0,5.76-0.862,11.029-2.582,15.812
	c-1.723,4.784-4.327,8.893-7.814,12.328c-3.489,3.437-7.861,6.084-13.116,7.939C299.834,146.027,293.672,146.957,286.604,146.957"/>
<path style="fill:#FFFFFF;" d="M379.724,146.957c-9.009,0-16.717-1.357-23.125-4.073c-6.407-2.714-11.794-6.317-16.158-10.812
	l10.726-15.065c3.251,3.438,7.383,6.387,12.398,8.847c5.015,2.462,10.726,3.69,17.134,3.69c5.478,0,9.542-1.042,12.188-3.127
	s3.971-4.473,3.971-7.163c0-2.686-1.324-4.75-3.971-6.186c-2.646-1.438-5.944-2.666-9.891-3.686
	c-3.948-1.018-8.243-2.085-12.885-3.198c-4.646-1.113-8.938-2.689-12.885-4.729c-3.948-2.04-7.244-4.797-9.891-8.272
	c-2.646-3.477-3.97-8.135-3.97-13.977c0-3.891,0.816-7.529,2.453-10.914c1.637-3.383,3.974-6.373,7.013-8.971
	c3.038-2.594,6.749-4.633,11.128-6.117c4.379-1.482,9.308-2.225,14.788-2.225c14.766,0,26.837,4.353,36.218,13.06l-11.005,14.522
	c-3.809-3.529-8.079-6.106-12.814-7.733c-4.737-1.622-9.474-2.437-14.209-2.437c-4.272,0-7.548,0.857-9.821,2.572
	c-2.276,1.715-3.413,3.963-3.413,6.742c0,2.413,1.319,4.288,3.96,5.633c2.638,1.346,5.926,2.503,9.863,3.478
	c3.935,0.975,8.197,2.041,12.784,3.198c4.584,1.158,8.845,2.782,12.781,4.867c3.936,2.085,7.226,4.891,9.864,8.412
	c2.638,3.522,3.96,8.158,3.96,13.904c0,4.266-0.766,8.206-2.298,11.821c-1.533,3.614-3.831,6.741-6.896,9.386
	c-3.063,2.642-6.942,4.729-11.631,6.257C391.4,146.191,385.944,146.957,379.724,146.957"/>
<rect x="87.789" y="136.384" style="fill:#D02026;" width="42.243" height="8.994"/>
<polygon style="fill:#D02026;" points="130.032,98.892 102.482,119.031 130.032,119.031 130.032,128.025 87.789,128.025 
	87.789,118.778 114.325,99.207 87.789,99.207 87.789,90.216 130.032,90.216 "/>
<polygon style="fill:#D02026;" points="130.032,81.856 87.789,81.856 87.789,51.961 95.706,51.961 95.706,72.863 104.636,72.863 
	104.636,52.406 112.552,52.406 112.552,72.863 130.032,72.863 "/>
<path style="fill:#FFFFFF;" d="M129.146,13.238c-1.077-2.701-2.586-5.035-4.528-7c-1.942-1.963-4.253-3.492-6.935-4.591
	C115.001,0.551,112.077,0,108.91,0c-3.166,0-6.09,0.551-8.772,1.647c-2.68,1.099-4.991,2.628-6.934,4.591
	c-1.942,1.965-3.452,4.299-4.528,7c-1.077,2.701-1.615,5.658-1.615,8.865c0,3.167,0.538,6.102,1.615,8.805
	c1.076,2.703,2.586,5.034,4.528,6.998c1.943,1.963,4.254,3.493,6.934,4.59c2.682,1.1,5.606,1.647,8.772,1.647
	c3.167,0,6.091-0.548,8.772-1.647c2.682-1.097,4.993-2.627,6.935-4.59c1.942-1.964,3.451-4.295,4.528-6.998
	c1.076-2.703,1.615-5.638,1.615-8.805C130.76,18.896,130.221,15.939,129.146,13.238 M120.043,15.639v12.867v0.023l-11.164,6.446
	l-11.165-6.446v-0.023V15.639v-0.023l11.165-6.447l11.164,6.447V15.639z"/>
</svg>
