<?xml version="1.0" encoding="utf-8"?>
<!-- Generator: Adobe Illustrator 16.0.0, SVG Export Plug-In . SVG Version: 6.00 Build 0)  -->
<!DOCTYPE svg PUBLIC "-//W3C//DTD SVG 1.1//EN" "http://www.w3.org/Graphics/SVG/1.1/DTD/svg11.dtd" [
	<!ENTITY ns_flows "http://ns.adobe.com/Flows/1.0/">
	<!ENTITY ns_extend "http://ns.adobe.com/Extensibility/1.0/">
	<!ENTITY ns_ai "http://ns.adobe.com/AdobeIllustrator/10.0/">
	<!ENTITY ns_graphs "http://ns.adobe.com/Graphs/1.0/">
]>
<svg version="1.1" id="Layer_1" xmlns:x="&ns_extend;" xmlns:i="&ns_ai;" xmlns:graph="&ns_graphs;"
	 xmlns="http://www.w3.org/2000/svg" xmlns:xlink="http://www.w3.org/1999/xlink" xmlns:a="http://ns.adobe.com/AdobeSVGViewerExtensions/3.0/"
	 x="0px" y="0px" width="212px" height="245.333px" viewBox="0 0 212 245.333" style="enable-background:new 0 0 212 245.333;"
	 xml:space="preserve">
<polygon style="fill:none;stroke:#D02026;stroke-width:10;stroke-miterlimit:10;" points="106.211,6.54 5.855,64.47 5.855,64.689 
	5.845,180.345 5.845,180.563 106.189,238.509 206.545,180.579 206.545,180.36 206.555,64.705 206.555,64.486 "/>
<rect x="5.954" y="88.79" style="fill:#FFFFFF;" width="199.876" height="80.25"/>
<path style="fill:#262E33;" d="M23.805,141.948c1.111-1.012,1.667-2.407,1.667-4.186c0-1.58-0.544-2.938-1.63-4.075
	c-1.087-1.135-2.667-1.704-4.741-1.704H5.953v11.483h13.148C21.125,143.467,22.694,142.962,23.805,141.948"/>
<path style="fill:#262E33;" d="M195.497,111.685c-2.272,0-4.014,0.456-5.223,1.368c-1.211,0.912-1.816,2.108-1.816,3.586
	c0,1.283,0.702,2.281,2.106,2.996c1.402,0.715,3.151,1.331,5.247,1.849c2.092,0.519,4.358,1.085,6.798,1.701
	c1.11,0.281,2.181,0.62,3.22,1.003v-9.966c-0.892-0.48-1.81-0.909-2.775-1.241C200.535,112.117,198.015,111.685,195.497,111.685"/>
<path style="fill:#262E33;" d="M22.953,121.463c1.037-0.987,1.556-2.271,1.556-3.852s-0.519-2.877-1.556-3.89
	c-1.037-1.012-2.445-1.518-4.223-1.518H5.953v10.742h12.777C20.508,122.945,21.916,122.453,22.953,121.463"/>
<path style="fill:#262E33;" d="M105.891,7.624l-99.938,57.7v0.218v37.623h15.122c2.375,0,4.453,0.345,6.234,1.037
	c1.782,0.692,3.266,1.618,4.454,2.778c1.187,1.161,2.078,2.508,2.671,4.038c0.594,1.531,0.892,3.112,0.892,4.741
	c0,1.581-0.225,3.013-0.673,4.298c-0.448,1.284-1.069,2.407-1.866,3.37c-0.796,0.964-1.704,1.754-2.724,2.371
	c-1.021,0.618-2.127,1.05-3.322,1.296c1.343,0.199,2.586,0.656,3.73,1.371c1.143,0.717,2.149,1.604,3.02,2.667
	c0.87,1.063,1.553,2.297,2.051,3.705c0.498,1.406,0.747,2.877,0.747,4.406c0,1.879-0.311,3.619-0.928,5.225
	c-0.619,1.604-1.534,3.013-2.746,4.223c-1.214,1.211-2.71,2.161-4.491,2.853c-1.781,0.691-3.859,1.037-6.233,1.037H5.953v28.143
	v0.218l99.937,57.7l99.94-57.7v-0.218v-28.528c-0.051,0.018-0.095,0.038-0.146,0.055c-2.494,0.813-5.396,1.22-8.705,1.22
	c-4.791,0-8.891-0.722-12.299-2.166s-6.271-3.36-8.594-5.751l5.705-8.012c1.729,1.828,3.926,3.396,6.594,4.704
	c2.667,1.31,5.704,1.964,9.113,1.964c2.913,0,5.074-0.555,6.481-1.663c0.94-0.741,1.537-1.561,1.851-2.444v-2.665
	c-0.313-0.808-0.91-1.479-1.851-1.991c-1.407-0.764-3.161-1.418-5.26-1.96c-2.1-0.541-4.384-1.108-6.853-1.701
	c-2.472-0.592-4.754-1.43-6.854-2.515c-2.1-1.084-3.853-2.551-5.26-4.399c-1.408-1.849-2.111-4.327-2.111-7.434
	c0-2.069,0.434-4.004,1.305-5.804c0.871-1.8,2.112-3.39,3.729-4.771c1.615-1.38,3.589-2.465,5.918-3.254
	c2.329-0.788,4.95-1.183,7.865-1.183c3.396,0,6.509,0.46,9.37,1.326V65.542v-0.218L105.891,7.624z M115.337,152.58h-10.521v-20.744
	H81.479v20.744h-10.52v-49.416h10.52v19.41h23.337v-19.41h10.521V152.58z M169.79,132.799c0,3.063-0.459,5.865-1.373,8.409
	c-0.916,2.544-2.302,4.729-4.156,6.557c-1.855,1.827-4.181,3.235-6.976,4.222c-2.795,0.988-6.072,1.482-9.832,1.482
	s-7.038-0.507-9.833-1.52c-2.795-1.011-5.121-2.419-6.977-4.223c-1.854-1.802-3.239-3.963-4.154-6.482
	c-0.916-2.519-1.373-5.309-1.373-8.371v-29.708h10.668v29.338c0,3.458,0.975,6.26,2.926,8.407c1.951,2.149,4.854,3.224,8.706,3.224
	c3.852,0,6.741-1.074,8.668-3.224c1.926-2.147,2.889-4.949,2.889-8.407v-29.338h10.817V132.799z"/>
<rect x="41.712" y="147.845" style="fill:#D02026;" width="22.467" height="4.784"/>
<polygon style="fill:#D02026;" points="64.18,127.905 49.528,138.616 64.18,138.616 64.18,143.4 41.713,143.4 41.713,138.482 
	55.826,128.073 41.713,128.073 41.713,123.29 64.18,123.29 "/>
<polygon style="fill:#D02026;" points="64.18,118.845 41.713,118.845 41.713,102.946 45.924,102.946 45.924,114.061 50.673,114.061 
	50.673,103.182 54.883,103.182 54.883,114.061 64.18,114.061 "/>
<path style="fill:#FFFFFF;" d="M63.708,82.35c-0.573-1.436-1.375-2.677-2.408-3.722c-1.033-1.044-2.262-1.858-3.689-2.442
	c-1.426-0.584-2.981-0.876-4.665-0.876s-3.239,0.292-4.665,0.876c-1.426,0.584-2.655,1.398-3.688,2.442
	c-1.033,1.045-1.836,2.286-2.409,3.722c-0.572,1.437-0.859,3.01-0.859,4.715c0,1.685,0.287,3.246,0.859,4.683
	c0.573,1.437,1.376,2.678,2.409,3.722c1.033,1.044,2.262,1.858,3.688,2.441c1.426,0.585,2.981,0.876,4.665,0.876
	s3.239-0.291,4.665-0.876c1.427-0.583,2.656-1.397,3.689-2.441c1.033-1.044,1.835-2.285,2.408-3.722
	c0.572-1.437,0.859-2.998,0.859-4.683C64.567,85.36,64.28,83.787,63.708,82.35 M58.867,83.627v6.843v0.013l-5.938,3.429
	l-5.937-3.429V90.47v-6.843v-0.013l5.937-3.428l5.938,3.428V83.627z"/>
</svg>
