<?xml version="1.0" encoding="utf-8"?>
<!-- Generator: Adobe Illustrator 16.0.0, SVG Export Plug-In . SVG Version: 6.00 Build 0)  -->
<!DOCTYPE svg PUBLIC "-//W3C//DTD SVG 1.1//EN" "http://www.w3.org/Graphics/SVG/1.1/DTD/svg11.dtd" [
	<!ENTITY ns_flows "http://ns.adobe.com/Flows/1.0/">
	<!ENTITY ns_extend "http://ns.adobe.com/Extensibility/1.0/">
	<!ENTITY ns_ai "http://ns.adobe.com/AdobeIllustrator/10.0/">
	<!ENTITY ns_graphs "http://ns.adobe.com/Graphs/1.0/">
]>
<svg version="1.1" id="Layer_1" xmlns:x="&ns_extend;" xmlns:i="&ns_ai;" xmlns:graph="&ns_graphs;"
	 xmlns="http://www.w3.org/2000/svg" xmlns:xlink="http://www.w3.org/1999/xlink" xmlns:a="http://ns.adobe.com/AdobeSVGViewerExtensions/3.0/"
	 x="0px" y="0px" width="201.713px" height="232.789px" viewBox="0 0 201.713 232.789"
	 style="enable-background:new 0 0 201.713 232.789;" xml:space="preserve">
<g>
	<path style="fill:#66BD78;" d="M98.449,49.098c-0.989,0.117-1.799,0.279-2.413,0.48c-0.614,0.198-1.057,0.46-1.313,0.778
		c-0.256,0.313-0.388,0.677-0.388,1.071v7.778c-3.052,0.915-5.738,2.253-8.001,4.052c-2.323,1.851-4.174,4.175-5.545,6.981
		c-1.369,2.802-2.056,6.048-2.056,9.745c0,3.218,0.473,5.985,1.433,8.291c0.955,2.305,2.195,4.299,3.725,5.987
		c1.526,1.694,3.27,3.141,5.214,4.356c1.952,1.211,3.96,2.292,6.023,3.251c2.072,0.948,4.075,1.86,6.028,2.709
		c1.942,0.855,3.687,1.765,5.218,2.743c1.524,0.978,2.771,2.086,3.726,3.344c0.946,1.249,1.428,2.754,1.428,4.5
		c0,1.509-0.277,2.875-0.836,4.113c-0.555,1.234-1.364,2.265-2.417,3.1c-1.054,0.836-2.327,1.479-3.842,1.935
		c-1.508,0.461-3.222,0.689-5.132,0.689c-2.903,0-5.456-0.332-7.655-0.987c-2.209-0.654-4.11-1.381-5.696-2.174
		c-1.59-0.797-2.894-1.522-3.909-2.178c-1.01-0.654-1.794-0.981-2.353-0.981c-0.396,0-0.745,0.109-1.044,0.327
		c-0.295,0.219-0.537,0.587-0.712,1.105c-0.179,0.512-0.307,1.191-0.392,2.025c-0.077,0.835-0.116,1.865-0.116,3.099
		c0,1.826,0.107,3.231,0.329,4.205c0.217,0.973,0.584,1.719,1.1,2.238c0.515,0.518,1.36,1.11,2.537,1.786
		c1.167,0.678,2.625,1.323,4.382,1.939c1.751,0.618,3.764,1.145,6.048,1.579c0.806,0.153,1.667,0.243,2.515,0.344v7.34
		c0,0.398,0.132,0.755,0.388,1.077c0.256,0.313,0.69,0.573,1.284,0.769c0.592,0.203,1.397,0.361,2.408,0.48
		c1.014,0.121,2.285,0.179,3.79,0.179c1.551,0,2.821-0.058,3.813-0.179c0.994-0.119,1.791-0.277,2.384-0.48
		c0.597-0.195,1.023-0.455,1.283-0.769c0.255-0.322,0.393-0.679,0.393-1.077v-8.513c0.081-0.02,0.179-0.038,0.256-0.065
		c3.457-1.036,6.479-2.573,9.067-4.616c2.578-2.051,4.629-4.604,6.138-7.67c1.514-3.056,2.264-6.614,2.264-10.667
		c0-3.103-0.473-5.798-1.424-8.081c-0.959-2.287-2.212-4.275-3.764-5.964c-1.549-1.69-3.316-3.137-5.304-4.352
		c-1.981-1.215-4.016-2.295-6.079-3.25c-2.067-0.953-4.096-1.861-6.087-2.709c-1.985-0.859-3.765-1.769-5.332-2.743
		c-1.574-0.977-2.823-2.093-3.755-3.34c-0.934-1.254-1.403-2.732-1.403-4.442c0-1.153,0.209-2.245,0.627-3.283
		c0.413-1.031,1.053-1.914,1.905-2.653c0.853-0.735,1.915-1.316,3.189-1.727c1.27-0.418,2.762-0.626,4.476-0.626
		c2.188,0,4.19,0.271,6.02,0.805c1.829,0.537,3.436,1.134,4.829,1.791c1.394,0.654,2.563,1.261,3.518,1.815
		c0.954,0.557,1.654,0.836,2.088,0.836c0.436,0,0.781-0.119,1.044-0.356c0.256-0.236,0.457-0.616,0.599-1.134
		c0.136-0.517,0.237-1.172,0.293-1.969c0.063-0.793,0.094-1.765,0.094-2.922c0-1.036-0.021-1.895-0.064-2.592
		c-0.038-0.697-0.105-1.27-0.204-1.727c-0.105-0.456-0.222-0.827-0.354-1.106c-0.149-0.275-0.414-0.615-0.814-1.014
		c-0.393-0.394-1.215-0.893-2.438-1.486c-1.241-0.603-2.647-1.138-4.238-1.614c-1.59-0.475-3.299-0.854-5.123-1.137h-0.021v-6.73
		c0-0.394-0.138-0.758-0.393-1.071c-0.26-0.318-0.687-0.58-1.283-0.778c-0.593-0.201-1.39-0.363-2.384-0.48
		c-0.992-0.115-2.263-0.177-3.813-0.177C100.7,48.921,99.446,48.983,98.449,49.098"/>
</g>
<g>
	<path style="fill:#66BD78;" d="M78.682,174.504c-7.221-12.8-15.589-24.625-23.339-37.044c-2.579-4.142-4.813-8.521-7.297-12.831
		c-4.963-8.598-8.996-18.571-8.736-31.515c0.252-12.642,3.905-22.786,9.178-31.072c8.671-13.641,23.199-24.823,42.688-27.764
		c15.939-2.399,30.877,1.656,41.47,7.854c8.661,5.063,15.367,11.83,20.461,19.797c5.32,8.317,8.982,18.145,9.293,30.965
		c0.153,6.563-0.921,12.651-2.434,17.699c-1.531,5.105-4.003,9.373-6.194,13.927c-4.279,8.897-9.65,17.059-15.034,25.223
		c-16.055,24.298-31.119,49.081-37.723,83.046C96.463,210.406,88.419,191.773,78.682,174.504 M0,58.23v0.22v116.239v0.219
		l100.855,58.231l100.857-58.231v-0.219V58.45v-0.22L100.857,0L0,58.23z"/>
</g>
</svg>
