<?xml version="1.0" encoding="utf-8"?>
<!-- Generator: Adobe Illustrator 16.0.0, SVG Export Plug-In . SVG Version: 6.00 Build 0)  -->
<!DOCTYPE svg PUBLIC "-//W3C//DTD SVG 1.1//EN" "http://www.w3.org/Graphics/SVG/1.1/DTD/svg11.dtd">
<svg version="1.1" id="Layer_1" xmlns="http://www.w3.org/2000/svg" xmlns:xlink="http://www.w3.org/1999/xlink" x="0px" y="0px"
	 width="120.773px" height="98.941px" viewBox="0 0 120.773 98.941" enable-background="new 0 0 120.773 98.941"
	 xml:space="preserve">
<circle fill-rule="evenodd" clip-rule="evenodd" fill="#9D9D9D" cx="76.903" cy="4.611" r="4.611"/>
<circle fill-rule="evenodd" clip-rule="evenodd" fill="#9D9D9D" cx="4.611" cy="45.912" r="4.611"/>
<circle fill-rule="evenodd" clip-rule="evenodd" fill="#9D9D9D" cx="103.034" cy="60.496" r="4.611"/>
<path fill="#9D9D9D" d="M120.768,52.092c0.196-7.326-5.234-14.357-15.309-19.913c3.939-10.944,3.364-19.894-1.68-25.281
	c-3.131-3.345-7.894-5.112-13.774-5.112c-9.789,0-21.935,4.69-33.863,12.741c-8.12-4.007-15.801-6.138-22.252-6.138
	c-5.804,0-10.345,1.668-13.495,4.959c-4.042,4.219-5.306,10.705-3.767,18.675C8.764,36.742,4.394,42.646,4.224,48.955
	c-0.169,6.266,3.775,12.316,11.22,17.412c-2.103,8.635-1.013,15.681,3.229,20.211c3.131,3.345,7.894,5.112,13.775,5.112
	c6.96,0,15.113-2.368,23.53-6.627c4.001,2.837,8.07,5.329,12.115,7.378c8.4,4.252,16.356,6.5,23.01,6.5
	c5.804,0,10.345-1.668,13.495-4.957c4.93-5.149,5.737-13.666,2.348-24.145C115.701,64.995,120.588,58.77,120.768,52.092z
	 M103.207,7.435c4.815,5.144,5.346,13.766,1.556,24.366c-0.211-0.113-0.411-0.229-0.626-0.34
	c-9.438-4.887-21.661-8.035-34.906-9.044c-4.052-2.888-8.177-5.418-12.276-7.497C68.627,7.109,80.464,2.571,90.005,2.571
	C95.744,2.571,100.186,4.207,103.207,7.435z M80.117,66.916c-4.545,4.255-9.294,8.027-14.076,11.271
	c-0.345,0.003-0.688,0.012-1.034,0.012c-1.077,0-2.172-0.015-3.255-0.044c-5.116-0.138-10.116-0.599-14.913-1.35
	c-1.164-1.031-2.32-2.084-3.46-3.176c-8.113-7.77-14.792-16.311-19.456-24.762c4.564-7.49,10.789-15.169,18.413-22.307
	c1.019-0.954,2.048-1.882,3.085-2.788c4.682-0.604,9.567-0.923,14.566-0.923c1.076,0,2.172,0.014,3.254,0.043
	c1.938,0.052,3.852,0.151,5.738,0.293c4.296,3.083,8.55,6.604,12.636,10.517c5.307,5.082,9.913,10.425,13.743,15.772
	C91.155,55.483,86.005,61.403,80.117,66.916z M95.841,50.153c4.652,6.61,8.102,13.208,10.158,19.313
	c-0.712,0.381-1.441,0.757-2.203,1.12c-9.724,4.636-22.552,7.302-36.345,7.584c4.489-3.114,8.937-6.688,13.202-10.681
	C86.505,62.01,91.636,56.128,95.841,50.153z M64.876,78.981c-2.955,1.947-5.917,3.671-8.848,5.174
	c-2.721-1.952-5.421-4.091-8.076-6.386c4.451,0.645,9.067,1.043,13.778,1.17C62.777,78.968,63.834,78.98,64.876,78.981z
	 M45.404,76.574c-9.083-1.545-17.374-4.156-24.189-7.685c-1.766-0.915-3.384-1.875-4.876-2.87
	c1.311-5.119,3.725-10.688,7.114-16.383c4.692,8.394,11.338,16.856,19.382,24.56C43.681,75.005,44.541,75.793,45.404,76.574z
	 M23.481,48.072c-1.543-2.873-2.851-5.733-3.897-8.544c-0.925-2.487-1.608-4.862-2.077-7.123c1.156-0.673,2.384-1.323,3.688-1.944
	c6.457-3.078,14.283-5.288,22.851-6.509c-0.752,0.67-1.505,1.34-2.248,2.035C34.401,32.914,28.154,40.482,23.481,48.072z
	 M46.523,22.839c3.183-2.713,6.433-5.195,9.704-7.423c3.804,1.908,7.667,4.227,11.51,6.902c-1.482-0.094-2.973-0.17-4.477-0.211
	c-1.089-0.029-2.19-0.043-3.274-0.043C55.382,22.064,50.87,22.329,46.523,22.839z M82.157,33.135
	c-3.744-3.586-7.677-6.875-11.689-9.821c13.368,1.173,25.251,4.526,34.025,9.228c-0.067,0.183-0.127,0.361-0.197,0.544
	c-1.983,5.151-4.858,10.453-8.458,15.697C91.956,43.399,87.35,38.108,82.157,33.135z M20.961,13.891
	c2.997-3.13,7.346-4.717,12.928-4.717c6.397,0,13.821,2.09,21.528,5.848c-3.488,2.396-6.952,5.065-10.329,8.003
	c-9.096,1.194-17.417,3.479-24.231,6.727c-1.239,0.591-2.409,1.208-3.519,1.848C15.928,24.015,17.147,17.873,20.961,13.891z
	 M5.008,48.977c0.161-5.968,4.313-11.589,11.788-16.138c0.476,2.218,1.15,4.539,2.051,6.962c1.106,2.975,2.507,6.001,4.162,9.04
	c-2.274,3.781-4.159,7.563-5.585,11.268c-0.724,1.88-1.303,3.697-1.767,5.457C8.588,60.662,4.849,54.903,5.008,48.977z
	 M32.447,90.905c-5.739,0-10.18-1.636-13.202-4.863c-4.116-4.396-4.977-11.226-3.098-19.211c1.451,0.954,3.011,1.877,4.708,2.755
	c7.189,3.722,16,6.43,25.642,7.958c2.85,2.513,5.777,4.867,8.753,7.014C47.081,88.64,39.189,90.905,32.447,90.905z M104.03,93.441
	c-2.996,3.129-7.346,4.715-12.928,4.715c-9.91,0-22.273-4.981-34.354-13.499c3.162-1.64,6.354-3.543,9.534-5.688
	c14.351-0.152,27.753-2.858,37.853-7.674c0.728-0.347,1.428-0.704,2.11-1.067C109.36,79.966,108.88,88.377,104.03,93.441z
	 M106.688,69.085c-0.175-0.516-0.349-1.031-0.544-1.556c-2.203-5.921-5.555-12.047-9.822-18.07
	c3.711-5.372,6.673-10.809,8.706-16.091c0.059-0.152,0.106-0.3,0.163-0.451c9.353,5.184,14.986,11.926,14.792,19.153
	C119.811,58.428,115.113,64.393,106.688,69.085z"/>
<path fill-rule="evenodd" clip-rule="evenodd" fill="#9D9D9D" d="M78.878,33.766c-0.444,3.955-0.853,7.627-1.271,11.3
	c-0.079,0.698-0.202,1.347,0.095,2.073c2.723,6.679,1.075,12.547-4.753,17.104c-8.54,6.681-22.847,6.304-31.051-0.784
	c-4.612-3.984-6.724-10.16-4.017-15.904c0.346-0.734,0.287-1.49,0.203-2.25c-0.368-3.365-1.389-11.793-1.389-11.793
	s7.096,3.252,9.858,4.547c0.934,0.438,1.706,0.359,2.646,0.043c5.832-1.962,11.69-1.932,17.515,0.034
	c0.838,0.282,1.487,0.324,2.316-0.058C72.188,36.631,75.392,35.283,78.878,33.766z M71.489,60.793c-0.846,0-1.444,0.012-2.044-0.004
	c-0.617-0.016-1.341,0.215-1.344-0.883c-0.001-1.121,0.706-1.027,1.429-1.025c1.092,0.002,2.184-0.007,3.275,0
	c0.825,0.006,1.247-0.533,1.281-1.215c0.048-0.917-0.77-0.531-1.209-0.553c-1.145-0.055-2.293-0.012-3.44-0.003
	c-0.659,0.005-1.337,0.118-1.358-0.907c-0.021-0.986,0.563-1.001,1.281-0.982c0.928,0.026,1.856-0.008,2.785-0.013
	c3.429-0.02,3.782-0.442,3.227-3.87c-0.017-0.107-0.012-0.229-0.062-0.32c-1.251-2.361-0.926-4.832-0.532-7.316
	c0.179-1.132,0.239-2.282,0.422-3.413c0.194-1.21-0.179-1.328-1.211-0.835c-1.622,0.774-3.312,1.407-4.951,2.148
	c-0.794,0.359-1.492,0.385-2.326,0.031c-5.182-2.199-10.542-2.586-15.803-0.619c-2.418,0.904-4.364,0.727-6.436-0.479
	c-0.279-0.163-2.926-1.751-3.554-1.255c-0.739,0.584-0.035,1.92,0.034,2.93c0.176,2.617,1.129,5.21-0.187,7.855
	c-0.593,1.194-0.56,2.654-0.369,4.034c0.106,0.772,0.408,1.138,1.27,1.101c1.472-0.064,2.949,0.02,4.423,0.002
	c0.741-0.008,1.276,0.068,1.248,1.035c-0.027,0.918-0.593,0.881-1.222,0.879c-1.517-0.009-3.035-0.003-4.601-0.003
	c0.617,1.747,0.617,1.756,2.142,1.784c0.873,0.018,1.748,0.025,2.62-0.014c0.766-0.033,1.064,0.269,1.071,1.047
	c0.007,0.789-0.397,0.868-1.027,0.873c-0.621,0.004-1.281-0.183-1.893,0.185C50.509,67.439,65.675,67.419,71.489,60.793z"/>
<path fill="#9D9D9D" d="M68.216,49.189l-1.494-1.486l1.486-1.494c0.152-0.154,0.152-0.402-0.001-0.556l-0.396-0.396
	c-0.073-0.072-0.173-0.113-0.277-0.113s-0.204,0.041-0.278,0.115l-1.487,1.494l-1.494-1.486c-0.153-0.154-0.402-0.152-0.555,0
	l-0.395,0.396c-0.074,0.074-0.115,0.174-0.115,0.278c0.001,0.104,0.042,0.204,0.116,0.277l1.495,1.487l-1.487,1.494
	c-0.153,0.154-0.153,0.402,0.001,0.556l0.396,0.395c0.073,0.073,0.173,0.114,0.277,0.114c0,0,0,0,0.001,0
	c0.104,0,0.203-0.041,0.277-0.115l1.487-1.494l1.494,1.486c0.076,0.076,0.177,0.114,0.276,0.114c0.102,0,0.202-0.038,0.278-0.116
	l0.395-0.396c0.073-0.073,0.115-0.174,0.114-0.278C68.332,49.363,68.29,49.264,68.216,49.189z"/>
<path fill-rule="evenodd" clip-rule="evenodd" fill="#9D9D9D" d="M58.082,56.727c0.872-0.002,1.744,0,2.616-0.002
	c2.566-0.002,2.566-0.002,2.474,2.615c-0.105,2.938-2.238,4.968-5.177,4.928c-2.892-0.039-4.915-2.034-4.997-4.926
	c-0.074-2.615-0.074-2.615,2.468-2.615C56.337,56.727,57.209,56.727,58.082,56.727z"/>
<polygon fill-rule="evenodd" clip-rule="evenodd" fill="#9D9D9D" points="53.691,47.059 50.351,47.059 53.541,43.091 50.223,43.091 
	46.234,48.865 49.204,48.854 46.654,54.423 "/>
</svg>
