<?xml version="1.0" encoding="utf-8"?>
<!-- Generator: Adobe Illustrator 16.0.0, SVG Export Plug-In . SVG Version: 6.00 Build 0)  -->
<!DOCTYPE svg PUBLIC "-//W3C//DTD SVG 1.1//EN" "http://www.w3.org/Graphics/SVG/1.1/DTD/svg11.dtd">
<svg version="1.1" id="Layer_1" xmlns="http://www.w3.org/2000/svg" xmlns:xlink="http://www.w3.org/1999/xlink" x="0px" y="0px"
	 width="212px" height="245.333px" viewBox="0 0 212 245.333" enable-background="new 0 0 212 245.333" xml:space="preserve">
<path fill="#FFFFFF" d="M105.989,245.333L0.646,184.5l0.01-121.867L106.012,1.818L211.355,62.65l-0.01,121.866L105.989,245.333z
	 M10.646,178.727l95.344,55.059l95.355-55.043l0.01-110.319l-95.344-55.059L10.656,68.408L10.646,178.727z"/>
<path fill-rule="evenodd" clip-rule="evenodd" fill="#FFFFFF" d="M190.271,132.258c2.08-0.916,4.351-1.504,6.559-1.66
	c1.907-0.135,3.758-0.85,5.714-0.785c1.72,0.057,3.93-0.299,4.124-2.49c0.516-5.8,0.9-11.614,1.178-17.43
	c0.102-2.137-1.906-4.767-3.89-5.204c-2.426-0.535-4.557-1.313-6.855-2.338c-4.652-2.07-9.664-4.704-12.139-9.393
	c-15.952-30.221-55.986-33.822-77.259-7.029c-0.622,0.784-1.286,1.535-2.389,2.846C96.422,78.751,85.307,74.115,72.678,73.21
	c-19.058-1.367-34.191,5.517-44.122,22.314c-1.371,2.319-2.333,3.149-4.668,4.284c-4.744,2.303-8.682,5.542-13.992,6.419
	c-2.555,0.422-4.924,1.165-6.818,3.021c-2.345,2.298-2.498,5.609-2.416,8.697c0.104,3.923-0.005,7.856,0.236,11.77
	c0.221,3.586,2.832,2.811,5.346,2.359c5.546-0.994,9.318,1.564,14.333,3.111c3.823,1.18,5.25,2.252,6.642,5.762
	c1.626,4.104,4.298,7.836,7.397,10.955c5.638,5.672,12.979,9.473,20.66,11.539c7.938,2.135,16.426,2.508,24.492,0.871
	c11.872-2.41,21.279-8.326,27.709-19.354c4.073,3.176,7.632,6.18,11.415,8.865c21.494,15.258,53.223,7.676,65.622-15.654
	c0.897-1.691,1.574-3.543,3.271-4.602C188.567,133.079,189.402,132.639,190.271,132.258z M100.179,149.239
	c-13.683,12.727-32.427,16.658-48.082,9.818c-28.634-12.514-34.758-54.236-10.804-73.6c6.843-5.53,18.542-9.227,28.202-8.878
	c11.089,0.444,21.297,3.197,29.461,11.257c3.207,3.166,4.903,6.705,5.081,11.537c0.409,11.188,1.559,22.354,2.562,33.516
	C107.189,139.481,105.04,144.717,100.179,149.239z M139.239,157.245c-9.241-0.748-17.578-3.971-24.385-10.5
	c-3.314-3.18-5.983-6.563-5.529-11.74c0.317-3.623-0.322-7.33-0.534-11c8.406,18.836,23.816,27.633,42.622,23.934
	c18.04-3.549,28.409-15.77,28.364-33.426c-0.042-15.899-10.949-29.126-26.796-32.173c-9.881-1.898-19.456-0.987-28.251,4.369
	c-8.818,5.37-14.113,13.208-16.286,23.417c0.405-7.576-3.808-15.091,2.549-22.477c11.737-13.636,26.069-18.892,43.34-14.812
	c16.898,3.992,26.978,15.601,31.335,31.99C192.843,131.815,174.021,160.061,139.239,157.245z M171.91,120.892
	c-12.663-0.301-25.332-0.434-37.992-0.844c-0.977-0.033-2.163-1.611-2.768-2.732c-0.511-0.945-0.226-2.288-0.45-3.423
	c-1.389-7.029-4.043-9.689-11.78-11.263c5.013-5.593,11.088-7.855,17.523-9.085c11.214-2.146,22.097-1.577,31.698,5.584
	c6.215,4.637,8.04,11.125,7.426,18.559C175.376,120.003,174.303,120.95,171.91,120.892z M173.604,123.592
	c-0.038,10.938-11.561,19.998-26.251,21.104c-16.485,1.242-30.788-7.545-32.99-20.982
	C134.179,122.002,153.894,123.35,173.604,123.592z M119.917,107.542c4.838,0.091,8.576,3.619,8.371,8.126
	c-0.111,2.454-0.226,5.27-4.452,4.091c-0.273-3.195,0.406-7.198-3.826-7.293c-4.546-0.103-3.921,4.084-4.162,7.678
	c-4.137-0.28-3.512-3.397-3.537-5.57C112.258,110.12,115.327,107.455,119.917,107.542z"/>
<path fill-rule="evenodd" clip-rule="evenodd" fill="#FFFFFF" d="M70.038,153.049c-16.954-0.07-31.979-10.555-35.686-24.906
	c-5.528-21.392,9.809-41.676,32.035-42.251c15.158-0.392,27.713,4.574,34.35,19.07C109.29,123.645,100.491,153.336,70.038,153.049z
	 M38.345,124.69c-0.239,8.213,4.714,16.047,13.042,20.111c13.013,6.352,25.934,5.904,38.129-2.123
	c6.325-4.164,9.938-10.197,10.156-17.988C78.875,124.69,58.599,124.69,38.345,124.69z M99.662,121.143
	c0.222-11.841-7.185-20.907-19.729-25.069c-13.438-4.46-30.694-1.534-36.271,6.324c7.369,4.11,9.313,10.612,7.482,18.745
	C67.525,121.143,83.479,121.143,99.662,121.143z M37.097,120.001c0.127,0.216,0.506,1.85,1.36,2.155
	c6.807,2.432,11.152-1.265,10.253-8.533c-0.439-3.546-3.858-7.899-6.307-7.407c-3.664,0.734-3.944,4.121-4.497,7.102
	c-0.019,0.103,0.128,0.235,0.198,0.354c1.932-0.214,5.729-0.343,6.556,1.958c0.563,1.566-0.164,2.993-1.672,3.395
	C41.069,119.532,39.053,119.663,37.097,120.001z"/>
</svg>
