<?xml version="1.0" encoding="utf-8"?>
<!-- Generator: Adobe Illustrator 16.0.0, SVG Export Plug-In . SVG Version: 6.00 Build 0)  -->
<!DOCTYPE svg PUBLIC "-//W3C//DTD SVG 1.1//EN" "http://www.w3.org/Graphics/SVG/1.1/DTD/svg11.dtd" [
	<!ENTITY ns_flows "http://ns.adobe.com/Flows/1.0/">
	<!ENTITY ns_extend "http://ns.adobe.com/Extensibility/1.0/">
	<!ENTITY ns_ai "http://ns.adobe.com/AdobeIllustrator/10.0/">
	<!ENTITY ns_graphs "http://ns.adobe.com/Graphs/1.0/">
]>
<svg version="1.1" id="Layer_1" xmlns:x="&ns_extend;" xmlns:i="&ns_ai;" xmlns:graph="&ns_graphs;"
	 xmlns="http://www.w3.org/2000/svg" xmlns:xlink="http://www.w3.org/1999/xlink" xmlns:a="http://ns.adobe.com/AdobeSVGViewerExtensions/3.0/"
	 x="0px" y="0px" width="236.026px" height="248.856px" viewBox="0 0 236.026 248.856"
	 style="enable-background:new 0 0 236.026 248.856;" xml:space="preserve">
<polygon style="fill:#65636B;" points="0,69.23 13.9,59.074 103.713,104.247 117.919,128.839 118.414,240.491 103.713,248.856 
	12.83,203.416 0,180.694 "/>
<polygon style="fill:#CECCD5;" points="13.899,45.708 13.899,59.073 103.712,104.247 133.115,104.247 222.127,60.41 222.127,45.708 
	131.512,0 104.515,0 "/>
<polygon style="fill:#7B7A81;" points="222.127,204.484 236.026,181.497 236.026,68.696 222.127,60.41 133.116,104.247 
	117.919,128.839 118.414,240.492 132.313,248.856 "/>
<polygon style="fill:#909394;" points="8.019,55.799 0,69.23 13.9,59.073 13.9,45.708 "/>
<polygon style="fill:#ACAAB5;" points="119.216,104.247 103.713,104.247 117.919,128.839 133.116,104.247 "/>
<polygon style="fill:#F3F2F8;" points="228.643,56.868 222.127,45.708 222.127,60.41 236.026,68.696 "/>
<polygon style="fill:#5A5A5F;" points="117.919,248.856 132.314,248.856 118.414,240.492 103.712,248.856 "/>
<polygon style="fill:#E3E0E5;" points="1.604,76.715 13.9,68.496 29.871,76.715 29.871,122.223 32.076,126.834 77.384,149.889 
	80.992,148.084 80.992,102.576 98.033,110.996 109.259,130.843 109.259,235.893 96.83,244.446 80.792,236.093 80.792,189.583 
	77.985,185.373 32.678,162.318 29.671,164.924 29.871,210.232 13.432,201.812 1.604,181.163 "/>
<polygon style="fill:#FFFEFF;" points="0.802,72.973 13.9,64.152 34.215,74.176 29.871,76.715 13.9,69.231 1.604,76.715 "/>
<polygon style="fill:#A5A8AA;" points="109.259,130.844 109.259,235.893 96.83,244.446 100.772,246.451 114.538,236.961 
	114.538,130.442 "/>
<polygon style="fill:#BAB9BF;" points="34.348,212.504 34.348,163.168 32.677,162.317 29.67,164.924 29.871,210.231 "/>
<polygon style="fill:#AC242C;" points="234.69,97.564 234.69,74.856 223.998,68.696 138.462,111.464 126.968,131.244 
	126.968,235.225 138.729,244.446 155.302,235.491 155.034,141.135 157.173,136.323 "/>
<polygon style="fill:#E5828B;" points="126.968,131.244 121.087,130.176 121.087,237.096 126.968,235.225 "/>
<polygon style="fill:#E5828B;" points="222.127,64.486 135.254,107.02 138.462,111.464 223.998,68.696 234.689,74.857 
	234.689,71.857 "/>
<polygon style="fill:#BFBDC4;" points="34.214,74.09 34.214,123.006 32.076,126.748 29.871,122.137 29.871,76.629 "/>
<polygon style="fill:#FFFFFF;" points="34.181,123.095 80.959,145.816 80.959,148.088 77.35,149.893 32.043,126.837 "/>
<polygon style="fill:#FFFFFF;" points="80.958,97.531 80.958,102.543 97.999,110.963 101.941,106.987 "/>
<polygon style="fill:#D3D3D5;" points="98.033,110.997 109.259,130.844 114.539,130.442 101.976,107.021 "/>
<polygon style="fill:#CA303A;" points="121.087,237.096 134.719,246.451 138.729,244.446 126.968,235.225 "/>
<polygon style="fill:#CA303A;" points="222.127,64.486 223.998,68.696 234.689,74.857 234.689,71.857 "/>
<polygon style="fill:#F5909F;" points="127.102,131.244 138.596,111.464 135.388,107.021 121.221,130.176 "/>
<ellipse style="fill:#E3E0E5;" cx="117.446" cy="23.489" rx="12.16" ry="6.917"/>
<path style="fill:#7B7A81;" d="M130.079,23.489c0,3.82-4.949-1.362-11.665-1.362c-6.715,0-12.655,5.182-12.655,1.362
	s5.444-6.917,12.16-6.917C124.635,16.572,130.079,19.669,130.079,23.489z"/>
<ellipse style="fill:#E3E0E5;" cx="88.308" cy="37.322" rx="12.16" ry="6.917"/>
<path style="fill:#7B7A81;" d="M100.941,37.322c0,3.82-4.949-1.362-11.665-1.362c-6.715,0-12.655,5.182-12.655,1.362
	s5.444-6.917,12.16-6.917C95.497,30.405,100.941,33.502,100.941,37.322z"/>
<ellipse style="fill:#E3E0E5;" cx="60.641" cy="52.124" rx="12.16" ry="6.917"/>
<path style="fill:#7B7A81;" d="M73.274,52.124c0,3.82-4.949-1.362-11.665-1.362c-6.715,0-12.655,5.182-12.655,1.362
	s5.444-6.917,12.16-6.917C67.83,45.207,73.274,48.304,73.274,52.124z"/>
<ellipse style="fill:#E3E0E5;" cx="117.209" cy="80.223" rx="12.16" ry="6.917"/>
<path style="fill:#7B7A81;" d="M129.843,80.223c0,3.82-4.949-1.362-11.665-1.362c-6.715,0-12.655,5.182-12.655,1.362
	s5.444-6.917,12.16-6.917C124.398,73.307,129.843,76.403,129.843,80.223z"/>
<ellipse style="fill:#E3E0E5;" cx="145.409" cy="65.956" rx="12.16" ry="6.917"/>
<path style="fill:#7B7A81;" d="M158.043,65.956c0,3.82-4.949-1.362-11.666-1.362c-6.715,0-12.654,5.182-12.654,1.362
	s5.444-6.917,12.16-6.917C152.598,59.04,158.043,62.136,158.043,65.956z"/>
<ellipse style="fill:#E3E0E5;" cx="174.311" cy="52.124" rx="12.16" ry="6.917"/>
<path style="fill:#7B7A81;" d="M186.944,52.124c0,3.82-4.949-1.362-11.665-1.362c-6.715,0-12.654,5.182-12.654,1.362
	s5.443-6.917,12.159-6.917S186.944,48.304,186.944,52.124z"/>
</svg>
