<?xml version="1.0" encoding="utf-8"?>
<!-- Generator: Adobe Illustrator 16.0.0, SVG Export Plug-In . SVG Version: 6.00 Build 0)  -->
<!DOCTYPE svg PUBLIC "-//W3C//DTD SVG 1.1//EN" "http://www.w3.org/Graphics/SVG/1.1/DTD/svg11.dtd">
<svg version="1.1" id="Layer_1" xmlns="http://www.w3.org/2000/svg" xmlns:xlink="http://www.w3.org/1999/xlink" x="0px" y="0px"
	 width="389.532px" height="366.35px" viewBox="116.913 216.187 389.532 366.35"
	 enable-background="new 116.913 216.187 389.532 366.35" xml:space="preserve">
<path fill="#FFFFFF" d="M381.031,216.187c0,52.004,0,103.932,0,156.091c1.005-0.309,1.932-0.541,2.782-0.85
	c8.268-2.782,16.536-5.641,24.804-8.5c7.65-2.627,15.301-5.409,22.95-8.036c5.796-2.009,9.659-5.95,11.05-11.978
	c0.464-2.009,0.619-4.173,0.619-6.259c0-17.85,0-35.7,0-53.627c0-20.632,0-41.341,0-61.973c0-1.005,0-2.009-0.078-3.014
	c-0.077-0.618-0.231-1.313-0.309-1.854C422.141,216.187,401.586,216.187,381.031,216.187z"/>
<path fill="#FFFFFF" d="M506.446,446.846c-0.232,0.85-0.387,1.777-0.773,2.627c-1.854,4.56-5.254,7.187-10.199,7.805
	c-0.464,0.077-0.851,0.077-1.314,0.154c-0.309,0-0.618-0.077-0.927-0.077c-6.104-0.464-10.741-5.1-11.282-11.282
	c-0.463-5.563,3.014-11.05,8.964-12.75c1.082-0.309,2.164-0.386,3.245-0.618c3.092,0.232,5.95,1.159,8.269,3.323
	c1.932,1.854,3.4,3.94,3.632,6.723c0,0.154,0.154,0.309,0.309,0.464C506.446,444.296,506.446,445.609,506.446,446.846z"/>
<path fill="#9D9D9D" d="M494.237,432.627c-1.082,0.155-2.241,0.31-3.246,0.618c-5.95,1.7-9.427,7.187-8.964,12.75
	c0.541,6.26,5.255,10.818,11.282,11.282c0.309,0,0.618,0.077,0.928,0.077c0,4.481,0,8.887,0,13.522
	c-3.941,0.464-7.109,2.087-9.351,5.332c-1.468,2.164-2.241,4.56-2.163,7.187c0.231,6.104,3.94,9.968,11.436,11.822
	c0,29.055,0,58.109,0,87.318c-12.904,0-25.809,0-38.945,0c7.805-21.404,15.532-42.731,23.414-64.291c-1.932,0-3.632,0-5.332,0
	c-2.086,0-4.25,0.155-6.336,0c-1.623-0.077-2.551,0.695-3.246,2.01c-0.386,0.695-0.618,1.468-0.772,2.24
	c-3.245,10.896-6.414,21.714-9.659,32.609c-0.154,0.541-0.387,1.159-0.618,2.086c-1.005-2.858-1.854-5.331-2.704-7.882
	c-3.014-9.195-6.027-18.391-9.041-27.509c-0.928-2.781-2.01-3.555-4.868-3.632c-3.4,0-6.801,0-10.2,0
	c-0.31,0-0.541,0.077-1.005,0.077c0.154,0.541,0.232,0.928,0.387,1.313c6.182,15.301,12.286,30.601,18.468,45.823
	c1.159,2.937,1.392,5.796,0.31,8.654c-0.928,2.396-1.932,4.791-2.937,7.187c-0.154,0.387-0.618,0.772-1.005,0.928
	c-0.463,0.231-1.081,0.231-1.622,0.309s-1.082,0-1.7,0c-105.786,0-211.572,0-317.359,0c-0.772,0-1.622,0-2.473,0
	c0-57.413,0-114.75,0-172.086c65.682-21.096,131.441-42.191,197.432-63.441c0,19.164,0,38.096,0,57.336
	c60.118-18.931,119.928-37.94,179.969-57.104C494.237,375.909,494.237,404.268,494.237,432.627z M243.487,465.005
	c-0.077-7.65-1.932-13.832-5.873-19.396c-10.663-15.068-31.682-16.769-44.509-3.632c-12.055,12.363-11.823,32.687,0.464,44.818
	c11.204,10.973,28.514,11.281,39.949,0.54C240.163,481,243.332,473.195,243.487,465.005z M303.605,495.296
	c-7.959-11.051-15.687-21.791-23.491-32.532c7.187-9.891,14.296-19.705,21.559-29.673c-4.404,0-8.422,0-12.518,0
	c-2.704,0-4.637,1.159-6.259,3.4c-5.255,7.649-10.664,15.223-15.996,22.872c-0.309,0.464-0.695,0.928-1.391,1.777
	c0-2.704,0-5.022,0-7.264c0-2.24,0-4.481,0-6.723c0-2.318,0-4.559,0-6.877c0-2.241,0.077-4.56-0.077-6.723
	c-4.637,0-8.964,0-13.291,0c0,20.555,0,41.031,0,61.432c4.637,0,9.118,0,13.832,0c0-9.736,0-19.396,0-29.363
	c0.772,1.081,1.236,1.777,1.7,2.473c4.713,7.031,9.35,13.986,14.063,21.018c1.004,1.546,2.086,3.091,3.168,4.56
	c0.772,1.082,1.777,1.623,3.168,1.623c4.096-0.078,8.191,0,12.286,0.077C301.364,495.296,302.29,495.296,303.605,495.296z
	 M351.127,516.546c-1.391,0.077-2.705,0.154-4.096,0.309c-0.772,0.077-1.623,0.231-2.396,0.387
	c-10.045,2.086-17,7.805-20.091,17.695c-2.086,6.877-1.932,13.832,0.31,20.709c2.704,8.113,8.19,13.6,16.459,16.15
	c4.404,1.391,8.886,1.622,13.445,0.927c8.731-1.313,15.3-5.795,19.473-13.6c1.932-3.632,2.937-7.65,3.245-11.746
	c0.464-5.949-0.231-11.822-3.014-17.154C369.672,520.641,361.405,516.7,351.127,516.546z M208.559,535.941
	c-3.245,0.617-6.336,1.158-9.427,1.776c-3.787,0.773-7.65,1.469-11.282,2.937c-7.418,3.014-11.359,9.195-10.896,17.232
	c0.618,9.504,9.272,16.459,18.7,14.99c3.4-0.541,6.568-1.854,9.659-3.245c1.7-0.772,3.322-1.468,5.1-2.318
	c0.464,1.546,0.851,2.859,1.236,4.096c4.096,0,7.959,0,11.9,0c0-0.541,0-1.005,0-1.391c-0.154-6.26-0.231-12.519-0.387-18.777
	c-0.077-5.486,0-10.896-0.386-16.382c-0.541-8.269-4.482-14.682-13.678-17.077c-9.582-2.551-18.777-1.082-27.586,3.245
	c-0.155,0.077-0.232,0.231-0.464,0.541c0.772,2.473,1.545,4.945,2.318,7.495c2.55-0.541,4.868-1.159,7.108-1.545
	c3.169-0.541,6.337-1.159,9.582-1.236C205.855,526.05,209.177,530.068,208.559,535.941z M129.74,571.486c4.637,0,9.041,0,13.601,0
	c0-10.586,0-21.019,0-31.604c9.118,0,18.082,0,27.123,0c0-3.709,0-7.187,0-10.896c-8.964,0-17.928,0-26.892,0
	c0-6.954,0-13.755,0-20.709c9.659,0,19.241,0,28.746,0c0.309-2.782,0.231-9.35-0.078-10.587c-14.218,0-28.358,0-42.5,0
	C129.74,522.264,129.74,546.836,129.74,571.486z M275.709,519.481c-0.232-0.154-0.387-0.309-0.541-0.386
	c-0.464-0.232-1.005-0.464-1.546-0.695c-4.945-2.087-10.122-2.782-15.454-1.933c-9.118,1.469-16.382,5.873-21.327,13.755
	c-3.478,5.563-4.482,11.745-4.096,18.159c0.618,10.973,7.882,20.014,18.468,23.182c4.868,1.469,9.814,1.313,14.76,0.928
	c2.24-0.155,4.404-0.464,6.646-0.928c2.009-0.464,2.781-1.545,2.55-3.478c-0.31-2.55-0.85-5.1-1.313-7.727
	c-0.541,0.154-0.851,0.154-1.082,0.309c-3.478,1.005-6.954,1.777-10.586,1.7c-4.328-0.154-7.96-1.7-10.818-4.945
	c-6.646-7.341-6.646-17.772,0-25.191c2.24-2.473,4.945-4.018,8.268-4.636c3.014-0.541,5.95-0.232,8.887,0.231
	c1.7,0.31,3.322,0.695,5.1,1.005C274.163,525.509,274.937,522.495,275.709,519.481z M290.545,528.368c0,0.928,0,1.546,0,2.241
	c0,8.268-0.077,16.459,0.077,24.727c0.078,2.551,0.464,5.178,1.082,7.728c1.313,5.022,4.714,8.036,9.891,8.887
	c1.7,0.309,3.478,0.464,5.178,0.464c2.318,0,4.559-0.078,6.877-0.232c1.391-0.077,2.705-0.618,2.937-2.086
	c0.387-2.859,0.309-5.796,0.077-8.577c-2.086,0-4.019,0.077-5.873,0c-3.322-0.155-5.254-1.854-5.949-5.101
	c-0.31-1.468-0.387-2.937-0.387-4.404c-0.077-7.418,0-14.914,0-22.332c0-0.464,0.077-0.927,0.154-1.545c4.173,0,8.269,0,12.364,0
	c0-3.246,0-6.414,0-9.659c-11.282,0-22.486,0-33.846,0c0,0.927,0,1.777,0,2.627c0,2.318,0,4.714,0,7.187c1.313,0,2.473,0,3.632,0
	C287.918,528.368,289.077,528.368,290.545,528.368z M389.3,571.332c3.477,0.309,12.363,0.231,13.677-0.154c0-0.696,0-1.314,0-2.01
	c0-8.036,0-16.149,0-24.187c0-1.776,0.154-3.632,0.464-5.331c0.772-4.868,3.478-8.114,8.5-9.118c1.7-0.31,3.4-0.464,5.177-0.696
	c0.619-0.077,1.314-0.154,2.01-0.309c0-4.096,0-8.036,0-12.132c-4.019-0.695-7.65,0-10.973,2.396
	c-2.241,1.623-3.941,3.709-5.486,6.027c-0.31,0.464-0.695,0.927-1.236,1.777c-0.31-3.246-0.618-6.104-0.851-8.964
	c-3.786,0-7.418,0-11.127,0C389.3,536.173,389.3,553.714,389.3,571.332z M383.35,483.009c0-6.646-5.409-12.055-12.055-12.055
	s-12.055,5.409-12.055,12.055s5.486,12.055,12.132,12.055C377.941,495.141,383.35,489.654,383.35,483.009z M441.614,483.009
	c-0.077,6.646,5.332,12.132,11.978,12.209c6.646,0.078,12.054-5.331,12.132-11.977c0.077-6.646-5.332-12.132-11.978-12.132
	C447.023,470.954,441.614,476.286,441.614,483.009z M359.009,445.146c0,6.646,5.409,12.055,12.132,11.978
	c6.646,0,12.055-5.486,11.978-12.132c-0.078-6.646-5.487-11.978-12.132-11.978C364.263,433.091,358.932,438.423,359.009,445.146z
	 M330.186,471.032c-6.646,0-12.055,5.331-12.132,11.977c0,6.646,5.409,12.132,12.055,12.132c6.568,0,12.132-5.486,12.132-12.055
	C342.24,476.519,336.754,471.032,330.186,471.032z M412.405,471.032c-6.646,0-11.978,5.486-11.978,12.132
	s5.486,12.054,12.132,11.977s12.055-5.486,11.978-12.132C424.536,476.363,419.05,470.954,412.405,471.032z M424.304,445.146
	c0-6.723-5.331-12.055-12.054-12.055c-6.646,0-12.055,5.409-12.055,12.055s5.409,12.055,12.055,12.055
	C418.895,457.2,424.304,451.791,424.304,445.146z M465.568,445.223c0.077-6.723-5.254-12.132-11.899-12.209
	c-6.646,0-12.132,5.255-12.209,11.978c-0.078,6.568,5.408,12.132,11.977,12.209C460.081,457.2,465.49,451.868,465.568,445.223z
	 M317.668,445.146c0,6.646,5.486,12.055,12.055,12.055c6.646,0,12.054-5.486,12.054-12.132s-5.486-12.055-12.132-11.978
	C323,433.091,317.668,438.423,317.668,445.146z"/>
<path fill="#9D9D9D" d="M381.031,216.187c20.555,0,41.109,0,61.818,0c0.077,0.618,0.309,1.236,0.309,1.854
	c0.078,1.004,0.078,2.009,0.078,3.014c0,20.632,0,41.341,0,61.973c0,17.85,0.077,35.7,0,53.627c0,2.086-0.155,4.25-0.619,6.259
	c-1.391,6.104-5.254,9.968-11.05,11.978c-7.649,2.705-15.3,5.409-22.95,8.036c-8.268,2.859-16.536,5.641-24.804,8.5
	c-0.851,0.309-1.777,0.541-2.782,0.85C381.031,320.118,381.031,268.191,381.031,216.187z"/>
<path fill="#9D9D9D" d="M364.495,545.368c-0.077,4.25-1.082,8.269-3.245,11.9c-1.082,1.777-2.396,3.322-4.096,4.559
	c-4.25,3.091-9.273,3.014-13.445-0.231c-2.01-1.623-3.632-3.632-4.637-5.95c-3.168-7.032-3.091-14.063,0.154-21.019
	c0.928-2.009,2.318-3.786,4.019-5.254c4.327-3.709,9.891-3.787,14.295-0.232c3.478,2.782,5.332,6.646,6.26,10.896
	C364.186,541.813,364.263,543.591,364.495,545.368z"/>
<path fill="#9D9D9D" d="M209.487,545.445c-0.154,3.323,0,6.414-0.464,9.505c-1.159,7.031-8.346,9.582-13.6,7.959
	c-2.782-0.85-4.173-3.091-4.637-5.796c-0.541-3.555,0.618-6.49,3.709-8.5c1.854-1.236,3.863-2.009,5.95-2.396
	C203.382,545.445,206.24,545.368,209.487,545.445z"/>
</svg>
