<?xml version="1.0" encoding="utf-8"?>
<!-- Generator: Adobe Illustrator 16.0.0, SVG Export Plug-In . SVG Version: 6.00 Build 0)  -->
<!DOCTYPE svg PUBLIC "-//W3C//DTD SVG 1.1//EN" "http://www.w3.org/Graphics/SVG/1.1/DTD/svg11.dtd" [
	<!ENTITY ns_flows "http://ns.adobe.com/Flows/1.0/">
	<!ENTITY ns_extend "http://ns.adobe.com/Extensibility/1.0/">
	<!ENTITY ns_ai "http://ns.adobe.com/AdobeIllustrator/10.0/">
	<!ENTITY ns_graphs "http://ns.adobe.com/Graphs/1.0/">
]>
<svg version="1.1" id="Layer_1" xmlns:x="&ns_extend;" xmlns:i="&ns_ai;" xmlns:graph="&ns_graphs;"
	 xmlns="http://www.w3.org/2000/svg" xmlns:xlink="http://www.w3.org/1999/xlink" xmlns:a="http://ns.adobe.com/AdobeSVGViewerExtensions/3.0/"
	 x="0px" y="0px" width="209.333px" height="243.334px" viewBox="0 0 209.333 243.334"
	 style="enable-background:new 0 0 209.333 243.334;" xml:space="preserve">
<polygon style="fill:#F4C82F;stroke:#F4C82F;stroke-width:6;stroke-miterlimit:10;" points="105.093,4.737 3.691,63.44 
	3.691,63.662 3.68,180.861 3.68,181.083 105.072,239.803 206.475,181.1 206.475,180.877 206.485,63.678 206.485,63.457 "/>
<path style="fill:#FFFFFF;" d="M88.294,36.053c-0.064-0.112-0.177-0.195-0.313-0.262c-2.081-1.995-14.552,2.519-28.542,10.41
	c-14.457,8.155-25.027,16.807-23.607,19.323c1.42,2.518,14.291-2.053,28.748-10.208c13.213-7.452,23.146-15.304,23.682-18.525
	C88.362,36.499,88.4,36.238,88.294,36.053"/>
<path style="fill:#262E33;" d="M34.92,65.981L34.9,65.993l-0.008-0.081c-0.063-0.13-0.86-9.646-1.686-19.663l-29.791,17.2v0.221
	v117.2v0.221l40.708,23.414L41.554,66.216C38.592,66.871,35.48,66.962,34.92,65.981"/>
<path style="fill:#262E33;" d="M105.106,4.737L73.157,23.183c8.303,5.86,16.243,11.488,16.325,11.633
	c0.539,0.943-0.463,2.87-2.361,4.963l119.365,69.65l0.308-45.759v-0.222L105.106,4.737z"/>
<path style="fill:#262E33;" d="M166.056,114.771c-0.365-1.165-0.842-2.299-1.138-3.479c-0.342-1.358-0.461-2.772-0.815-4.125
	c-0.846-3.228-2.603-5.972-4.783-8.447c-1.78-2.023-3.734-3.898-4.541-6.606c-0.224-0.754-0.84-1.325-1.649-1.629
	c-0.168,0.239-0.321,0.458-0.565,0.806c-0.634-0.566-1.321-1.031-1.816-1.65c-1.521-1.899-3.492-3.121-5.683-4.072
	c-1.973-0.856-3.924-1.741-5.649-3.081c-0.772-0.598-1.726-0.971-2.613-1.411c-0.83-0.411-1.688-0.769-2.526-1.162
	c-1.373-0.642-2.704-1.4-4.124-1.91c-1.507-0.541-2.83-1.279-3.955-2.415c-0.311-0.313-0.729-0.541-1.133-0.734
	c-1.926-0.922-4.049-0.781-6.072-1.18c-0.052,0.055-0.104,0.111-0.155,0.166c0.313,0.567,0.626,1.134,1.021,1.85l-3.977-1.043
	c-0.104,0.155-0.208,0.314-0.333,0.503c-0.823-0.472-1.606-0.922-2.419-1.388c-0.748,0.943-0.376,2.046-0.352,3.134
	c-0.584-0.112-1.108-0.212-1.705-0.327c-0.858,3.255-1.301,6.432,0.261,9.554c-0.691,0.382-1.352,0.782-2.041,1.121
	c-1.425,0.697-2.914,1.274-4.286,2.059c-2.282,1.306-4.496,2.733-6.734,4.114c-3.298,2.037-5.989,4.536-6.821,8.563
	c-0.427,2.067-1.746,3.46-3.719,4.182c-2.191,0.803-4.416,1.515-6.605,2.326c-1.592,0.589-3.188,1.197-4.713,1.938
	c-1.603,0.778-2.605,2.917-0.931,4.718c0.572,0.614,1.142,1.23,1.692,1.862c0.641,0.737,1.085,1.545,1.018,2.582
	c-0.076,1.182-0.814,1.964-1.502,2.815c-0.66,0.819-1.24,1.707-1.813,2.592c-0.104,0.161-0.062,0.479,0.017,0.686
	c0.222,0.584,0.495,1.148,0.759,1.742c-0.145,0.05-0.227,0.085-0.312,0.106c-1.812,0.468-2.466,1.241-2.532,3.108
	c-0.034,0.949-0.01,1.904,0.049,2.853c0.074,1.171-0.417,2.046-1.251,2.805c-0.651,0.595-1.309,1.195-1.883,1.863
	c-1.719,2-2.883,5.807-0.162,8.821c1.483,1.644,3.304,2.818,5.195,3.898c2.208,1.26,4.354,2.594,6.271,4.287
	c0.948,0.839,1.932,1.659,2.994,2.344c2.951,1.898,4.568,4.641,5.294,7.994c0.293,1.35,0.37,2.692,0.313,4.028
	c0.023,0.115,0.033,0.234,0.053,0.351c0.529,1.633,0.355,3.266,0.4,4.962c0.016,0.623-0.725,2.882-0.644,3.006
	c0.335-0.088,0.701-0.176,0.015,0.021c1.244,6.066,6.82,8.874,10.615,13.185c0.951,1.08,2.324,1.806,3.549,2.627
	c5.031,3.375,10.126,2.943,15.245,0.195c5.996-3.22,11.572-7.045,15.263-12.87c1.814-2.863,7.392-19.204,7.399-19.23
	c-0.067-0.376,0.092-1.049,0.203-1.495c0.255-1.025,0.621-1.994,1.054-2.926c3.433-4.096,6.894-8.153,11.44-11.119
	c2.432-1.586,4.156-3.787,5.28-6.497c0.443-1.069,1.19-2.021,1.84-2.999c0.724-1.093,1.585-2.105,2.229-3.242
	c1.766-3.117,2.736-6.5,3.154-10.054C167.072,120.508,166.946,117.609,166.056,114.771"/>
<path style="fill:#262E33;" d="M206.485,177.043c-1.258-0.462-21.412-4.195-22.805-4.431c-10.759-1.809-21.557-4.172-32.387-4.456
	c-2.106-0.055-3.769-0.308-5.111-0.841c0.766,3.817-0.3,14.81-5.404,26.883c-5.885,13.923-22.39,33.093-26.172,40.035l91.87-53.134
	L206.485,177.043z"/>
<path style="fill:#262E33;" d="M89.441,177.853c-0.307,0.081-0.58,0.16,0,0.024c0.004-0.002,0.008-0.002,0.014-0.004
	C89.449,177.866,89.445,177.859,89.441,177.853"/>
<path style="fill:#262E33;" d="M93.421,207.092c0.215,0.151,0.51,0.47,0.639,0.412c2.004-0.878,3.847-3.087,6.121-0.308
	c2.543,3.105,3.129,6.604,1.713,10.177c-0.813,2.051-2.635,3.682-3.848,5.599c-1.941,3.07-3.832,6.209-5.775,9.417l12.746,7.382
	l8.998-5.195c-0.72-6.288-1.689-12.557-2.176-18.863c-0.363-4.709,4.608-6.101,8.156-7.635c0.192-0.683,0.249-0.886,0.44-1.569
	C112.028,194.805,103.205,194.535,93.421,207.092"/>
<path style="fill:#262E33;" d="M90.111,231.138c-3.188-18.25-0.875-53.202-0.656-53.265c-0.008,0.003-0.008,0.001-0.014,0.004
	c-0.604,0.138-1.121,0.265-1.605,0.386c-0.046,0.021-0.081,0.049-0.127,0.072c-0.457,0.221-0.899,0.295-1.325,0.292
	c-0.929,0.231-1.667,0.4-2.397,0.471c-16.978,1.637-29.431,17.606-36.399,27.413L90.111,231.138z"/>
<path style="fill:#FFFFFF;" d="M141.527,161.779c-2.421,4.273-5.594,16.305-7.397,19.151c-3.69,5.825-9.267,9.651-15.262,12.87
	c-5.12,2.748-10.214,3.18-15.246-0.195c-1.224-0.82-2.597-1.547-3.548-2.627c-3.795-4.31-9.372-7.117-10.617-13.184
	c-0.217,0.062-2.54,35.127,0.671,53.353l2.11,1.223c1.957-3.229,3.857-6.388,5.812-9.477c1.214-1.918,3.034-3.548,3.847-5.599
	c1.416-3.572,0.83-7.072-1.713-10.178c-2.273-2.778-4.115-0.569-6.119,0.308c-0.131,0.057-0.426-0.261-0.64-0.411
	c9.783-12.557,18.606-12.288,27.016-0.584c-0.192,0.683-0.249,0.886-0.441,1.569c-3.548,1.533-8.521,2.926-8.156,7.635
	c0.476,6.157,1.461,12.835,2.176,18.99l0.354-0.204c4.93-7.135,20.73-26.867,26.41-40.299c5.07-11.996,6.153-22.916,5.416-26.802
	C143.99,166.423,142.517,164.631,141.527,161.779"/>
</svg>
