<?xml version="1.0" encoding="utf-8"?>
<!-- Generator: Adobe Illustrator 16.0.0, SVG Export Plug-In . SVG Version: 6.00 Build 0)  -->
<!DOCTYPE svg PUBLIC "-//W3C//DTD SVG 1.1//EN" "http://www.w3.org/Graphics/SVG/1.1/DTD/svg11.dtd" [
	<!ENTITY ns_flows "http://ns.adobe.com/Flows/1.0/">
	<!ENTITY ns_extend "http://ns.adobe.com/Extensibility/1.0/">
	<!ENTITY ns_ai "http://ns.adobe.com/AdobeIllustrator/10.0/">
	<!ENTITY ns_graphs "http://ns.adobe.com/Graphs/1.0/">
]>
<svg version="1.1" id="Layer_1" xmlns:x="&ns_extend;" xmlns:i="&ns_ai;" xmlns:graph="&ns_graphs;"
	 xmlns="http://www.w3.org/2000/svg" xmlns:xlink="http://www.w3.org/1999/xlink" xmlns:a="http://ns.adobe.com/AdobeSVGViewerExtensions/3.0/"
	 x="0px" y="0px" width="200.709px" height="231.969px" viewBox="0 0 200.709 231.969"
	 style="enable-background:new 0 0 200.709 231.969;" xml:space="preserve">
<path style="fill:#9A9A9A;" d="M100.365,0L0.009,57.93v0.219L0,173.805v0.219l100.344,57.945l100.355-57.931v-0.22l0.01-115.654
	v-0.219L100.365,0z M144.951,51.553l12.767,0.001l-0.002,25.935l-12.767-0.001L144.951,51.553z M119.411,37.952l12.77,0.001v13.599
	l-12.771-0.001L119.411,37.952z M119.409,62.03l12.771,0.002l-0.002,12.492l-12.771-0.001L119.409,62.03z M68.334,35.563
	l12.77,0.001l-0.001,10.87l-12.77-0.002L68.334,35.563z M17.246,65.911l12.771,0.001L30.016,84.33l-12.771-0.001L17.246,65.911z
	 M183.463,163.075l-83.118,47.979l-83.107-47.992l0.002-21.64v-3.03l0.001-6.326v-2.161l0.002-26.651l12.771,0.001l-0.001,16.739
	l12.772,0.001l0.005-68.892l12.772,0.001l-0.004,47.45l12.771,0.001l0.003-36.529l12.77,0.001l-0.005,59.491h12.77L93.66,21.494
	l12.983,0.001l-0.009,116.379l12.769,0.001l0.005-54.098l12.771,0.001l-0.003,36.224l12.771,0.001l0.004-30.562l12.767,0.001
	l-0.001,18.487l12.77,0.001l0.004-42.007l12.77,0.001l-0.005,63.994l-0.001,2.162v6.324h0.215L183.463,163.075z"/>
</svg>
